<svg width="185" height="154" viewBox="0 0 185 154" fill="none" xmlns="http://www.w3.org/2000/svg">
<path d="M162.485 131.249C162.485 131.249 165.588 132.522 167.752 131.96C169.916 131.397 171.704 131.164 174.011 128.485C176.319 125.807 177.167 123.738 177.502 118.799C177.836 113.861 176.52 112.354 175.3 109.437C174.08 106.52 172.059 104.965 172.059 104.965C172.059 104.965 170.834 107.363 169.28 109.384C167.725 111.405 165.842 113.049 164.713 114.036C163.583 115.023 162.506 109.989 162.506 109.989C162.506 109.989 157.986 113.935 158.029 118.545C158.071 123.154 160.23 127.907 160.23 127.907L162.485 131.249Z" fill="url(#paint0_linear_295_3)"/>
<path d="M162.485 131.249C162.485 131.249 165.588 132.522 167.752 131.96C169.916 131.397 171.704 131.164 174.011 128.485C176.319 125.807 177.167 123.738 177.502 118.799C177.836 113.861 176.52 112.354 175.3 109.437C174.08 106.52 172.059 104.965 172.059 104.965C172.059 104.965 170.834 107.363 169.28 109.384C167.725 111.405 165.842 113.049 164.713 114.036C163.583 115.023 162.506 109.989 162.506 109.989C162.506 109.989 157.986 113.935 158.029 118.545C158.071 123.154 160.23 127.907 160.23 127.907L162.485 131.249ZM162.485 131.249C162.485 131.249 164.416 128.899 165.312 126.125C166.208 123.351 164.988 120.433 164.988 120.433" stroke="black" stroke-width="3"/>
<path d="M140.471 131.886C140.471 131.886 145.876 135.795 147.993 135.938C148.987 136.005 151.776 135.709 154.486 134.251C157.196 132.794 160.087 130.024 160.087 130.024L163.095 132.708C163.095 132.708 161.822 135.811 158.056 139.1C154.289 142.388 152.783 143.704 149.16 144.876C145.537 146.048 140.317 144.632 138.625 143.455C136.933 142.277 133.973 138.887 133.973 138.887L137.739 135.599L140.471 131.886Z" fill="#FEF3E4" stroke="black" stroke-width="3"/>
<path d="M18.0815 136.944C17.0815 145.444 25.5814 149.944 27.5815 150.444C29.5815 150.944 33.0815 151.444 33.0815 151.444C33.0815 151.444 33.5814 143.444 33.0815 137.944C32.5815 132.444 29.5815 126.944 29.5815 126.944C29.5815 126.944 19.0815 128.444 18.0815 136.944Z" fill="#523F45"/>
<path d="M131.081 134.444C130.581 131.944 128.581 129.944 125.581 129.944C121.231 129.944 116.778 132.783 114.581 136.444C113.081 138.944 112.581 142.444 113.081 145.444C113.581 148.444 116.581 151.444 116.581 151.444H124.581C124.581 151.444 130.581 145.444 131.081 143.444C131.581 141.444 131.581 136.944 131.081 134.444Z" fill="#523F45"/>
<path d="M87.5815 105.944H71.5815C71.5815 105.944 68.5815 106.944 67.5815 110.944C66.5815 114.944 68.5815 119.944 68.5815 119.944C71.7612 123.442 73.3313 125.444 78.5815 125.444C84.6213 125.444 87.6242 122.03 91.0815 117.944C91.0815 117.944 92.0815 113.944 91.0815 110.944C90.0815 107.944 87.5815 105.944 87.5815 105.944Z" fill="#FED722"/>
<path d="M132.081 151.444C132.081 151.444 139.081 144.944 139.581 141.944C140.081 138.944 140.081 133.944 139.081 131.944C138.081 129.944 135.581 128.444 134.581 125.944C133.581 123.444 130.081 108.944 129.081 105.944C128.081 102.944 122.081 91.9445 122.081 91.9445C122.081 91.9445 118.581 94.9445 112.581 98.4445C106.581 101.944 97.0815 103.944 97.0815 103.944L87.5815 105.944C87.5815 105.944 90.0815 107.944 91.0815 110.944C92.0815 113.944 91.0815 117.944 91.0815 117.944L88.0815 128.944L86.0815 138.444C86.0815 138.444 89.5815 139.944 94.0815 140.444C98.5815 140.944 104.581 141.444 104.581 141.444C104.581 141.444 103.081 145.444 102.081 147.444C101.081 149.444 99.0815 151.444 99.0815 151.444H116.581C116.581 151.444 113.581 148.444 113.081 145.444C112.581 142.444 113.081 138.944 114.581 136.444C116.778 132.783 121.231 129.944 125.581 129.944C128.581 129.944 130.581 131.944 131.081 134.444C131.581 136.944 131.581 141.444 131.081 143.444C130.581 145.444 124.581 151.444 124.581 151.444H132.081Z" fill="#FEF3E4"/>
<path d="M50.5815 101.444C50.5815 101.444 48.5815 108.944 48.5814 113.944C48.5814 118.944 49.2911 124.944 49.2911 124.944L50.5815 132.444L52.7579 141.444C52.7579 141.444 57.0815 141.944 61.0815 141.444C65.0815 140.944 70.5815 138.444 70.5815 138.444L69.5815 128.944L68.5815 119.944C68.5815 119.944 66.5815 114.944 67.5815 110.944C68.5815 106.944 71.5815 105.944 71.5815 105.944C71.5815 105.944 64.0815 104.944 60.5815 104.444C57.0815 103.944 50.5815 101.444 50.5815 101.444Z" fill="#FEF3E4"/>
<path d="M55.5815 151.444L54.0815 146.444L52.7579 141.444L50.5815 132.444L49.2911 124.944L29.5815 126.944C29.5815 126.944 32.5815 132.444 33.0815 137.944C33.5814 143.444 33.0815 151.444 33.0815 151.444H55.5815Z" fill="#FEF3E4"/>
<path d="M84.5815 151.444C84.5815 150.244 85.2481 142.278 86.0815 138.444L88.0815 128.944L91.0815 117.944C87.6242 122.03 84.6213 125.444 78.5815 125.444C73.3313 125.444 71.7612 123.442 68.5815 119.944L69.5815 128.944L70.5815 138.444C70.5815 138.444 71.0815 141.944 71.5815 144.944C72.0815 147.944 72.5815 151.444 72.5815 151.444H84.5815Z" fill="#FEF3E4"/>
<path d="M86.0815 138.444C85.2481 142.278 84.5815 150.244 84.5815 151.444H99.0815C99.0815 151.444 101.081 149.444 102.081 147.444C103.081 145.444 104.581 141.444 104.581 141.444C104.581 141.444 98.5815 140.944 94.0815 140.444C89.5815 139.944 86.0815 138.444 86.0815 138.444Z" fill="#523F45"/>
<path d="M54.0815 146.444L55.5815 151.444H72.5815C72.5815 151.444 72.0815 147.944 71.5815 144.944C71.0815 141.944 70.5815 138.444 70.5815 138.444C70.5815 138.444 65.0815 140.944 61.0815 141.444C57.0815 141.944 52.7579 141.444 52.7579 141.444L54.0815 146.444Z" fill="#523F45"/>
<path d="M55.5815 151.444L54.0815 146.444L52.7579 141.444M55.5815 151.444H33.0815M55.5815 151.444H72.5815M29.5815 126.944C29.5815 126.944 19.0815 128.444 18.0815 136.944C17.0815 145.444 25.5814 149.944 27.5815 150.444C29.5815 150.944 33.0815 151.444 33.0815 151.444M29.5815 126.944L49.2911 124.944M29.5815 126.944C29.5815 126.944 32.5815 132.444 33.0815 137.944C33.5814 143.444 33.0815 151.444 33.0815 151.444M49.2911 124.944C49.2911 124.944 48.5814 118.944 48.5814 113.944C48.5815 108.944 50.5815 101.444 50.5815 101.444C50.5815 101.444 57.0815 103.944 60.5815 104.444C64.0815 104.944 71.5815 105.944 71.5815 105.944M49.2911 124.944L50.5815 132.444L52.7579 141.444M87.5815 105.944L97.0815 103.944C97.0815 103.944 106.581 101.944 112.581 98.4445C118.581 94.9445 122.081 91.9445 122.081 91.9445C122.081 91.9445 128.081 102.944 129.081 105.944C130.081 108.944 133.581 123.444 134.581 125.944C135.581 128.444 138.081 129.944 139.081 131.944C140.081 133.944 140.081 138.944 139.581 141.944C139.081 144.944 132.081 151.444 132.081 151.444H124.581M87.5815 105.944H71.5815M87.5815 105.944C87.5815 105.944 90.0815 107.944 91.0815 110.944C92.0815 113.944 91.0815 117.944 91.0815 117.944M71.5815 105.944C71.5815 105.944 68.5815 106.944 67.5815 110.944C66.5815 114.944 68.5815 119.944 68.5815 119.944M68.5815 119.944L69.5815 128.944L70.5815 138.444M68.5815 119.944C71.7612 123.442 73.3313 125.444 78.5815 125.444C84.6213 125.444 87.6242 122.03 91.0815 117.944M91.0815 117.944L88.0815 128.944L86.0815 138.444M84.5815 151.444C84.5815 150.244 85.2481 142.278 86.0815 138.444M84.5815 151.444H99.0815M84.5815 151.444H72.5815M86.0815 138.444C86.0815 138.444 89.5815 139.944 94.0815 140.444C98.5815 140.944 104.581 141.444 104.581 141.444M104.581 141.444C104.581 141.444 103.081 145.444 102.081 147.444C101.081 149.444 99.0815 151.444 99.0815 151.444M104.581 141.444C104.581 141.444 106.081 138.444 107.581 133.444C109.081 128.444 110.081 122.944 110.081 122.944M99.0815 151.444H116.581M124.581 151.444C124.581 151.444 130.581 145.444 131.081 143.444C131.581 141.444 131.581 136.944 131.081 134.444C130.581 131.944 128.581 129.944 125.581 129.944C121.231 129.944 116.778 132.783 114.581 136.444C113.081 138.944 112.581 142.444 113.081 145.444C113.581 148.444 116.581 151.444 116.581 151.444M124.581 151.444H116.581M52.7579 141.444C52.7579 141.444 57.0815 141.944 61.0815 141.444C65.0815 140.944 70.5815 138.444 70.5815 138.444M70.5815 138.444C70.5815 138.444 71.0815 141.944 71.5815 144.944C72.0815 147.944 72.5815 151.444 72.5815 151.444" stroke="#040000" stroke-width="5"/>
<path d="M122.5 97.9444C122.5 97.9444 117.392 100.943 117.258 105.942C117.123 110.94 118.569 112.979 121.028 114.546C123.486 116.113 129 114.944 129 114.944L128 110.944L126.5 105.942L122.5 97.9444Z" fill="url(#paint1_linear_295_3)"/>
<path d="M49.5 104.017C54 106.517 54.5 107.017 64.5 109.017C74.5 111.017 81.5192 109.517 84.5 109.017C84.5 109.017 90.5 107.017 93.5 105.017C96.5 103.017 106 95.5169 104.5 87.5169C103 79.5169 100 77.5169 94 74.0169C88 70.5169 81 69.0169 74 69.0169C67 69.0169 59.5 70.0169 54.5 72.5169C49.5 75.0169 43 80.5169 42.5 87.5169C42 94.5169 49.5 104.017 49.5 104.017Z" fill="url(#paint2_linear_295_3)"/>
<path d="M41.5192 41.5168C41.5192 41.5168 31.5 43.0168 23.5 46.0168C15.5 49.0168 8 55.5168 6 57.5168C4 59.5168 3 61.0168 3 64.0168C3 66.1605 3.41189 67.28 4.5 68.4165C8.79577 65.3315 10 64.0168 14 62.5168C18 61.0168 22.5 59.5169 27 58.5168C31.5 57.5168 38.1321 53.0168 38.1321 53.0168C39.4459 47.2556 40.9273 42.1087 41.5192 41.5168Z" fill="#FEF3E4"/>
<path d="M7 70.5168C7.88284 71.1955 8.89558 71.7779 10 72.2618C10.8312 72.6261 16.5128 73.5 19 73.5C22.3474 73.5 25.7906 73.2777 27.5 72.9799C31.4446 72.2926 35.0192 71.5168 35.0192 71.5168C35.1247 70.6781 35.2824 69.6041 35.4484 68.473C35.6446 67.136 35.8526 65.7192 36 64.5168C36.4002 61.2523 37.2263 56.9886 38.1321 53.0168C38.1321 53.0168 31.5 57.5168 27 58.5168C22.5 59.5169 18 61.0168 14 62.5168C10 64.0168 8.79577 65.3315 4.5 68.4165C5.10734 69.0509 5.92535 69.6906 7 70.5168Z" fill="url(#paint3_linear_295_3)"/>
<path d="M123 54.0168C123 54.0168 146.5 63.5724 149.5 66.0724C152.5 68.5724 152.065 71.0168 154 71.0168C156.481 71.0168 158.038 69.0168 157.519 64.5168C157 60.0168 155.038 57.0168 148.519 53.0168C142 49.0168 138.519 47.5168 132.019 45.0168C125.519 42.5168 119.519 41.5168 119.519 41.5168L123 54.0168Z" fill="#FEF3E4"/>
<path d="M123 54.0168C123 54.0168 124.5 60.5168 125.519 66.0168C125.968 68.4366 126.304 70.6628 126.5 72.8232C126.5 72.8232 129 71.266 130 70.5724C133.507 68.1399 136.448 65.9768 141 66.0168C145.217 66.0539 149.5 66.0724 149.5 66.0724C146.5 63.5724 123 54.0168 123 54.0168Z" fill="url(#paint4_linear_295_3)"/>
<path d="M35.5 85.0169C36.4807 93.0169 45 101.517 49.5 104.017C49.5 104.017 42 94.5169 42.5 87.5169C43 80.5169 49.5 75.0169 54.5 72.5169C59.5 70.0169 67 69.0169 74 69.0169C81 69.0169 88 70.5169 94 74.0169C100 77.5169 103 79.5169 104.5 87.5169C106 95.5169 96.5 103.017 93.5 105.017C90.5 107.017 84.5 109.017 84.5 109.017C84.9251 108.946 85.5238 108.854 86.2554 108.742C90.654 108.069 99.8556 106.66 105 104.517C106.174 104.028 107.177 103.653 108.082 103.315C111.805 101.925 113.889 101.147 119.519 95.5169C125.831 89.2055 126.045 86.5523 126.379 82.4266C126.415 81.9764 126.453 81.5087 126.5 81.0168C126.769 78.2166 126.749 75.5732 126.5 72.8232C126.304 70.6628 125.968 68.4366 125.519 66.0168C124.5 60.5168 123 54.0168 123 54.0168L119.519 41.5168C110.5 45.0168 99.5 30.0724 99 28.5724C98.5 27.0723 99 28.5723 96.5 26.0724C94 23.5724 86.5 22.0724 86.5 22.0724C86.5 22.0724 88.5 15.9135 86.5 12.4135C83.4838 7.13515 77 -0.0864768 73 4.41353C69 8.91353 73 17.4135 71.5 14.4135C70 11.4135 54.5 13.4135 54.5 19.4136C54.5 25.4136 62 26.0724 62 26.0724L54.5 29.0724L41.5192 41.5168C40.9273 42.1087 39.4459 47.2556 38.1321 53.0168C37.2263 56.9886 36.4002 61.2523 36 64.5168C35.8526 65.7192 35.6446 67.136 35.4484 68.473C35.2824 69.6041 35.1247 70.6781 35.0192 71.5168C34.4245 76.245 34.7855 79.1888 35.483 84.878L35.5 85.0169Z" fill="#FEF3E4"/>
<path d="M99 28.5724C99.5 30.0724 110.5 45.0168 119.519 41.5168C119.519 41.5168 126.5 36.0724 124 24.5724C122.832 19.1989 119.917 16.1179 117.143 14.3602C114.343 12.5862 111.449 15.3844 110.862 18.6466C110.611 20.0455 110.188 21.5589 109.5 23.0724C107 28.5724 99 28.5724 99 28.5724Z" fill="#FED722"/>
<path d="M41.5192 41.5168L54.5 29.0724C54.5 29.0724 49.5 26.5724 47.5 22.0724C47.0598 21.082 46.7408 20.0916 46.5108 19.1492C45.7609 16.0762 42.9698 13.4182 40.2315 15.0017C37.4862 16.5891 34.7439 19.4505 34.5 24.5724C34 35.0724 41.5192 41.5168 41.5192 41.5168Z" fill="#FED722"/>
<path d="M41.5192 41.5168C41.5192 41.5168 31.5 43.0168 23.5 46.0168C15.5 49.0168 8 55.5168 6 57.5168C4 59.5168 3 61.0168 3 64.0168C3 66.1605 3.41189 67.28 4.5 68.4165M41.5192 41.5168C40.9273 42.1087 39.4459 47.2556 38.1321 53.0168M41.5192 41.5168L54.5 29.0724M41.5192 41.5168C41.5192 41.5168 34 35.0724 34.5 24.5724C34.7439 19.4505 37.4862 16.5891 40.2315 15.0017C42.9698 13.4182 45.7609 16.0762 46.5108 19.1492C46.7408 20.0916 47.0598 21.082 47.5 22.0724C49.5 26.5724 54.5 29.0724 54.5 29.0724M35.5 85.0169C36.4807 93.0169 45 101.517 49.5 104.017M35.5 85.0169L35.483 84.878M35.5 85.0169C35.4943 84.9704 35.4886 84.9241 35.483 84.878M49.5 104.017C54 106.517 54.5 107.017 64.5 109.017C74.5 111.017 81.5192 109.517 84.5 109.017M49.5 104.017C49.5 104.017 42 94.5169 42.5 87.5169C43 80.5169 49.5 75.0169 54.5 72.5169C59.5 70.0169 67 69.0169 74 69.0169C81 69.0169 88 70.5169 94 74.0169C100 77.5169 103 79.5169 104.5 87.5169C106 95.5169 96.5 103.017 93.5 105.017C90.5 107.017 84.5 109.017 84.5 109.017M84.5 109.017C84.9251 108.946 85.5238 108.854 86.2554 108.742C90.654 108.069 99.8556 106.66 105 104.517C106.174 104.028 107.177 103.653 108.082 103.315C111.805 101.925 113.889 101.147 119.519 95.5169C125.831 89.2055 126.045 86.5523 126.379 82.4266C126.415 81.9764 126.453 81.5087 126.5 81.0168C126.769 78.2166 126.749 75.5732 126.5 72.8232M123 54.0168C123 54.0168 124.5 60.5168 125.519 66.0168C125.968 68.4366 126.304 70.6628 126.5 72.8232M123 54.0168C123 54.0168 146.5 63.5724 149.5 66.0724M123 54.0168L119.519 41.5168M149.5 66.0724C152.5 68.5724 152.065 71.0168 154 71.0168C156.481 71.0168 158.038 69.0168 157.519 64.5168C157 60.0168 155.038 57.0168 148.519 53.0168C142 49.0168 138.519 47.5168 132.019 45.0168C125.519 42.5168 119.519 41.5168 119.519 41.5168M149.5 66.0724C149.5 66.0724 145.217 66.0539 141 66.0168C136.448 65.9768 133.507 68.1399 130 70.5724C129 71.266 126.5 72.8232 126.5 72.8232M119.519 41.5168C110.5 45.0168 99.5 30.0724 99 28.5724M119.519 41.5168C119.519 41.5168 126.5 36.0724 124 24.5724C122.832 19.1989 119.917 16.1179 117.143 14.3602C114.343 12.5862 111.449 15.3844 110.862 18.6466C110.611 20.0455 110.188 21.5589 109.5 23.0724C107 28.5724 99 28.5724 99 28.5724M35.0192 71.5168C34.4245 76.245 34.7855 79.1888 35.483 84.878M35.0192 71.5168C35.1247 70.6781 35.2824 69.6041 35.4484 68.473C35.6446 67.136 35.8526 65.7192 36 64.5168C36.4002 61.2523 37.2263 56.9886 38.1321 53.0168M35.0192 71.5168C35.0192 71.5168 31.4446 72.2926 27.5 72.9799C25.7906 73.2777 22.3474 73.5 19 73.5C16.5128 73.5 10.8312 72.6261 10 72.2618C8.89558 71.7779 7.88284 71.1955 7 70.5168C5.92535 69.6906 5.10734 69.0509 4.5 68.4165M38.1321 53.0168C38.1321 53.0168 31.5 57.5168 27 58.5168C22.5 59.5169 18 61.0168 14 62.5168C10 64.0168 8.79577 65.3315 4.5 68.4165M54.5 29.0724L62 26.0724M62 26.0724C62 26.0724 54.5 25.4136 54.5 19.4136C54.5 13.4135 70 11.4135 71.5 14.4135C73 17.4135 69 8.91353 73 4.41353C77 -0.0864769 83.4838 7.13515 86.5 12.4135C88.5 15.9135 86.5 22.0724 86.5 22.0724C86.5 22.0724 94 23.5724 96.5 26.0724C99 28.5723 98.5 27.0723 99 28.5724M62 26.0724C62 26.0724 68 25.0723 67.5 26.0724C67 27.0724 59.5 32.2312 64 38.0723C68.5 43.9135 77 33.4135 73 30.4135" stroke="black" stroke-width="5"/>
<path d="M104.983 39.0909C104.983 39.0909 99.9829 38.6632 96.483 39.6632C92.9831 40.6632 88.9831 43.5909 86.4831 48.5909C83.9831 53.5909 84.9829 57.6632 86.983 63.1632C88.983 68.6632 96.483 70.5 96.483 70.5C96.483 70.5 104 77.0909 106.5 79.0909C109 81.0909 110.483 83.0909 114.483 82.5909C118.483 82.0909 124.483 79.0909 124.483 79.0909C124.483 79.0909 124.636 74.1632 124.483 72.0909C124.33 70.0185 122.456 60.0371 120.983 55.1632C117.983 45.2356 117.983 44.5909 117.983 44.5909C117.983 44.5909 114.483 44.5909 110.983 43.0909C107.483 41.5909 104.983 39.0909 104.983 39.0909Z" fill="url(#paint5_linear_295_3)"/>
<path d="M104 59.0168C104 63.1589 101.538 66.5168 98.5 66.5168C95.4624 66.5168 93 63.1589 93 59.0168C93 54.8747 97 55 98.5 55C100 55 104 54.8747 104 59.0168Z" fill="#0B0000"/>
<path d="M104 59.0168C104 63.1589 101.538 66.5168 98.5 66.5168C95.4624 66.5168 93 63.1589 93 59.0168C93 54.8747 97 55 98.5 55C100 55 104 54.8747 104 59.0168Z" fill="#0B0000"/>
<path d="M104 59.0168C104 63.1589 101.538 66.5168 98.5 66.5168C95.4624 66.5168 93 63.1589 93 59.0168C93 54.8747 97 55 98.5 55C100 55 104 54.8747 104 59.0168Z" fill="#0B0000"/>
<path d="M61 59.0168C61 63.159 58.5376 66.5168 55.5 66.5168C52.4624 66.5168 50 63.159 50 59.0168C50 54.8747 52 54.9999 55.5 56.4999C59 58 61 56.4999 61 59.0168Z" fill="#0B0000"/>
<path d="M61 59.0168C61 63.159 58.5376 66.5168 55.5 66.5168C52.4624 66.5168 50 63.159 50 59.0168C50 54.8747 52 54.9999 55.5 56.4999C59 58 61 56.4999 61 59.0168Z" fill="#0B0000"/>
<path d="M61 59.0168C61 63.159 58.5376 66.5168 55.5 66.5168C52.4624 66.5168 50 63.159 50 59.0168C50 54.8747 52 54.9999 55.5 56.4999C59 58 61 56.4999 61 59.0168Z" fill="#0B0000"/>
<ellipse cx="80.5172" cy="86.5362" rx="4.48276" ry="6.46381" fill="black"/>
<ellipse cx="63.4828" cy="86.5362" rx="4.48276" ry="6.46381" fill="black"/>
<path d="M139.5 67.0724C139.5 67.0724 138.5 69.5724 138 71.0724C137.5 72.5724 137 76.0724 141 76.0724C145 76.0724 144 72.5724 143.5 71.0724C143 69.5724 142 67.0724 142 67.0724C142 67.0724 145.5 67.0724 147 68.0724C148.5 69.0724 150.5 71.5724 150.5 76.0724C150.5 80.5724 147 83.0724 145.5 84.0724C144 85.0724 141 85.0724 141 85.0724C141 85.0724 138 85.0724 136 84.0724C134 83.0724 131 80.0724 131 76.0724C131 72.0724 133 69.0724 134.5 68.0724C136 67.0724 139.5 67.0724 139.5 67.0724Z" fill="#FED722" stroke="#0B0000" stroke-width="3"/>
<path d="M104.947 54.1423C104.947 54.1423 101.777 56.6318 98.1752 56.4633C94.5736 56.2949 92 54.9251 92 54.9251" stroke="black" stroke-width="4" stroke-linecap="round"/>
<defs>
<linearGradient id="paint0_linear_295_3" x1="171" y1="108" x2="163" y2="131" gradientUnits="userSpaceOnUse">
<stop stop-color="#F8AE21"/>
<stop offset="1" stop-color="#E52D14"/>
</linearGradient>
<linearGradient id="paint1_linear_295_3" x1="115" y1="110" x2="129" y2="105.5" gradientUnits="userSpaceOnUse">
<stop stop-color="#F8AE21"/>
<stop offset="1" stop-color="#E52D14"/>
</linearGradient>
<linearGradient id="paint2_linear_295_3" x1="72" y1="87" x2="89.5" y2="107.5" gradientUnits="userSpaceOnUse">
<stop stop-color="#F8AE21"/>
<stop offset="1" stop-color="#E52D14"/>
</linearGradient>
<linearGradient id="paint3_linear_295_3" x1="9" y1="67" x2="36.2097" y2="63.7628" gradientUnits="userSpaceOnUse">
<stop stop-color="#F8AE21"/>
<stop offset="1" stop-color="#E52D14"/>
</linearGradient>
<linearGradient id="paint4_linear_295_3" x1="143.5" y1="63" x2="125" y2="55.5" gradientUnits="userSpaceOnUse">
<stop stop-color="#F8AE21"/>
<stop offset="1" stop-color="#E73A16"/>
</linearGradient>
<linearGradient id="paint5_linear_295_3" x1="90.4831" y1="67.0908" x2="121.983" y2="55.0908" gradientUnits="userSpaceOnUse">
<stop stop-color="#F8AE21"/>
<stop offset="1" stop-color="#E52D14"/>
</linearGradient>
</defs>
</svg>
