<svg width="230" height="123" viewBox="0 0 230 123" fill="none" xmlns="http://www.w3.org/2000/svg">
<path d="M211.475 28.737C211.475 28.737 213.697 27.1413 214.247 25.3948C214.797 23.6482 215.41 22.3065 214.562 19.5358C213.713 16.7651 212.654 15.2726 209.391 12.8829C206.129 10.4932 204.519 10.7472 201.978 10.3185C199.436 9.88975 197.488 10.6122 197.488 10.6122C197.488 10.6122 198.611 12.5096 199.333 14.4705C200.054 16.4315 200.372 18.4559 200.563 19.6706C200.755 20.8852 196.815 19.4324 196.815 19.4324C196.815 19.4324 197.58 24.291 200.779 26.2758C203.977 28.2606 208.192 28.8402 208.192 28.8402L211.475 28.737Z" fill="url(#paint0_linear_295_67)"/>
<path d="M211.475 28.737C211.475 28.737 213.697 27.1413 214.247 25.3948C214.797 23.6482 215.41 22.3065 214.562 19.5358C213.713 16.7651 212.654 15.2726 209.391 12.8829C206.129 10.4932 204.519 10.7472 201.978 10.3185C199.436 9.88975 197.488 10.6122 197.488 10.6122C197.488 10.6122 198.611 12.5096 199.333 14.4705C200.054 16.4315 200.372 18.4559 200.563 19.6706C200.755 20.8852 196.815 19.4324 196.815 19.4324C196.815 19.4324 197.58 24.291 200.779 26.2758C203.977 28.2606 208.192 28.8402 208.192 28.8402L211.475 28.737ZM211.475 28.737C211.475 28.737 210.69 26.3712 209.164 24.5373C207.638 22.7034 205.097 22.2746 205.097 22.2746" stroke="black" stroke-width="3"/>
<path d="M207.235 44.4529C207.235 44.4529 211.606 41.2093 212.24 39.5928C212.537 38.8338 212.996 36.5823 212.534 34.1026C212.072 31.6229 210.636 28.6737 210.636 28.6737L213.463 26.9959C213.463 26.9959 215.557 28.7648 217.18 32.5264C218.803 36.288 219.452 37.7926 219.467 40.9138C219.482 44.0351 217.093 47.7563 215.761 48.7833C214.429 49.8103 211.066 51.2746 211.066 51.2746L209.443 47.513L207.235 44.4529Z" fill="#FEF3E4" stroke="black" stroke-width="3"/>
<path d="M145.492 103.251C151.509 99.7334 150.822 88.9901 150.822 88.9901C150.822 88.9901 148.686 81.7721 144.84 80.0458C139.746 77.7589 134.577 80.9316 132.47 83.4919C130.364 86.0522 128.785 92.9923 131.559 98.9944C134.334 104.997 139.475 106.769 145.492 103.251Z" fill="#FED722"/>
<path d="M224.728 91.9944C227.228 88.0658 227.978 84.4944 227.228 81.4944C226.478 78.4944 222.329 73.9944 222.329 73.9944C222.329 73.9944 216.728 77.5078 211.728 84.4944C206.728 91.481 206.956 98.0005 206.956 98.0005C206.956 98.0005 212.228 99.5686 215.228 98.9944C218.228 98.4202 222.228 95.923 224.728 91.9944Z" fill="#523F45"/>
<path d="M167.728 113.916C170.368 113.916 176.728 113.032 177.914 110.351C179.1 107.67 178.827 104.916 178.827 104.916C178.827 104.916 173.046 103.251 167.728 103.251C162.409 103.251 157.228 104.916 157.228 104.916C157.228 104.916 157.815 110.488 159.217 111.62C160.62 112.752 165.088 113.916 167.728 113.916Z" fill="#523F45"/>
<path d="M125.728 20.9158C121.228 20.9157 103.728 35.9157 103.728 35.9157L132.47 83.4919C134.577 80.9316 139.746 77.7589 144.84 80.0458C148.686 81.7721 150.822 88.9901 150.822 88.9901C150.822 88.9901 155.797 92.5575 156.228 93.9158C156.658 95.274 157.228 104.916 157.228 104.916C157.228 104.916 162.409 103.251 167.728 103.251C173.046 103.251 178.827 104.916 178.827 104.916C178.827 104.916 180.434 102.051 180.076 95.4158C179.911 92.3614 178.827 87.7217 178.827 87.7217C178.827 87.7217 182.772 88.5051 185.366 87.5864C187.96 86.6677 191.728 84.9157 191.728 84.9157C191.728 84.9157 194.514 88.9158 197.228 91.9158C199.941 94.9158 206.956 98.0005 206.956 98.0005C206.956 98.0005 206.728 91.481 211.728 84.4944C216.728 77.5078 222.329 73.9944 222.329 73.9944C222.329 73.9944 216.605 69.9158 215.228 68.4158C213.851 66.9157 210.663 61.4157 210.663 61.4157C210.663 61.4157 211.956 56.9159 211.956 52.9159C211.956 48.9159 204.228 35.9157 197.228 29.9158C190.227 23.916 180.076 18.1404 166.728 15.9158C153.38 13.6911 130.228 20.9159 125.728 20.9158Z" fill="#FEF3E4"/>
<path d="M191.728 84.9157C191.728 84.9157 194.514 88.9158 197.228 91.9158C199.941 94.9158 206.956 98.0005 206.956 98.0005M191.728 84.9157C191.728 84.9157 194.228 82.587 194.228 78.087M191.728 84.9157C191.728 84.9157 187.96 86.6677 185.366 87.5864C182.772 88.5051 178.827 87.7217 178.827 87.7217M150.822 88.9901C150.822 88.9901 151.509 99.7334 145.492 103.251C139.475 106.769 134.334 104.997 131.559 98.9944C128.785 92.9923 130.364 86.0523 132.47 83.4919M150.822 88.9901C150.822 88.9901 148.686 81.7721 144.84 80.0458C139.746 77.7589 134.577 80.9316 132.47 83.4919M150.822 88.9901C150.822 88.9901 155.797 92.5575 156.228 93.9158C156.658 95.274 157.228 104.916 157.228 104.916M132.47 83.4919L103.728 35.9157C103.728 35.9157 121.228 20.9157 125.728 20.9158C130.228 20.9159 153.38 13.6911 166.728 15.9158C180.076 18.1404 190.227 23.916 197.228 29.9158C204.228 35.9157 211.956 48.9159 211.956 52.9159C211.956 56.9159 210.663 61.4157 210.663 61.4157C210.663 61.4157 213.851 66.9157 215.228 68.4158C216.605 69.9158 222.329 73.9944 222.329 73.9944M175.228 82.4158C178.032 84.2852 178.929 88.1764 178.827 87.7217M222.329 73.9944C222.329 73.9944 226.478 78.4944 227.228 81.4944C227.978 84.4944 227.228 88.0658 224.728 91.9944C222.228 95.923 218.228 98.4203 215.228 98.9944C212.228 99.5686 206.956 98.0005 206.956 98.0005M222.329 73.9944C222.329 73.9944 216.728 77.5078 211.728 84.4944C206.728 91.481 206.956 98.0005 206.956 98.0005M178.827 104.916C178.827 104.916 179.1 107.67 177.914 110.351C176.728 113.032 170.368 113.916 167.728 113.916C165.088 113.916 160.62 112.752 159.217 111.62C157.815 110.488 157.228 104.916 157.228 104.916M178.827 104.916C178.827 104.916 173.046 103.251 167.728 103.251C162.409 103.251 157.228 104.916 157.228 104.916M178.827 104.916C178.827 104.916 180.434 102.051 180.076 95.4158C179.911 92.3614 178.827 87.7217 178.827 87.7217" stroke="black" stroke-width="5" stroke-linecap="round"/>
<path d="M155.16 43.4671C155.16 43.4671 159.27 52.7797 169.177 55.5217C179.084 58.2636 183.674 57.0938 187.692 54.1387C191.709 51.1836 194.876 46.2272 191.393 42.1806C187.91 38.1341 173.702 32.5081 173.702 32.5081C173.702 32.5081 165.005 28.8463 156.082 31.6528C147.16 34.4593 155.16 43.4671 155.16 43.4671Z" fill="url(#paint1_linear_295_67)"/>
<path d="M53.5634 111.877C58.2823 113.934 58.828 114.384 68.9736 115.416C79.1193 116.448 85.9624 114.282 88.8815 113.498C88.8815 113.498 94.6621 110.932 97.4565 108.654C100.251 106.375 108.988 97.9992 106.728 90.1799C104.468 82.3606 101.29 80.6574 94.9821 77.7488C88.6741 74.8402 81.5626 74.0182 74.5948 74.6894C67.6271 75.3605 60.2575 77.0749 55.5202 80.0428C50.7829 83.0107 44.8402 89.1085 45.0137 96.1242C45.1871 103.14 53.5634 111.877 53.5634 111.877Z" fill="url(#paint2_linear_295_67)"/>
<path d="M42.0346 49.4706C42.0346 49.4706 32.2054 51.9243 24.5299 55.6775C16.8543 59.4307 10.0121 66.6198 8.21306 68.8024C6.41403 70.9849 5.56245 72.5739 5.85008 75.5601C6.05561 77.6939 6.57292 78.7687 7.76499 79.7957C11.7452 76.313 12.8178 74.8889 16.6556 73.0124C20.4933 71.1358 24.8288 69.2112 29.2122 67.7844C33.5956 66.3575 39.7657 61.2424 39.7657 61.2424C40.5211 55.3818 41.5022 50.1166 42.0346 49.4706Z" fill="#FEF3E4"/>
<path d="M10.4548 81.6466C11.3987 82.2376 12.4626 82.7201 13.6083 83.096C14.4706 83.3788 20.2098 83.704 22.6856 83.4655C26.0175 83.1446 29.4235 82.5932 31.0966 82.1329C34.9571 81.0706 38.4409 79.9556 38.4409 79.9556C38.4655 79.1106 38.5194 78.0265 38.5762 76.8847C38.6434 75.535 38.7146 74.1048 38.746 72.8938C38.8314 69.6059 39.2449 65.2827 39.7657 61.2424C39.7657 61.2424 33.5956 66.3575 29.2122 67.7844C24.8288 69.2112 20.4933 71.1358 16.6556 73.0124C12.8178 74.8889 11.7452 76.313 7.76499 79.7957C8.43036 80.3689 9.30594 80.9273 10.4548 81.6466Z" fill="url(#paint3_linear_295_67)"/>
<path d="M124.338 54.1009C124.338 54.1009 148.646 61.3594 151.872 63.5602C155.098 65.7611 154.899 68.236 156.826 68.0505C159.295 67.8126 160.654 65.6725 159.705 61.243C158.757 56.8135 156.517 54.0154 149.644 50.6588C142.772 47.3023 139.163 46.1429 132.453 44.2777C125.744 42.4124 119.675 41.9922 119.675 41.9922L124.338 54.1009Z" fill="#FEF3E4"/>
<path d="M124.338 54.1009C124.338 54.1009 126.455 60.4272 127.997 65.8041C128.675 68.1698 129.224 70.3535 129.625 72.4851C129.625 72.4851 131.965 70.6954 132.894 69.9091C136.151 67.1516 138.871 64.7165 143.406 64.3199C147.608 63.9524 151.872 63.5602 151.872 63.5602C148.646 61.3594 124.338 54.1009 124.338 54.1009Z" fill="url(#paint4_linear_295_67)"/>
<path d="M40.2138 93.3474C41.957 101.217 48.8444 109.82 53.5634 111.877C53.5634 111.877 45.1871 103.14 45.0137 96.1242C44.8402 89.1085 50.7829 83.0107 55.5202 80.0428C60.2575 77.0749 67.6271 75.3605 74.5948 74.6894C81.5626 74.0182 88.6741 74.8402 94.9821 77.7488C101.29 80.6574 104.468 82.3606 106.728 90.1799C108.988 97.9992 100.251 106.375 97.4565 108.654C94.6621 110.932 88.8815 113.498 88.8815 113.498C89.2978 113.387 89.885 113.238 90.6025 113.056C94.9162 111.965 106.348 108.721 111.263 106.094C112.385 105.495 116.359 102.839 117.228 102.416C117.228 102.416 122.05 98.9011 124.338 96.1242C126.627 93.3474 130.489 86.1946 130.425 82.056C130.418 81.6044 130.411 81.1352 130.411 80.641C130.411 77.8279 130.137 75.1986 129.625 72.4851C129.224 70.3535 128.675 68.1698 127.997 65.8041C126.455 60.4272 124.338 54.1009 124.338 54.1009L119.675 41.9922C111.033 46.3408 98.651 32.5199 98.0095 31.0747C97.368 29.6296 98.0095 31.0747 95.2814 28.826C92.5532 26.5772 84.9439 25.8032 84.9439 25.8032C84.9439 25.8032 86.3442 19.4809 84.0179 16.1888C80.5095 11.2239 73.3632 4.65723 69.813 9.52C66.2629 14.3828 71.0594 22.4601 69.2787 19.6177C67.498 16.7754 52.2612 20.2523 52.8364 26.2246C53.4117 32.197 60.9403 32.1337 60.9403 32.1337L53.7625 35.839L42.0346 49.4706C41.5022 50.1166 40.5211 55.3818 39.7657 61.2424C39.2449 65.2827 38.8314 69.6059 38.746 72.8938C38.7146 74.1048 38.6434 75.535 38.5762 76.8847C38.5194 78.0265 38.4655 79.1106 38.4409 79.9556C38.3022 84.719 38.9437 87.6147 40.1835 93.2108L40.2138 93.3474Z" fill="#FEF3E4"/>
<path d="M98.0095 31.0747C98.651 32.5199 111.033 46.3408 119.675 41.9922C119.675 41.9922 126.102 35.9036 122.511 24.6963C120.833 19.4596 117.636 16.6723 114.706 15.1886C111.749 13.6912 109.137 16.7539 108.866 20.0574C108.749 21.4739 108.473 23.021 107.934 24.5934C105.973 30.3078 98.0095 31.0747 98.0095 31.0747Z" fill="#FED722"/>
<path d="M42.0346 49.4706L53.7625 35.839C53.7625 35.839 48.5458 33.8299 46.1236 29.5423C45.5905 28.5987 45.1779 27.6435 44.8587 26.7275C43.8176 23.7405 40.7846 21.3623 38.2106 23.2011C35.6302 25.0445 33.1749 28.1556 33.4232 33.2772C33.9322 43.7768 42.0346 49.4706 42.0346 49.4706Z" fill="#FED722"/>
<path d="M42.0346 49.4706C42.0346 49.4706 32.2054 51.9243 24.5299 55.6775C16.8543 59.4307 10.0121 66.6198 8.21306 68.8024C6.41403 70.9849 5.56245 72.5739 5.85008 75.5601C6.05561 77.6939 6.57292 78.7687 7.76499 79.7957M42.0346 49.4706C41.5022 50.1166 40.5211 55.3818 39.7657 61.2424M42.0346 49.4706L53.7625 35.839M42.0346 49.4706C42.0346 49.4706 33.9322 43.7768 33.4232 33.2772C33.1749 28.1556 35.6302 25.0445 38.2106 23.2011C40.7845 21.3623 43.8176 23.7405 44.8587 26.7275C45.1779 27.6435 45.5905 28.5987 46.1236 29.5423C48.5458 33.8299 53.7625 35.839 53.7625 35.839M40.2138 93.3474C41.957 101.217 48.8444 109.82 53.5634 111.877M40.2138 93.3474L40.1835 93.2108M40.2138 93.3474C40.2036 93.3017 40.1936 93.2562 40.1835 93.2108M53.5634 111.877C58.2823 113.934 58.828 114.384 68.9736 115.416C79.1193 116.448 85.9624 114.282 88.8815 113.498M53.5634 111.877C53.5634 111.877 45.1871 103.14 45.0137 96.1242C44.8402 89.1085 50.7829 83.0107 55.5202 80.0428C60.2575 77.0749 67.6271 75.3605 74.5948 74.6894C81.5626 74.0182 88.6741 74.8402 94.9821 77.7488C101.29 80.6574 104.468 82.3606 106.728 90.1799C108.988 97.9992 100.251 106.375 97.4565 108.654C94.6621 110.932 88.8815 113.498 88.8815 113.498M88.8815 113.498C89.2978 113.387 89.885 113.238 90.6025 113.056C94.9162 111.965 106.348 108.721 111.263 106.094C112.385 105.495 116.359 102.839 117.228 102.416C117.228 102.416 122.05 98.9011 124.338 96.1242C126.627 93.3474 130.489 86.1946 130.425 82.056C130.418 81.6044 130.411 81.1352 130.411 80.641C130.411 77.8279 130.137 75.1986 129.625 72.4851M124.338 54.1009C124.338 54.1009 126.455 60.4272 127.997 65.8041C128.675 68.1698 129.224 70.3534 129.625 72.4851M124.338 54.1009C124.338 54.1009 148.646 61.3594 151.872 63.5602M124.338 54.1009L119.675 41.9922M151.872 63.5602C155.098 65.7611 154.899 68.236 156.826 68.0505C159.295 67.8126 160.654 65.6725 159.705 61.243C158.757 56.8135 156.517 54.0154 149.644 50.6588C142.772 47.3023 139.163 46.1429 132.453 44.2777C125.744 42.4124 119.675 41.9922 119.675 41.9922M151.872 63.5602C151.872 63.5602 147.608 63.9524 143.406 64.3199C138.871 64.7165 136.151 67.1516 132.894 69.9091C131.965 70.6954 129.625 72.4851 129.625 72.4851M119.675 41.9922C111.033 46.3408 98.651 32.5199 98.0095 31.0747M119.675 41.9922C119.675 41.9922 126.102 35.9036 122.511 24.6963C120.833 19.4596 117.636 16.6723 114.706 15.1886C111.749 13.6912 109.137 16.7539 108.866 20.0574C108.749 21.4739 108.473 23.021 107.934 24.5934C105.973 30.3078 98.0095 31.0747 98.0095 31.0747M38.4409 79.9556C38.3022 84.719 38.9437 87.6147 40.1835 93.2108M38.4409 79.9556C38.4655 79.1106 38.5194 78.0265 38.5762 76.8847C38.6434 75.535 38.7146 74.1048 38.746 72.8938C38.8314 69.6059 39.2449 65.2827 39.7657 61.2424M38.4409 79.9556C38.4409 79.9556 34.9571 81.0706 31.0966 82.1329C29.4235 82.5932 26.0175 83.1446 22.6856 83.4655C20.2098 83.704 14.4706 83.3788 13.6083 83.096C12.4626 82.7201 11.3987 82.2376 10.4548 81.6466C9.30594 80.9273 8.43036 80.3689 7.76499 79.7957M39.7657 61.2424C39.7657 61.2424 33.5956 66.3575 29.2122 67.7844C24.8288 69.2112 20.4933 71.1358 16.6556 73.0124C12.8178 74.8889 11.7452 76.313 7.76499 79.7957M53.7625 35.839L60.9403 32.1337M60.9403 32.1337C60.9403 32.1337 53.4117 32.197 52.8364 26.2246C52.2612 20.2523 67.498 16.7754 69.2787 19.6177C71.0594 22.4601 66.2629 14.3828 69.813 9.52C73.3632 4.65723 80.5095 11.2239 84.0179 16.1888C86.3442 19.4809 84.9439 25.8032 84.9439 25.8032C84.9439 25.8032 92.5532 26.5772 95.2814 28.826C98.0095 31.0747 97.368 29.6296 98.0095 31.0747M60.9403 32.1337C60.9403 32.1337 66.8168 30.563 66.415 31.6064C66.0131 32.6497 59.0423 38.5038 64.0816 43.8866C69.1209 49.2695 76.575 38.0029 72.3058 35.4002" stroke="black" stroke-width="5"/>
<path d="M71.1212 94.5722C66.4771 95.1336 60.85 97.3615 60.85 97.3615C60.85 97.3615 60.3159 107.118 68.0849 105.966C75.854 104.814 70.3282 97.208 71.1212 94.5722Z" fill="#FF0000"/>
<path d="M82.9307 97.4047C82.9307 97.4047 77.2847 94.0403 71.1212 94.5722M71.1212 94.5722C66.4771 95.1336 60.85 97.3615 60.85 97.3615C60.85 97.3615 60.3159 107.118 68.0849 105.966C75.854 104.814 70.3282 97.208 71.1212 94.5722Z" stroke="black" stroke-width="3.5" stroke-linecap="round"/>
<path d="M66.2712 100.671C66.3542 100.933 66.6337 101.069 66.8955 100.976C67.1573 100.884 67.3022 100.596 67.2191 100.334L66.2712 100.671ZM64.8999 96.3515L66.2712 100.671L67.2191 100.334L65.8479 96.0149L64.8999 96.3515Z" fill="black"/>
<path d="M104.973 40.9712C104.973 40.9712 99.9553 41.0249 96.5674 42.3559C93.1795 43.6868 89.4786 46.9845 87.4695 52.2011C85.4604 57.4178 86.8461 61.3755 89.3643 66.6584C91.8824 71.9413 97.2428 75.4435 97.2428 75.4435C97.2428 75.4435 106.327 81.0986 109.007 82.8497C111.687 84.6008 114.667 84.2412 118.6 83.36C122.534 82.4788 128.219 78.9173 128.219 78.9173C128.219 78.9173 127.898 73.9977 127.548 71.9496C127.197 69.9014 124.374 60.1457 122.441 55.4355C118.503 45.8412 118.441 45.1995 118.441 45.1995C118.441 45.1995 114.957 45.535 111.329 44.3775C107.702 43.22 104.973 40.9712 104.973 40.9712Z" fill="url(#paint5_linear_295_67)"/>
<path d="M142.014 65.5145C142.014 65.5145 141.259 68.0989 140.905 69.6399C140.551 71.1809 140.389 74.7127 144.37 74.3292C148.352 73.9457 147.021 70.5577 146.379 69.1126C145.738 67.6674 144.503 65.2748 144.503 65.2748C144.503 65.2748 147.987 64.9393 149.576 65.7908C151.165 66.6424 153.395 68.9391 153.827 73.4184C154.258 77.8977 151.014 80.7218 149.617 81.861C148.219 83.0002 145.233 83.2878 145.233 83.2878C145.233 83.2878 142.247 83.5754 140.16 82.7718C138.074 81.9682 134.8 79.2696 134.416 75.288C134.033 71.3064 135.736 68.1285 137.133 66.9893C138.53 65.8501 142.014 65.5145 142.014 65.5145Z" fill="#FED722" stroke="#0B0000" stroke-width="3"/>
<path d="M54.4677 58.8048L63.4082 64.976" stroke="black" stroke-width="6" stroke-linecap="round"/>
<path d="M62.7369 58.0083L55.1387 65.7726" stroke="black" stroke-width="6" stroke-linecap="round"/>
<path d="M99.9496 54.424L108.89 60.5952" stroke="black" stroke-width="6" stroke-linecap="round"/>
<path d="M108.219 53.6274L100.621 61.3917" stroke="black" stroke-width="6" stroke-linecap="round"/>
<defs>
<linearGradient id="paint0_linear_295_67" x1="204.164" y1="9.45465" x2="207.312" y2="29.3941" gradientUnits="userSpaceOnUse">
<stop stop-color="#F8AE21"/>
<stop offset="1" stop-color="#E52D14"/>
</linearGradient>
<linearGradient id="paint1_linear_295_67" x1="174.757" y1="32.6698" x2="168.485" y2="55.3302" gradientUnits="userSpaceOnUse">
<stop stop-color="#F8AE21"/>
<stop offset="1" stop-color="#E52D14"/>
</linearGradient>
<linearGradient id="paint2_linear_295_67" x1="74.5" y1="90" x2="98.5" y2="110" gradientUnits="userSpaceOnUse">
<stop stop-color="#F8AE21"/>
<stop offset="1" stop-color="#E52D14"/>
</linearGradient>
<linearGradient id="paint3_linear_295_67" x1="13.5" y1="80" x2="39.1266" y2="69.5344" gradientUnits="userSpaceOnUse">
<stop stop-color="#F8AE21"/>
<stop offset="1" stop-color="#E52D14"/>
</linearGradient>
<linearGradient id="paint4_linear_295_67" x1="149.5" y1="63" x2="126" y2="56.5" gradientUnits="userSpaceOnUse">
<stop stop-color="#F8AE21"/>
<stop offset="1" stop-color="#E52D14"/>
</linearGradient>
<linearGradient id="paint5_linear_295_67" x1="93.2248" y1="70.2323" x2="123.429" y2="55.2675" gradientUnits="userSpaceOnUse">
<stop stop-color="#F8AE21"/>
<stop offset="1" stop-color="#E52D14"/>
</linearGradient>
</defs>
</svg>
