<svg width="177" height="170" viewBox="0 0 177 170" fill="none" xmlns="http://www.w3.org/2000/svg">
<path d="M157.067 142.219C157.067 142.219 160.345 142.927 162.377 141.994C164.409 141.06 166.128 140.517 167.929 137.475C169.731 134.432 170.203 132.247 169.665 127.326C169.127 122.406 167.567 121.154 165.854 118.496C164.141 115.838 161.878 114.663 161.878 114.663C161.878 114.663 161.093 117.238 159.918 119.501C158.742 121.763 157.177 123.713 156.238 124.882C155.299 126.052 153.355 121.285 153.355 121.285C153.355 121.285 149.599 125.964 150.45 130.494C151.301 135.025 154.261 139.325 154.261 139.325L157.067 142.219Z" fill="url(#paint0_linear_207_508)"/>
<path d="M157.067 142.219C157.067 142.219 160.345 142.927 162.377 141.994C164.409 141.06 166.128 140.517 167.929 137.475C169.731 134.432 170.203 132.247 169.665 127.326C169.127 122.406 167.567 121.154 165.854 118.496C164.141 115.838 161.878 114.663 161.878 114.663C161.878 114.663 161.093 117.238 159.918 119.501C158.742 121.763 157.177 123.713 156.238 124.882C155.299 126.052 153.355 121.285 153.355 121.285C153.355 121.285 149.599 125.964 150.45 130.494C151.301 135.025 154.261 139.325 154.261 139.325L157.067 142.219ZM157.067 142.219C157.067 142.219 158.555 139.567 158.951 136.678C159.346 133.79 157.633 131.132 157.633 131.132" stroke="black" stroke-width="3"/>
<path d="M135.507 146.711C135.507 146.711 141.515 149.61 143.624 149.38C144.614 149.271 147.307 148.49 149.719 146.579C152.131 144.668 154.491 141.434 154.491 141.434L157.924 143.548C157.924 143.548 157.215 146.826 154.085 150.725C150.955 154.624 149.703 156.184 146.342 157.974C142.981 159.764 137.594 159.286 135.721 158.424C133.848 157.562 130.339 154.745 130.339 154.745L133.47 150.846L135.507 146.711Z" fill="#FEF3E4" stroke="black" stroke-width="3"/>
<path d="M16.0815 153C15.0815 161.5 23.5814 166 25.5815 166.5C27.5815 167 31.0815 167.5 31.0815 167.5C31.0815 167.5 31.5814 159.5 31.0815 154C30.5815 148.5 27.5815 143 27.5815 143C27.5815 143 17.0815 144.5 16.0815 153Z" fill="#523F45"/>
<path d="M129.081 150.5C128.581 148 126.581 146 123.581 146C119.231 146 114.778 148.839 112.581 152.5C111.081 155 110.581 158.5 111.081 161.5C111.581 164.5 114.581 167.5 114.581 167.5H122.581C122.581 167.5 128.581 161.5 129.081 159.5C129.581 157.5 129.581 153 129.081 150.5Z" fill="#523F45"/>
<path d="M85.5815 122H69.5815C69.5815 122 66.5815 123 65.5815 127C64.5815 131 66.5815 136 66.5815 136C69.7612 139.498 71.3313 141.5 76.5815 141.5C82.6213 141.5 85.6242 138.086 89.0815 134C89.0815 134 90.0815 130 89.0815 127C88.0815 124 85.5815 122 85.5815 122Z" fill="#FED722"/>
<path d="M130.081 167.5C130.081 167.5 137.081 161 137.581 158C138.081 155 138.081 150 137.081 148C136.081 146 133.581 144.5 132.581 142C131.581 139.5 128.081 125 127.081 122C126.081 119 120.081 108 120.081 108C120.081 108 116.581 111 110.581 114.5C104.581 118 95.0815 120 95.0815 120L85.5815 122C85.5815 122 88.0815 124 89.0815 127C90.0815 130 89.0815 134 89.0815 134L86.0815 145L78.0815 154.5C78.0815 154.5 81.5815 156 86.0815 156.5C90.5815 157 96.5815 157.5 96.5815 157.5C96.5815 157.5 95.0815 161.5 94.0815 163.5C93.0815 165.5 91.0815 167.5 91.0815 167.5H114.581C114.581 167.5 111.581 164.5 111.081 161.5C110.581 158.5 111.081 155 112.581 152.5C114.778 148.839 119.231 146 123.581 146C126.581 146 128.581 148 129.081 150.5C129.581 153 129.581 157.5 129.081 159.5C128.581 161.5 122.581 167.5 122.581 167.5H130.081Z" fill="#FEF3E4"/>
<path d="M48.5815 117.5C48.5815 117.5 46.5815 125 46.5814 130C46.5814 135 47.2911 141 47.2911 141L48.5815 148.5L50.7579 157.5C50.7579 157.5 55.0815 158 59.0815 157.5C63.0815 157 68.5815 154.5 68.5815 154.5L67.5815 145L66.5815 136C66.5815 136 64.5815 131 65.5815 127C66.5815 123 69.5815 122 69.5815 122C69.5815 122 62.0815 121 58.5815 120.5C55.0815 120 48.5815 117.5 48.5815 117.5Z" fill="#FEF3E4"/>
<path d="M53.5815 167.5L52.0815 162.5L50.7579 157.5L48.5815 148.5L47.2911 141L27.5815 143C27.5815 143 30.5815 148.5 31.0815 154C31.5814 159.5 31.0815 167.5 31.0815 167.5H53.5815Z" fill="#FEF3E4"/>
<path d="M76.5815 167.5C76.5815 166.3 77.2481 158.333 78.0815 154.5L86.0815 145L89.0815 134C85.6242 138.086 82.6213 141.5 76.5815 141.5C71.3313 141.5 69.7612 139.498 66.5815 136L67.5815 145L68.5815 154.5C68.5815 154.5 69.0815 158 69.5815 161C70.0815 164 70.5815 167.5 70.5815 167.5H76.5815Z" fill="#FEF3E4"/>
<path d="M78.0815 154.5C77.2481 158.333 76.5815 166.3 76.5815 167.5H91.0815C91.0815 167.5 93.0815 165.5 94.0815 163.5C95.0815 161.5 96.5815 157.5 96.5815 157.5C96.5815 157.5 90.5815 157 86.0815 156.5C81.5815 156 78.0815 154.5 78.0815 154.5Z" fill="#523F45"/>
<path d="M52.0815 162.5L53.5815 167.5H70.5815C70.5815 167.5 70.0815 164 69.5815 161C69.0815 158 68.5815 154.5 68.5815 154.5C68.5815 154.5 63.0815 157 59.0815 157.5C55.0815 158 50.7579 157.5 50.7579 157.5L52.0815 162.5Z" fill="#523F45"/>
<path d="M53.5815 167.5L52.0815 162.5L50.7579 157.5M53.5815 167.5H31.0815M53.5815 167.5H70.5815M27.5815 143C27.5815 143 17.0815 144.5 16.0815 153C15.0815 161.5 23.5814 166 25.5815 166.5C27.5815 167 31.0815 167.5 31.0815 167.5M27.5815 143L47.2911 141M27.5815 143C27.5815 143 30.5815 148.5 31.0815 154C31.5814 159.5 31.0815 167.5 31.0815 167.5M47.2911 141C47.2911 141 46.5814 135 46.5814 130C46.5815 125 48.5815 117.5 48.5815 117.5C48.5815 117.5 55.0815 120 58.5815 120.5C62.0815 121 69.5815 122 69.5815 122M47.2911 141L48.5815 148.5L50.7579 157.5M85.5815 122L95.0815 120C95.0815 120 104.581 118 110.581 114.5C116.581 111 120.081 108 120.081 108C120.081 108 126.081 119 127.081 122C128.081 125 131.581 139.5 132.581 142C133.581 144.5 136.081 146 137.081 148C138.081 150 138.081 155 137.581 158C137.081 161 130.081 167.5 130.081 167.5H122.581M85.5815 122H69.5815M85.5815 122C85.5815 122 88.0815 124 89.0815 127C90.0815 130 89.0815 134 89.0815 134M69.5815 122C69.5815 122 66.5815 123 65.5815 127C64.5815 131 66.5815 136 66.5815 136M66.5815 136L67.5815 145L68.5815 154.5M66.5815 136C69.7612 139.498 71.3313 141.5 76.5815 141.5C82.6213 141.5 85.6242 138.086 89.0815 134M89.0815 134L86.0815 145L78.0815 154.5M76.5815 167.5C76.5815 166.3 77.2481 158.333 78.0815 154.5M76.5815 167.5H91.0815M76.5815 167.5H70.5815M78.0815 154.5C78.0815 154.5 81.5815 156 86.0815 156.5C90.5815 157 96.5815 157.5 96.5815 157.5M96.5815 157.5C96.5815 157.5 95.0815 161.5 94.0815 163.5C93.0815 165.5 91.0815 167.5 91.0815 167.5M96.5815 157.5C96.5815 157.5 104.081 154.5 105.581 149.5C107.081 144.5 108.081 139 108.081 139M91.0815 167.5H114.581M122.581 167.5C122.581 167.5 128.581 161.5 129.081 159.5C129.581 157.5 129.581 153 129.081 150.5C128.581 148 126.581 146 123.581 146C119.231 146 114.778 148.839 112.581 152.5C111.081 155 110.581 158.5 111.081 161.5C111.581 164.5 114.581 167.5 114.581 167.5M122.581 167.5H114.581M50.7579 157.5C50.7579 157.5 55.0815 158 59.0815 157.5C63.0815 157 68.5815 154.5 68.5815 154.5M68.5815 154.5C68.5815 154.5 69.0815 158 69.5815 161C70.0815 164 70.5815 167.5 70.5815 167.5" stroke="#040000" stroke-width="5"/>
<path d="M120.5 114C120.5 114 115.392 116.999 115.258 121.997C115.123 126.995 116.569 129.035 119.028 130.602C121.486 132.168 127 131 127 131L126 127L124.5 121.997L120.5 114Z" fill="url(#paint1_linear_207_508)"/>
<path d="M49.5 114C54 116.5 54.5 117 64.5 119C74.5 121 81.5192 119.5 84.5 119C84.5 119 90.5 117 93.5 115C96.5 113 106 105.5 104.5 97.5C103 89.5 100 87.5 94 84C88 80.5 81 79 74 79C67 79 59.5 80 54.5 82.5C49.5 85 43 90.5 42.5 97.5C42 104.5 49.5 114 49.5 114Z" fill="url(#paint2_linear_207_508)"/>
<path d="M41.5192 51.5C41.5192 51.5 31.5 53 23.5 56C15.5 59 8 65.5 6 67.5C4 69.5 3 71 3 74C3 76.1437 3.41189 77.2631 4.5 78.3997C8.79577 75.3147 10 74 14 72.5C18 71 22.5 69.5 27 68.5C31.5 67.5 38.1321 63 38.1321 63C39.4459 57.2388 40.9273 52.0919 41.5192 51.5Z" fill="#FEF3E4"/>
<path d="M7 80.5C10 82.8064 14.5 84 19 84C23.5 84 35.0192 81.5 35.0192 81.5C35.1247 80.6612 35.2824 79.5872 35.4484 78.4562C35.6446 77.1192 35.8526 75.7024 36 74.5C36.4002 71.2354 37.2263 66.9717 38.1321 63C38.1321 63 31.5 67.5 27 68.5C22.5 69.5 18 71 14 72.5C10 74 8.79577 75.3147 4.5 78.3997C5.10734 79.0341 5.92535 79.6738 7 80.5Z" fill="url(#paint3_linear_207_508)"/>
<path fill-rule="evenodd" clip-rule="evenodd" d="M38.1321 63C39.4459 57.2388 40.9273 52.0919 41.5192 51.5C42.5192 50.5 119.519 51.5 119.519 51.5L123 64C123 64 124.5 70.5 125.519 76C125.968 78.4197 126.304 80.646 126.5 82.8064C126.749 85.5564 126.769 88.1998 126.5 91C126.453 91.4919 126.415 91.9596 126.379 92.4098C126.045 96.5354 125.831 99.1887 119.519 105.5C113.889 111.13 111.805 111.908 108.082 113.298C107.177 113.636 106.174 114.011 105 114.5C99.8556 116.643 90.654 118.052 86.2554 118.725C85.5238 118.837 84.9251 118.929 84.5 119C84.5 119 90.5 117 93.5 115C96.5 113 106 105.5 104.5 97.5C103 89.5 100 87.5 94 84C88 80.5 81 79 74 79C67 79 59.5 80 54.5 82.5C49.5 85 43 90.5 42.5 97.5C42 104.5 49.5 114 49.5 114C45 111.5 36.4807 103 35.5 95L35.483 94.8612C34.7855 89.172 34.4245 86.2281 35.0192 81.5C35.1247 80.6612 35.2824 79.5872 35.4484 78.4562C35.6446 77.1192 35.8526 75.7024 36 74.5C36.4002 71.2354 37.2263 66.9717 38.1321 63Z" fill="#FEF3E4"/>
<path d="M123 64C123 64 146.981 74 149 74.5C153.523 75.6199 152.065 81 154 81C156.481 81 158.038 79 157.519 74.5C157 70 155.038 66.9999 148.519 63C142 59 138.519 57.4999 132.019 55C125.519 52.5 119.519 51.5 119.519 51.5L123 64Z" fill="#FEF3E4"/>
<path d="M123 64C123 64 124.5 70.5 125.519 76C125.968 78.4197 126.304 80.646 126.5 82.8064C126.5 82.8064 129.5 83.1936 130.5 82.5C131.5 81.8064 131 76.5 132.5 75C134 73.5 149 74.5 149 74.5C146.981 74 123 64 123 64Z" fill="url(#paint4_linear_207_508)"/>
<path d="M41.5192 51.5C42.5192 50.5 119.519 51.5 119.519 51.5L135 51C135 51 141 49.9999 140.5 47C140 44 136.5 43 136.5 43L125 40.5L115.5 40L112 39.9551L89.5 39.3461H64.5L48 39.1346L37 39.3461L29 41C29 41 21 43 21 46C21 49 22.5 49.5 25.5 50C28.5 50.5 41.5192 51.5 41.5192 51.5Z" fill="#F39C1B"/>
<path d="M84.5 4.00001C82 3.00001 77.5 1.99999 73.5 4.99999C69.9877 7.63421 70.3305 8.34088 70.4663 8.47405C70.4888 8.4906 70.5 8.49997 70.5 8.49997L68 19L66 30L64.5 39.3461H89.5L88 22.5L87 6.49997C87 6.49997 87 5.00001 84.5 4.00001Z" fill="#F39C1B"/>
<path d="M110.5 30C109 25 107.5 21.5 107.5 21.5C107.5 21.5 106 18.5 101 13C96 7.49996 88 6.49997 88 6.49997H87L88 22.5L89.5 39.3461L112 39.9551C112 39.9551 112 35 110.5 30Z" fill="#F39C1B"/>
<path d="M68 19L70.5 8.49997C70.5 8.49997 70.4851 8.49254 70.4663 8.47405C70.1215 8.22014 67.1327 6.27543 61.5 10.5C55.5 15 51.5 20.5 51.5 20.5C51.5 20.5 50 25 49 30C48 35 48 39.1346 48 39.1346L64.5 39.3461L66 30L68 19Z" fill="#F39C1B"/>
<path d="M49 30C50 25 51.5 20.5 51.5 20.5C51.5 20.5 46.5 20 44.5 20.5C42.5 21 40 23.5 38.5 28C37 32.5 37 39.3461 37 39.3461L48 39.1346C48 39.1346 48 35 49 30Z" fill="#F39C1B"/>
<path d="M115.5 40L125 40.5C125 40.5 126 35 124 30C122 25 122 24.5 120 22.5C118 20.5 116.5 19.5 113.5 20C110.5 20.5 109.843 20.9142 107.5 21.5C107.5 21.5 109 25 110.5 30C112 35 112 39.9551 112 39.9551L115.5 40Z" fill="#F39C1B"/>
<path d="M41.5192 51.5C42.5192 50.5 119.519 51.5 119.519 51.5M41.5192 51.5C41.5192 51.5 31.5 53 23.5 56C15.5 59 8 65.5 6 67.5C4 69.5 3 71 3 74C3 76.1437 3.41189 77.2631 4.5 78.3997M41.5192 51.5C41.5192 51.5 28.5 50.5 25.5 50C22.5 49.5 21 49 21 46C21 43 29 41 29 41L37 39.3461M41.5192 51.5C40.9273 52.0919 39.4459 57.2388 38.1321 63M35.5 95C36.4807 103 45 111.5 49.5 114M35.5 95L35.483 94.8612M35.5 95C35.4943 94.9535 35.4886 94.9073 35.483 94.8612M49.5 114C54 116.5 54.5 117 64.5 119C74.5 121 81.5192 119.5 84.5 119M49.5 114C49.5 114 42 104.5 42.5 97.5C43 90.5 49.5 85 54.5 82.5C59.5 80 67 79 74 79C81 79 88 80.5 94 84C100 87.5 103 89.5 104.5 97.5C106 105.5 96.5 113 93.5 115C90.5 117 84.5 119 84.5 119M84.5 119C84.9251 118.929 85.5238 118.837 86.2554 118.725C90.654 118.052 99.8556 116.643 105 114.5C106.174 114.011 107.177 113.636 108.082 113.298C111.805 111.908 113.889 111.13 119.519 105.5C125.831 99.1887 126.045 96.5354 126.379 92.4098C126.415 91.9596 126.453 91.4919 126.5 91C126.769 88.1998 126.749 85.5564 126.5 82.8064M123 64C123 64 124.5 70.5 125.519 76C125.968 78.4197 126.304 80.646 126.5 82.8064M123 64C123 64 146.981 74 149 74.5M123 64L119.519 51.5M149 74.5C149 74.5 134 73.5 132.5 75C131 76.5 131.5 81.8064 130.5 82.5C129.5 83.1936 126.5 82.8064 126.5 82.8064M149 74.5C153.523 75.6199 152.065 81 154 81C156.481 81 158.038 79 157.519 74.5C157 70 155.038 66.9999 148.519 63C142 59 138.519 57.4999 132.019 55C125.519 52.5 119.519 51.5 119.519 51.5M119.519 51.5L135 51C135 51 141 49.9999 140.5 47C140 44 136.5 43 136.5 43L125 40.5M35.0192 81.5C35.0192 81.5 23.5 84 19 84C14.5 84 10 82.8064 7 80.5C5.92535 79.6738 5.10734 79.0341 4.5 78.3997M35.0192 81.5C34.4245 86.2281 34.7855 89.172 35.483 94.8612M35.0192 81.5C35.1247 80.6612 35.2824 79.5872 35.4484 78.4562C35.6446 77.1192 35.8526 75.7024 36 74.5C36.4002 71.2354 37.2263 66.9717 38.1321 63M37 39.3461L48 39.1346M37 39.3461C37 39.3461 37 32.5 38.5 28C40 23.5 42.5 21 44.5 20.5C46.5 20 51.5 20.5 51.5 20.5M125 40.5L115.5 40L112 39.9551M125 40.5C125 40.5 126 35 124 30C122 25 122 24.5 120 22.5C118 20.5 116.5 19.5 113.5 20C110.5 20.5 109.843 20.9142 107.5 21.5M107.5 21.5C107.5 21.5 109 25 110.5 30C112 35 112 39.9551 112 39.9551M107.5 21.5C107.5 21.5 106 18.5 101 13C96 7.49996 88 6.49997 88 6.49997H87M112 39.9551L89.5 39.3461M70.5 8.49997L68 19L66 30L64.5 39.3461M70.5 8.49997C70.5 8.49997 70.4888 8.4906 70.4663 8.47405M70.5 8.49997C70.5 8.49997 70.4851 8.49254 70.4663 8.47405M64.5 39.3461H89.5M64.5 39.3461L48 39.1346M89.5 39.3461L88 22.5L87 6.49997M87 6.49997C87 6.49997 87 5.00001 84.5 4.00001C82 3.00001 77.5 1.99999 73.5 4.99999C69.9877 7.63421 70.3305 8.34088 70.4663 8.47405M51.5 20.5C51.5 20.5 55.5 15 61.5 10.5C67.1327 6.27543 70.1215 8.22014 70.4663 8.47405M51.5 20.5C51.5 20.5 50 25 49 30C48 35 48 39.1346 48 39.1346M38.1321 63C38.1321 63 31.5 67.5 27 68.5C22.5 69.5 18 71 14 72.5C10 74 8.79577 75.3147 4.5 78.3997" stroke="black" stroke-width="5"/>
<path d="M88 53.5001C87.5691 54.1516 86.8543 54.8484 86.4831 55.5909C83.9831 60.5909 84.9829 64.6633 86.983 70.1633C88.983 75.6633 93.983 79.6633 93.983 79.6633C93.983 79.6633 102.483 86.1633 104.983 88.1633C107.483 90.1633 110.483 90.0909 114.483 89.5909C118.483 89.091 124.483 86.091 124.483 86.091C124.483 86.091 124.636 81.1633 124.483 79.0909C124.33 77.0186 122.456 67.0371 120.983 62.1633C119.598 57.581 118.853 54.9764 118.451 53.5001C108.301 53.4998 98.1504 53.5 88 53.5001Z" fill="url(#paint5_linear_207_508)"/>
<ellipse cx="98.5" cy="69" rx="5.5" ry="7.5" fill="#0B0000"/>
<ellipse cx="98.5" cy="69" rx="5.5" ry="7.5" fill="#0B0000"/>
<ellipse cx="98.5" cy="69" rx="5.5" ry="7.5" fill="#0B0000"/>
<ellipse cx="55.5" cy="69" rx="5.5" ry="7.5" fill="#0B0000"/>
<ellipse cx="55.5" cy="69" rx="5.5" ry="7.5" fill="#0B0000"/>
<ellipse cx="55.5" cy="69" rx="5.5" ry="7.5" fill="#0B0000"/>
<ellipse cx="60" cy="93.5" rx="3" ry="4" fill="#040000"/>
<ellipse cx="86" cy="93.5" rx="3" ry="4" fill="#040000"/>
<path d="M140.5 75C140.5 75 139.5 77.5 139 79C138.5 80.5 138 84 142 84C146 84 145 80.5 144.5 79C144 77.5 143 75 143 75C143 75 146.5 75 148 76C149.5 77 151.5 79.5 151.5 84C151.5 88.5 148 91.0001 146.5 92C145 93 142 93 142 93C142 93 139 93 137 92C135 91 132 88 132 84C132 80 134 77 135.5 76C137 75 140.5 75 140.5 75Z" fill="#FED722" stroke="#0B0000" stroke-width="3"/>
<defs>
<linearGradient id="paint0_linear_207_508" x1="163" y1="115.5" x2="161" y2="142.5" gradientUnits="userSpaceOnUse">
<stop stop-color="#F8AE21"/>
<stop offset="1" stop-color="#E52D14"/>
</linearGradient>
<linearGradient id="paint1_linear_207_508" x1="115" y1="126" x2="127" y2="121" gradientUnits="userSpaceOnUse">
<stop stop-color="#F8AE21"/>
<stop offset="1" stop-color="#E52D14"/>
</linearGradient>
<linearGradient id="paint2_linear_207_508" x1="75" y1="96.5" x2="86" y2="120" gradientUnits="userSpaceOnUse">
<stop stop-color="#F8AE21"/>
<stop offset="1" stop-color="#E52D14"/>
</linearGradient>
<linearGradient id="paint3_linear_207_508" x1="7.5" y1="79" x2="36" y2="74" gradientUnits="userSpaceOnUse">
<stop stop-color="#F8AE21"/>
<stop offset="1" stop-color="#E52D14"/>
</linearGradient>
<linearGradient id="paint4_linear_207_508" x1="140.5" y1="72" x2="125.5" y2="74" gradientUnits="userSpaceOnUse">
<stop stop-color="#F8AE21"/>
<stop offset="1" stop-color="#E52D14"/>
</linearGradient>
<linearGradient id="paint5_linear_207_508" x1="90.4831" y1="74.0908" x2="121.983" y2="62.0908" gradientUnits="userSpaceOnUse">
<stop stop-color="#F8AE21"/>
<stop offset="1" stop-color="#E52D14"/>
</linearGradient>
</defs>
</svg>
