<svg width="178" height="157" viewBox="0 0 178 157" fill="none" xmlns="http://www.w3.org/2000/svg">
<path d="M156.587 132.024C156.587 132.024 159.823 132.904 161.901 132.078C163.979 131.253 165.725 130.801 167.683 127.857C169.642 124.914 170.229 122.756 169.95 117.814C169.671 112.872 168.18 111.54 166.609 108.796C165.038 106.051 162.84 104.759 162.84 104.759C162.84 104.759 161.92 107.289 160.628 109.487C159.335 111.684 157.67 113.549 156.67 114.668C155.671 115.786 153.981 110.924 153.981 110.924C153.981 110.924 149.983 115.399 150.595 119.968C151.207 124.537 153.936 128.986 153.936 128.986L156.587 132.024Z" fill="url(#paint0_linear_207_515)"/>
<path d="M156.587 132.024C156.587 132.024 159.823 132.904 161.901 132.078C163.979 131.253 165.725 130.801 167.683 127.857C169.642 124.914 170.229 122.756 169.95 117.814C169.671 112.872 168.18 111.54 166.609 108.796C165.038 106.051 162.84 104.759 162.84 104.759C162.84 104.759 161.92 107.289 160.628 109.487C159.335 111.684 157.67 113.549 156.67 114.668C155.671 115.786 153.981 110.924 153.981 110.924C153.981 110.924 149.983 115.399 150.595 119.968C151.207 124.537 153.936 128.986 153.936 128.986L156.587 132.024ZM156.587 132.024C156.587 132.024 158.212 129.453 158.759 126.59C159.306 123.726 157.735 120.982 157.735 120.982" stroke="black" stroke-width="3"/>
<path d="M134.82 135.376C134.82 135.376 140.667 138.587 142.785 138.468C143.78 138.412 146.511 137.773 149.02 135.992C151.529 134.21 154.056 131.104 154.056 131.104L157.372 133.396C157.372 133.396 156.492 136.633 153.161 140.362C149.83 144.091 148.498 145.582 145.048 147.193C141.597 148.804 136.243 148.044 134.418 147.084C132.593 146.125 129.237 143.127 129.237 143.127L132.568 139.398L134.82 135.376Z" fill="#FEF3E4" stroke="black" stroke-width="3"/>
<path d="M13.0815 139.944C12.0815 148.444 20.5814 152.944 22.5815 153.444C24.5815 153.944 28.0815 154.444 28.0815 154.444C28.0815 154.444 28.5814 146.444 28.0815 140.944C27.5815 135.444 24.5815 129.944 24.5815 129.944C24.5815 129.944 14.0815 131.444 13.0815 139.944Z" fill="#523F45"/>
<path d="M126.081 137.444C125.581 134.944 123.581 132.944 120.581 132.944C116.231 132.944 111.778 135.783 109.581 139.444C108.081 141.944 107.581 145.444 108.081 148.444C108.581 151.444 111.581 154.444 111.581 154.444H119.581C119.581 154.444 125.581 148.444 126.081 146.444C126.581 144.444 126.581 139.944 126.081 137.444Z" fill="#523F45"/>
<path d="M82.5815 108.944H66.5815C66.5815 108.944 63.5815 109.944 62.5815 113.944C61.5815 117.944 63.5815 122.944 63.5815 122.944C66.7612 126.442 68.3313 128.444 73.5815 128.444C79.6213 128.444 82.6242 125.03 86.0815 120.944C86.0815 120.944 87.0815 116.944 86.0815 113.944C85.0815 110.944 82.5815 108.944 82.5815 108.944Z" fill="#FD8A0B"/>
<path d="M127.081 154.444C127.081 154.444 134.081 147.944 134.581 144.944C135.081 141.944 135.081 136.944 134.081 134.944C133.081 132.944 130.581 131.444 129.581 128.944C128.581 126.444 125.081 111.944 124.081 108.944C123.081 105.944 117.081 94.9445 117.081 94.9445C117.081 94.9445 113.581 97.9445 107.581 101.444C101.581 104.944 92.0815 106.944 92.0815 106.944L82.5815 108.944C82.5815 108.944 85.0815 110.944 86.0815 113.944C87.0815 116.944 86.0815 120.944 86.0815 120.944L83.0815 131.944L81.0815 141.444C81.0815 141.444 84.5815 142.944 89.0815 143.444C93.5815 143.944 99.5815 144.444 99.5815 144.444C99.5815 144.444 98.0815 148.444 97.0815 150.444C96.0815 152.444 94.0815 154.444 94.0815 154.444H111.581C111.581 154.444 108.581 151.444 108.081 148.444C107.581 145.444 108.081 141.944 109.581 139.444C111.778 135.783 116.231 132.944 120.581 132.944C123.581 132.944 125.581 134.944 126.081 137.444C126.581 139.944 126.581 144.444 126.081 146.444C125.581 148.444 119.581 154.444 119.581 154.444H127.081Z" fill="#FEF3E4"/>
<path d="M45.5815 104.444C45.5815 104.444 43.5815 111.944 43.5814 116.944C43.5814 121.944 44.2911 127.944 44.2911 127.944L45.5815 135.444L47.7579 144.444C47.7579 144.444 52.0815 144.944 56.0815 144.444C60.0815 143.944 65.5815 141.444 65.5815 141.444L64.5815 131.944L63.5815 122.944C63.5815 122.944 61.5815 117.944 62.5815 113.944C63.5815 109.944 66.5815 108.944 66.5815 108.944C66.5815 108.944 59.0815 107.944 55.5815 107.444C52.0815 106.944 45.5815 104.444 45.5815 104.444Z" fill="#FEF3E4"/>
<path d="M50.5815 154.444L49.0815 149.444L47.7579 144.444L45.5815 135.444L44.2911 127.944L24.5815 129.944C24.5815 129.944 27.5815 135.444 28.0815 140.944C28.5814 146.444 28.0815 154.444 28.0815 154.444H50.5815Z" fill="#FEF3E4"/>
<path d="M79.5815 154.444C79.5815 153.244 80.2481 145.278 81.0815 141.444L83.0815 131.944L86.0815 120.944C82.6242 125.03 79.6213 128.444 73.5815 128.444C68.3313 128.444 66.7612 126.442 63.5815 122.944L64.5815 131.944L65.5815 141.444C65.5815 141.444 66.0815 144.944 66.5815 147.944C67.0815 150.944 67.5815 154.444 67.5815 154.444H79.5815Z" fill="#FEF3E4"/>
<path d="M81.0815 141.444C80.2481 145.278 79.5815 153.244 79.5815 154.444H94.0815C94.0815 154.444 96.0815 152.444 97.0815 150.444C98.0815 148.444 99.5815 144.444 99.5815 144.444C99.5815 144.444 93.5815 143.944 89.0815 143.444C84.5815 142.944 81.0815 141.444 81.0815 141.444Z" fill="#523F45"/>
<path d="M49.0815 149.444L50.5815 154.444H67.5815C67.5815 154.444 67.0815 150.944 66.5815 147.944C66.0815 144.944 65.5815 141.444 65.5815 141.444C65.5815 141.444 60.0815 143.944 56.0815 144.444C52.0815 144.944 47.7579 144.444 47.7579 144.444L49.0815 149.444Z" fill="#523F45"/>
<path d="M50.5815 154.444L49.0815 149.444L47.7579 144.444M50.5815 154.444H28.0815M50.5815 154.444H67.5815M24.5815 129.944C24.5815 129.944 14.0815 131.444 13.0815 139.944C12.0815 148.444 20.5814 152.944 22.5815 153.444C24.5815 153.944 28.0815 154.444 28.0815 154.444M24.5815 129.944L44.2911 127.944M24.5815 129.944C24.5815 129.944 27.5815 135.444 28.0815 140.944C28.5814 146.444 28.0815 154.444 28.0815 154.444M44.2911 127.944C44.2911 127.944 43.5814 121.944 43.5814 116.944C43.5815 111.944 45.5815 104.444 45.5815 104.444C45.5815 104.444 52.0815 106.944 55.5815 107.444C59.0815 107.944 66.5815 108.944 66.5815 108.944M44.2911 127.944L45.5815 135.444L47.7579 144.444M82.5815 108.944L92.0815 106.944C92.0815 106.944 101.581 104.944 107.581 101.444C113.581 97.9445 117.081 94.9445 117.081 94.9445C117.081 94.9445 123.081 105.944 124.081 108.944C125.081 111.944 128.581 126.444 129.581 128.944C130.581 131.444 133.081 132.944 134.081 134.944C135.081 136.944 135.081 141.944 134.581 144.944C134.081 147.944 127.081 154.444 127.081 154.444H119.581M82.5815 108.944H66.5815M82.5815 108.944C82.5815 108.944 85.0815 110.944 86.0815 113.944C87.0815 116.944 86.0815 120.944 86.0815 120.944M66.5815 108.944C66.5815 108.944 63.5815 109.944 62.5815 113.944C61.5815 117.944 63.5815 122.944 63.5815 122.944M63.5815 122.944L64.5815 131.944L65.5815 141.444M63.5815 122.944C66.7612 126.442 68.3313 128.444 73.5815 128.444C79.6213 128.444 82.6242 125.03 86.0815 120.944M86.0815 120.944L83.0815 131.944L81.0815 141.444M79.5815 154.444C79.5815 153.244 80.2481 145.278 81.0815 141.444M79.5815 154.444H94.0815M79.5815 154.444H67.5815M81.0815 141.444C81.0815 141.444 84.5815 142.944 89.0815 143.444C93.5815 143.944 99.5815 144.444 99.5815 144.444M99.5815 144.444C99.5815 144.444 98.0815 148.444 97.0815 150.444C96.0815 152.444 94.0815 154.444 94.0815 154.444M99.5815 144.444C99.5815 144.444 101.081 141.444 102.581 136.444C104.081 131.444 105.081 125.944 105.081 125.944M94.0815 154.444H111.581M119.581 154.444C119.581 154.444 125.581 148.444 126.081 146.444C126.581 144.444 126.581 139.944 126.081 137.444C125.581 134.944 123.581 132.944 120.581 132.944C116.231 132.944 111.778 135.783 109.581 139.444C108.081 141.944 107.581 145.444 108.081 148.444C108.581 151.444 111.581 154.444 111.581 154.444M119.581 154.444H111.581M47.7579 144.444C47.7579 144.444 52.0815 144.944 56.0815 144.444C60.0815 143.944 65.5815 141.444 65.5815 141.444M65.5815 141.444C65.5815 141.444 66.0815 144.944 66.5815 147.944C67.0815 150.944 67.5815 154.444 67.5815 154.444" stroke="#040000" stroke-width="5"/>
<path d="M117.5 100.944C117.5 100.944 112.392 103.943 112.258 108.942C112.123 113.94 113.569 115.979 116.028 117.546C118.486 119.113 124 117.944 124 117.944L123 113.944L121.5 108.942L117.5 100.944Z" fill="url(#paint1_linear_207_515)"/>
<rect x="34.5" y="109.444" width="51" height="43" rx="5.5" fill="#FBF8D9" stroke="black" stroke-width="5"/>
<path d="M76.1848 125.373C76.8487 127.397 77.126 129.564 76.9546 131.764L72.9667 131.454C72.9043 132.254 72.7633 133.062 72.5367 133.871C72.3102 134.68 72.0107 135.444 71.6484 136.16L75.2176 137.966C74.2214 139.935 72.8585 141.643 71.2398 143.028L68.6393 139.989C67.3913 141.057 65.9417 141.872 64.381 142.384L65.6274 146.185C63.603 146.849 61.4354 147.126 59.2354 146.955L59.5462 142.967C58.7462 142.904 57.9375 142.763 57.1287 142.537C56.3199 142.31 55.5556 142.011 54.8395 141.648L53.0337 145.218C51.0647 144.221 49.3565 142.859 47.9715 141.24L51.0107 138.639C49.9429 137.391 49.1277 135.942 48.6159 134.381L44.815 135.627C44.1512 133.603 43.8738 131.436 44.0453 129.236L48.0332 129.546C48.0955 128.746 48.2366 127.938 48.4631 127.129C48.6896 126.32 48.9892 125.556 49.3514 124.84L45.7822 123.034C46.7784 121.065 48.1413 119.357 49.76 117.972L52.3606 121.011C53.6086 119.943 55.0581 119.128 56.6188 118.616L55.3725 114.815C57.3968 114.151 59.5644 113.874 61.7644 114.045L61.4536 118.033C62.2537 118.096 63.0624 118.237 63.8712 118.463C64.68 118.69 65.4443 118.989 66.1603 119.351L67.9661 115.782C69.9351 116.779 71.6433 118.141 73.0284 119.76L69.9891 122.361C71.057 123.609 71.8722 125.058 72.384 126.619L76.1848 125.373Z" stroke="black" stroke-width="8" stroke-linejoin="round" stroke-dasharray="8 8"/>
<path d="M49.5 104.017C54 106.517 54.5 107.017 64.5 109.017C74.5 111.017 81.5192 109.517 84.5 109.017C84.5 109.017 90.5 107.017 93.5 105.017C96.5 103.017 106 95.5169 104.5 87.5169C103 79.5169 100 77.5169 94 74.0169C88 70.5169 81 69.0169 74 69.0169C67 69.0169 59.5 70.0169 54.5 72.5169C49.5 75.0169 43 80.5169 42.5 87.5169C42 94.5169 49.5 104.017 49.5 104.017Z" fill="url(#paint2_linear_207_515)"/>
<path d="M7 70.5168C7.88284 71.1955 8.89558 71.7779 10 72.2618C10.8312 72.6261 17.0128 74 19.5 74C22.8474 74 25.7906 73.2777 27.5 72.9799C31.4446 72.2926 35.0192 71.5168 35.0192 71.5168C35.1247 70.6781 35.2824 69.6041 35.4484 68.473C35.6446 67.136 35.8526 65.7192 36 64.5168C36.4002 61.2523 37.2263 56.9886 38.1321 53.0168C38.1321 53.0168 31.5 57.5168 27 58.5168C22.5 59.5169 18 61.0168 14 62.5168C10 64.0168 8.79577 65.3315 4.5 68.4165C5.10734 69.0509 5.92535 69.6906 7 70.5168Z" fill="url(#paint3_linear_207_515)"/>
<path d="M123 54.0168C123 54.0168 146.5 63.5724 149.5 66.0724C152.5 68.5724 152.065 71.0168 154 71.0168C156.481 71.0168 158.038 69.0168 157.519 64.5168C157 60.0168 155.038 57.0168 148.519 53.0168C142 49.0168 138.519 47.5168 132.019 45.0168C125.519 42.5168 119.519 41.5168 119.519 41.5168L123 54.0168Z" fill="#FEF3E4"/>
<path d="M123 54.0168C123 54.0168 124.5 60.5168 125.519 66.0168C125.968 68.4366 126.304 70.6628 126.5 72.8232C126.5 72.8232 129 71.266 130 70.5724C133.507 68.1399 136.448 65.9768 141 66.0168C145.217 66.0539 149.5 66.0724 149.5 66.0724C146.5 63.5724 123 54.0168 123 54.0168Z" fill="url(#paint4_linear_207_515)"/>
<path d="M35.5 85.0169C36.4807 93.0169 45 101.517 49.5 104.017C49.5 104.017 42 94.5169 42.5 87.5169C43 80.5169 49.5 75.0169 54.5 72.5169C59.5 70.0169 67 69.0169 74 69.0169C81 69.0169 88 70.5169 94 74.0169C100 77.5169 103 79.5169 104.5 87.5169C106 95.5169 96.5 103.017 93.5 105.017C90.5 107.017 84.5 109.017 84.5 109.017C84.9251 108.946 85.5238 108.854 86.2554 108.742C90.654 108.069 99.8556 106.66 105 104.517C106.174 104.028 107.177 103.653 108.082 103.315C111.805 101.925 113.889 101.147 119.519 95.5169C125.831 89.2055 126.045 86.5523 126.379 82.4266C126.415 81.9764 126.453 81.5087 126.5 81.0168C126.769 78.2166 126.749 75.5732 126.5 72.8232C126.304 70.6628 125.968 68.4366 125.519 66.0168C124.5 60.5168 123 54.0168 123 54.0168L119.519 41.5168C110.5 45.0168 99.5 30.0724 99 28.5724C98.5 27.0723 99 28.5723 96.5 26.0724C94 23.5724 86.5 22.0724 86.5 22.0724C86.5 22.0724 88.5 15.9135 86.5 12.4135C83.4838 7.13515 77 -0.0864768 73 4.41353C69 8.91353 73 17.4135 71.5 14.4135C70 11.4135 54.5 13.4135 54.5 19.4136C54.5 25.4136 62 26.0724 62 26.0724L54.5 29.0724L41.5192 41.5168C40.9273 42.1087 39.4459 47.2556 38.1321 53.0168C37.2263 56.9886 36.4002 61.2523 36 64.5168C35.8526 65.7192 35.6446 67.136 35.4484 68.473C35.2824 69.6041 35.1247 70.6781 35.0192 71.5168C34.4245 76.245 34.7855 79.1888 35.483 84.878L35.5 85.0169Z" fill="#FEF3E4"/>
<path d="M99 28.5724C99.5 30.0724 110.5 45.0168 119.519 41.5168C119.519 41.5168 126.5 36.0724 124 24.5724C122.832 19.1989 119.917 16.1179 117.143 14.3602C114.343 12.5862 111.449 15.3844 110.862 18.6466C110.611 20.0455 110.188 21.5589 109.5 23.0724C107 28.5724 99 28.5724 99 28.5724Z" fill="#FED722"/>
<path d="M41.5192 41.5168L54.5 29.0724C54.5 29.0724 49.5 26.5724 47.5 22.0724C47.0598 21.082 46.7408 20.0916 46.5108 19.1492C45.7609 16.0762 42.9698 13.4182 40.2315 15.0017C37.4862 16.5891 34.7439 19.4505 34.5 24.5724C34 35.0724 41.5192 41.5168 41.5192 41.5168Z" fill="#FED722"/>
<path d="M41.5192 41.5168C41.5192 41.5168 31.5 43.0168 23.5 46.0168C15.5 49.0168 8 55.5168 6 57.5168C4 59.5168 3 61.0168 3 64.0168C3 66.1605 3.41189 67.28 4.5 68.4165C8.79577 65.3315 10 64.0168 14 62.5168C18 61.0168 22.5 59.5169 27 58.5168C31.5 57.5168 38.1321 53.0168 38.1321 53.0168C39.4459 47.2556 40.9273 42.1087 41.5192 41.5168Z" fill="#FEF3E4"/>
<path d="M41.5192 41.5168C41.5192 41.5168 31.5 43.0168 23.5 46.0168C15.5 49.0168 8 55.5168 6 57.5168C4 59.5168 3 61.0168 3 64.0168C3 66.1605 3.41189 67.28 4.5 68.4165M41.5192 41.5168C40.9273 42.1087 39.4459 47.2556 38.1321 53.0168M41.5192 41.5168L54.5 29.0724M41.5192 41.5168C41.5192 41.5168 34 35.0724 34.5 24.5724C34.7439 19.4505 37.4862 16.5891 40.2315 15.0017C42.9698 13.4182 45.7609 16.0762 46.5108 19.1492C46.7408 20.0916 47.0598 21.082 47.5 22.0724C49.5 26.5724 54.5 29.0724 54.5 29.0724M35.5 85.0169C36.4807 93.0169 45 101.517 49.5 104.017M35.5 85.0169L35.483 84.878M35.5 85.0169C35.4943 84.9704 35.4886 84.9241 35.483 84.878M49.5 104.017C54 106.517 54.5 107.017 64.5 109.017C74.5 111.017 81.5192 109.517 84.5 109.017M49.5 104.017C49.5 104.017 42 94.5169 42.5 87.5169C43 80.5169 49.5 75.0169 54.5 72.5169C59.5 70.0169 67 69.0169 74 69.0169C81 69.0169 88 70.5169 94 74.0169C100 77.5169 103 79.5169 104.5 87.5169C106 95.5169 96.5 103.017 93.5 105.017C90.5 107.017 84.5 109.017 84.5 109.017M84.5 109.017C84.9251 108.946 85.5238 108.854 86.2554 108.742C90.654 108.069 99.8556 106.66 105 104.517C106.174 104.028 107.177 103.653 108.082 103.315C111.805 101.925 113.889 101.147 119.519 95.5169C125.831 89.2055 126.045 86.5523 126.379 82.4266C126.415 81.9764 126.453 81.5087 126.5 81.0168C126.769 78.2166 126.749 75.5732 126.5 72.8232M123 54.0168C123 54.0168 124.5 60.5168 125.519 66.0168C125.968 68.4366 126.304 70.6628 126.5 72.8232M123 54.0168C123 54.0168 146.5 63.5724 149.5 66.0724M123 54.0168L119.519 41.5168M149.5 66.0724C152.5 68.5724 152.065 71.0168 154 71.0168C156.481 71.0168 158.038 69.0168 157.519 64.5168C157 60.0168 155.038 57.0168 148.519 53.0168C142 49.0168 138.519 47.5168 132.019 45.0168C125.519 42.5168 119.519 41.5168 119.519 41.5168M149.5 66.0724C149.5 66.0724 145.217 66.0539 141 66.0168C136.448 65.9768 133.507 68.1399 130 70.5724C129 71.266 126.5 72.8232 126.5 72.8232M119.519 41.5168C110.5 45.0168 99.5 30.0724 99 28.5724M119.519 41.5168C119.519 41.5168 126.5 36.0724 124 24.5724C122.832 19.1989 119.917 16.1179 117.143 14.3602C114.343 12.5862 111.449 15.3844 110.862 18.6466C110.611 20.0455 110.188 21.5589 109.5 23.0724C107 28.5724 99 28.5724 99 28.5724M35.0192 71.5168C34.4245 76.245 34.7855 79.1888 35.483 84.878M35.0192 71.5168C35.1247 70.6781 35.2824 69.6041 35.4484 68.473C35.6446 67.136 35.8526 65.7192 36 64.5168C36.4002 61.2523 37.2263 56.9886 38.1321 53.0168M35.0192 71.5168C35.0192 71.5168 31.4446 72.2926 27.5 72.9799C25.7906 73.2777 22.8474 74 19.5 74C17.0128 74 10.8312 72.6261 10 72.2618C8.89558 71.7779 7.88284 71.1955 7 70.5168C5.92535 69.6906 5.10734 69.0509 4.5 68.4165M38.1321 53.0168C38.1321 53.0168 31.5 57.5168 27 58.5168C22.5 59.5169 18 61.0168 14 62.5168C10 64.0168 8.79577 65.3315 4.5 68.4165M54.5 29.0724L62 26.0724M62 26.0724C62 26.0724 54.5 25.4136 54.5 19.4136C54.5 13.4135 70 11.4135 71.5 14.4135C73 17.4135 69 8.91353 73 4.41353C77 -0.0864769 83.4838 7.13515 86.5 12.4135C88.5 15.9135 86.5 22.0724 86.5 22.0724C86.5 22.0724 94 23.5724 96.5 26.0724C99 28.5723 98.5 27.0723 99 28.5724M62 26.0724C62 26.0724 68 25.0723 67.5 26.0724C67 27.0724 59.5 32.2312 64 38.0723C68.5 43.9135 77 33.4135 73 30.4135" stroke="black" stroke-width="5"/>
<path d="M104.983 39.0909C104.983 39.0909 99.9829 38.6632 96.483 39.6632C92.9831 40.6632 88.9831 43.5909 86.4831 48.5909C83.9831 53.5909 84.9829 57.6632 86.983 63.1632C88.983 68.6632 96.483 70.5 96.483 70.5C96.483 70.5 104 77.0909 106.5 79.0909C109 81.0909 110.483 83.0909 114.483 82.5909C118.483 82.0909 124.483 79.0909 124.483 79.0909C124.483 79.0909 124.636 74.1632 124.483 72.0909C124.33 70.0185 122.456 60.0371 120.983 55.1632C117.983 45.2356 117.983 44.5909 117.983 44.5909C117.983 44.5909 114.483 44.5909 110.983 43.0909C107.483 41.5909 104.983 39.0909 104.983 39.0909Z" fill="url(#paint5_linear_207_515)"/>
<ellipse cx="98.5" cy="59.0168" rx="5.5" ry="7.5" fill="#0B0000"/>
<ellipse cx="98.5" cy="59.0168" rx="5.5" ry="7.5" fill="#0B0000"/>
<ellipse cx="98.5" cy="59.0168" rx="5.5" ry="7.5" fill="#0B0000"/>
<ellipse cx="55.5" cy="59.0168" rx="5.5" ry="7.5" fill="#0B0000"/>
<ellipse cx="55.5" cy="59.0168" rx="5.5" ry="7.5" fill="#0B0000"/>
<ellipse cx="55.5" cy="59.0168" rx="5.5" ry="7.5" fill="#0B0000"/>
<path d="M139.5 67.0724C139.5 67.0724 138.5 69.5724 138 71.0724C137.5 72.5724 137 76.0724 141 76.0724C145 76.0724 144 72.5724 143.5 71.0724C143 69.5724 142 67.0724 142 67.0724C142 67.0724 145.5 67.0724 147 68.0724C148.5 69.0724 150.5 71.5724 150.5 76.0724C150.5 80.5724 147 83.0724 145.5 84.0724C144 85.0724 141 85.0724 141 85.0724C141 85.0724 138 85.0724 136 84.0724C134 83.0724 131 80.0724 131 76.0724C131 72.0724 133 69.0724 134.5 68.0724C136 67.0724 139.5 67.0724 139.5 67.0724Z" fill="#FED722" stroke="#0B0000" stroke-width="3"/>
<ellipse cx="81.3449" cy="83.0724" rx="4.65517" ry="3" fill="black"/>
<ellipse cx="63.6552" cy="83.0724" rx="4.65517" ry="3" fill="black"/>
<defs>
<linearGradient id="paint0_linear_207_515" x1="169.126" y1="110.206" x2="156.5" y2="131" gradientUnits="userSpaceOnUse">
<stop stop-color="#F8AE21"/>
<stop offset="1" stop-color="#E52D14"/>
</linearGradient>
<linearGradient id="paint1_linear_207_515" x1="113.5" y1="111.5" x2="125.5" y2="110" gradientUnits="userSpaceOnUse">
<stop stop-color="#F8AE21"/>
<stop offset="1" stop-color="#E52D14"/>
</linearGradient>
<linearGradient id="paint2_linear_207_515" x1="65" y1="86.5" x2="91.5" y2="110" gradientUnits="userSpaceOnUse">
<stop stop-color="#F8AE21"/>
<stop offset="1" stop-color="#E52D14"/>
</linearGradient>
<linearGradient id="paint3_linear_207_515" x1="6" y1="67.5" x2="37.1285" y2="65.5167" gradientUnits="userSpaceOnUse">
<stop stop-color="#F8AE21"/>
<stop offset="1" stop-color="#E52D14"/>
</linearGradient>
<linearGradient id="paint4_linear_207_515" x1="141" y1="62.5" x2="125" y2="63.5" gradientUnits="userSpaceOnUse">
<stop stop-color="#F8AE21"/>
<stop offset="1" stop-color="#E52D14"/>
</linearGradient>
<linearGradient id="paint5_linear_207_515" x1="90.4831" y1="67.0908" x2="121.983" y2="55.0908" gradientUnits="userSpaceOnUse">
<stop stop-color="#F8AE21"/>
<stop offset="1" stop-color="#E52D14"/>
</linearGradient>
</defs>
</svg>
