<svg width="182" height="165" viewBox="0 0 182 165" fill="none" xmlns="http://www.w3.org/2000/svg">
<path d="M153.833 134.834C153.833 134.834 152.192 131.909 152.488 129.692C152.783 127.476 152.798 125.673 155.176 123.057C157.555 120.442 159.505 119.348 164.367 118.417C169.228 117.485 170.883 118.608 173.927 119.465C176.971 120.322 178.759 122.139 178.759 122.139C178.759 122.139 176.528 123.646 174.711 125.434C172.894 127.223 171.49 129.291 170.648 130.533C169.806 131.774 174.933 132.232 174.933 132.232C174.933 132.232 171.565 137.197 166.984 137.714C162.404 138.232 157.424 136.666 157.424 136.666L153.833 134.834Z" fill="url(#paint0_linear_300_26)"/>
<path d="M153.833 134.834C153.833 134.834 152.192 131.909 152.488 129.692C152.783 127.476 152.798 125.673 155.176 123.057C157.555 120.442 159.505 119.348 164.367 118.417C169.228 117.485 170.883 118.608 173.927 119.465C176.971 120.322 178.759 122.139 178.759 122.139C178.759 122.139 176.528 123.646 174.711 125.434C172.894 127.223 171.49 129.291 170.648 130.533C169.806 131.774 174.933 132.232 174.933 132.232C174.933 132.232 171.565 137.197 166.984 137.714C162.404 138.232 157.424 136.666 157.424 136.666L153.833 134.834ZM153.833 134.834C153.833 134.834 155.931 132.632 158.576 131.406C161.221 130.179 164.265 131.036 164.265 131.036" stroke="black" stroke-width="3"/>
<path d="M135.334 141.619C135.334 141.619 141.555 144.026 143.638 143.627C144.616 143.44 147.238 142.445 149.489 140.346C151.74 138.248 153.833 134.834 153.833 134.834L157.424 136.666C157.424 136.666 156.981 139.991 154.174 144.129C151.367 148.266 150.244 149.921 147.037 151.976C143.831 154.03 138.423 153.986 136.487 153.277C134.551 152.568 130.828 150.041 130.828 150.041L133.635 145.904L135.334 141.619Z" fill="#FEF3E4" stroke="black" stroke-width="3"/>
<path d="M85.1631 111.944H69.1632C69.1632 111.944 66.1632 112.944 65.1632 116.944C64.1632 120.944 66.1632 125.944 66.1632 125.944C69.3429 129.442 70.913 131.444 76.1631 131.444C82.203 131.444 85.2059 128.03 88.6631 123.944C88.6631 123.944 89.6631 119.944 88.6631 116.944C87.6631 113.944 85.1631 111.944 85.1631 111.944Z" fill="#FED722"/>
<path d="M29.5815 106.5C29.5815 106.5 28.5 99 25.5 97.5C22.5 96 15.5815 97.5 15.5815 97.5C15.5815 97.5 9 98 9 102C9 106 16.5 110.444 16.5 110.444L22.5815 108L29.5815 106.5Z" fill="#523F45"/>
<path d="M23.5815 136.944C23.5815 136.944 26.5815 142.444 27.0815 147.944C27.5814 153.444 27.0815 161.444 27.0815 161.444H49.5814H66.5814H78.5814H93.0814H110.581C110.581 161.444 107.581 158.444 107.081 155.444C106.581 152.444 107.081 148.944 108.581 146.444C110.778 142.783 115.231 139.944 119.581 139.944C122.581 139.944 124.581 141.944 125.081 144.444C125.581 146.944 125.581 151.444 125.081 153.444C124.581 155.444 118.581 161.444 118.581 161.444H126.081C126.081 161.444 133.081 154.944 133.581 151.944C134.081 148.944 134.081 143.944 133.081 141.944C132.081 139.944 129.581 138.444 128.581 135.944C127.581 133.444 127 123 126 120C126 120 133 120 138.5 119C144 118 149.5 106 149.5 106L144.75 100.75L142 98L131 103.5L119.581 99C119.581 99 116.163 100.944 110.163 104.444C104.163 107.944 94.6631 109.944 94.6631 109.944L85.1631 111.944C85.1631 111.944 87.6631 113.944 88.6631 116.944C89.6631 119.944 88.6631 123.944 88.6631 123.944C85.2059 128.03 82.203 131.444 76.1631 131.444C70.913 131.444 69.3429 129.442 66.1632 125.944C66.1632 125.944 64.1632 120.944 65.1632 116.944C66.1632 112.944 69.1632 111.944 69.1632 111.944C69.1632 111.944 61.6632 110.944 58.1632 110.444C54.6632 109.944 48.1632 107.444 48.1632 107.444C48.1632 107.444 42.5815 109 37.0815 109C31.5815 109 29.5815 106.5 29.5815 106.5L22.5815 108L16.5 110.444C16.5 110.444 24.0814 119.5 27.0815 122.5C30.0815 125.5 38.0815 125.5 38.0815 125.5L36.9997 136L23.5815 136.944Z" fill="#FEF3E4"/>
<path d="M147.5 90.5C144.75 92 142 98 142 98L144.75 100.75L149.5 106C149.5 106 160 104.444 160.5 100.5C161 96.5555 157 94 157 94C157 94 150.25 89 147.5 90.5Z" fill="#523F45"/>
<path d="M125.081 144.444C124.581 141.944 122.581 139.944 119.581 139.944C115.231 139.944 110.778 142.783 108.581 146.444C107.081 148.944 106.581 152.444 107.081 155.444C107.581 158.444 110.581 161.444 110.581 161.444H118.581C118.581 161.444 124.581 155.444 125.081 153.444C125.581 151.444 125.581 146.944 125.081 144.444Z" fill="#523F45"/>
<path d="M12.0815 146.944C11.0815 155.444 19.5814 159.944 21.5815 160.444C23.5815 160.944 27.0815 161.444 27.0815 161.444C27.0815 161.444 27.5814 153.444 27.0815 147.944C26.5815 142.444 23.5815 136.944 23.5815 136.944C23.5815 136.944 13.0815 138.444 12.0815 146.944Z" fill="#523F45"/>
<path d="M23.5815 136.944C23.5815 136.944 13.0815 138.444 12.0815 146.944C11.0815 155.444 19.5814 159.944 21.5815 160.444C23.5815 160.944 27.0815 161.444 27.0815 161.444M23.5815 136.944C23.5815 136.944 26.5815 142.444 27.0815 147.944C27.5814 153.444 27.0815 161.444 27.0815 161.444M23.5815 136.944L36.9997 136L38.0815 125.5M27.0815 161.444H49.5814H66.5814H78.5814H93.0814H110.581M126 120C127 123 127.581 133.444 128.581 135.944C129.581 138.444 132.081 139.944 133.081 141.944C134.081 143.944 134.081 148.944 133.581 151.944C133.081 154.944 126.081 161.444 126.081 161.444H118.581M126 120C126 120 133 120 138.5 119C144 118 149.5 106 149.5 106M126 120L120.5 118M85.1631 111.944L94.6631 109.944C94.6631 109.944 104.163 107.944 110.163 104.444C116.163 100.944 119.581 99 119.581 99L131 103.5L142 98M85.1631 111.944H69.1632M85.1631 111.944C85.1631 111.944 87.6631 113.944 88.6631 116.944C89.6631 119.944 88.6631 123.944 88.6631 123.944C85.2059 128.03 82.203 131.444 76.1631 131.444C70.913 131.444 69.3429 129.442 66.1632 125.944C66.1632 125.944 64.1632 120.944 65.1632 116.944C66.1632 112.944 69.1632 111.944 69.1632 111.944M69.1632 111.944C69.1632 111.944 61.6632 110.944 58.1632 110.444C54.6632 109.944 48.1632 107.444 48.1632 107.444C48.1632 107.444 42.5815 109 37.0815 109C31.5815 109 29.5815 106.5 29.5815 106.5M118.581 161.444C118.581 161.444 124.581 155.444 125.081 153.444C125.581 151.444 125.581 146.944 125.081 144.444C124.581 141.944 122.581 139.944 119.581 139.944C115.231 139.944 110.778 142.783 108.581 146.444C107.081 148.944 106.581 152.444 107.081 155.444C107.581 158.444 110.581 161.444 110.581 161.444M118.581 161.444H110.581M29.5815 106.5L22.5815 108L16.5 110.444M29.5815 106.5C29.5815 106.5 28.5 99 25.5 97.5C22.5 96 15.5815 97.5 15.5815 97.5C15.5815 97.5 9 98 9 102C9 106 16.5 110.444 16.5 110.444M16.5 110.444C16.5 110.444 24.0814 119.5 27.0815 122.5C30.0815 125.5 38.0815 125.5 38.0815 125.5M43 125.5H38.0815M142 98C142 98 144.75 92 147.5 90.5C150.25 89 157 94 157 94C157 94 161 96.5555 160.5 100.5C160 104.444 149.5 106 149.5 106M142 98L144.75 100.75L149.5 106" stroke="#040000" stroke-width="5" stroke-linecap="round"/>
<path d="M106.994 117.62C103.742 117.531 99.8865 122.063 99.7519 127.061C99.6174 132.06 101.063 134.099 103.522 135.666C105.98 137.233 111.494 136.064 111.494 136.064C111.494 136.064 115.746 135.666 116.746 131.709C117.746 127.751 116.246 120.208 114.746 118.708C113.246 117.209 110.246 117.709 106.994 117.62Z" fill="url(#paint1_linear_300_26)"/>
<path d="M55 132C51.748 131.911 48.1345 141.358 48 146.356C47.8654 151.354 49.311 153.394 51.7697 154.96C54.2285 156.527 59.7423 156 59.7423 156C59.7423 156 67.5 155.957 68.5 152C69.5 148.043 64.5 142.5 63 141C61.5 139.5 58.2519 132.089 55 132Z" fill="url(#paint2_linear_300_26)"/>
<path d="M106.994 117.62C103.742 117.531 99.8865 122.063 99.7519 127.061C99.6174 132.06 101.063 134.099 103.522 135.666C105.98 137.233 111.494 136.064 111.494 136.064C111.494 136.064 115.746 135.666 116.746 131.709C117.746 127.751 116.246 120.208 114.746 118.708C113.246 117.209 110.246 117.709 106.994 117.62Z" stroke="#0B0000"/>
<path d="M55 132C51.748 131.911 48.1345 141.358 48 146.356C47.8654 151.354 49.311 153.394 51.7697 154.96C54.2285 156.527 59.7423 156 59.7423 156C59.7423 156 67.5 155.957 68.5 152C69.5 148.043 64.5 142.5 63 141C61.5 139.5 58.2519 132.089 55 132Z" stroke="#0B0000"/>
<path d="M49.5 104.017C54 106.517 54.5 107.017 64.5 109.017C74.5 111.017 81.5192 109.517 84.5 109.017C84.5 109.017 90.5 107.017 93.5 105.017C96.5 103.017 106 95.5169 104.5 87.5169C103 79.5169 100 77.5169 94 74.0169C88 70.5169 81 69.0169 74 69.0169C67 69.0169 59.5 70.0169 54.5 72.5169C49.5 75.0169 43 80.5169 42.5 87.5169C42 94.5169 49.5 104.017 49.5 104.017Z" fill="url(#paint3_linear_300_26)"/>
<path d="M41.5192 41.5168C41.5192 41.5168 31.5 43.0168 23.5 46.0168C15.5 49.0168 8 55.5168 6 57.5168C4 59.5168 3 61.0168 3 64.0168C3 66.1605 3.41189 67.28 4.5 68.4165C8.79577 65.3315 10 64.0168 14 62.5168C18 61.0168 22.5 59.5169 27 58.5168C31.5 57.5168 38.1321 53.0168 38.1321 53.0168C39.4459 47.2556 40.9273 42.1087 41.5192 41.5168Z" fill="#FEF3E4"/>
<path d="M7 70.5168C7.88284 71.1955 8.89558 71.7779 10 72.2618C14.0592 74.0405 14.7732 74 19 74C21.7722 74 26.4623 73.1607 27.5 72.9799C31.4446 72.2926 35.0192 71.5168 35.0192 71.5168C35.1247 70.6781 35.2824 69.6041 35.4484 68.473C35.6446 67.136 35.8526 65.7192 36 64.5168C36.4002 61.2523 37.2263 56.9886 38.1321 53.0168C38.1321 53.0168 31.5 57.5168 27 58.5168C22.5 59.5169 18 61.0168 14 62.5168C10 64.0168 8.79577 65.3315 4.5 68.4165C5.10734 69.0509 5.92535 69.6906 7 70.5168Z" fill="url(#paint4_linear_300_26)"/>
<path d="M123 54.0168C123 54.0168 146.5 63.5724 149.5 66.0724C152.5 68.5724 152.065 71.0168 154 71.0168C156.481 71.0168 158.038 69.0168 157.519 64.5168C157 60.0168 155.038 57.0168 148.519 53.0168C142 49.0168 138.519 47.5168 132.019 45.0168C125.519 42.5168 119.519 41.5168 119.519 41.5168L123 54.0168Z" fill="#FEF3E4"/>
<path d="M123 54.0168C123 54.0168 124.5 60.5168 125.519 66.0168C125.968 68.4366 126.304 70.6628 126.5 72.8232C126.5 72.8232 129 71.266 130 70.5724C133.507 68.1399 136.448 65.9768 141 66.0168C145.217 66.0539 149.5 66.0724 149.5 66.0724C146.5 63.5724 123 54.0168 123 54.0168Z" fill="url(#paint5_linear_300_26)"/>
<path d="M35.5 85.0169C36.4807 93.0169 45 101.517 49.5 104.017C49.5 104.017 42 94.5169 42.5 87.5169C43 80.5169 49.5 75.0169 54.5 72.5169C59.5 70.0169 67 69.0169 74 69.0169C81 69.0169 88 70.5169 94 74.0169C100 77.5169 103 79.5169 104.5 87.5169C106 95.5169 96.5 103.017 93.5 105.017C90.5 107.017 84.5 109.017 84.5 109.017C84.9251 108.946 85.5238 108.854 86.2554 108.742C90.654 108.069 99.8556 106.66 105 104.517C106.174 104.028 107.177 103.653 108.082 103.315C111.805 101.925 113.889 101.147 119.519 95.5169C125.831 89.2055 126.045 86.5523 126.379 82.4266C126.415 81.9764 126.453 81.5087 126.5 81.0168C126.769 78.2166 126.749 75.5732 126.5 72.8232C126.304 70.6628 125.968 68.4366 125.519 66.0168C124.5 60.5168 123 54.0168 123 54.0168L119.519 41.5168C110.5 45.0168 99.5 30.0724 99 28.5724C98.5 27.0723 99 28.5723 96.5 26.0724C94 23.5724 86.5 22.0724 86.5 22.0724C86.5 22.0724 88.5 15.9135 86.5 12.4135C83.4838 7.13515 77 -0.0864769 73 4.41353C69 8.91353 73 17.4135 71.5 14.4135C70 11.4135 54.5 13.4135 54.5 19.4136C54.5 25.4136 62 26.0724 62 26.0724L54.5 29.0724L41.5192 41.5168C40.9273 42.1087 39.4459 47.2556 38.1321 53.0168C37.2263 56.9886 36.4002 61.2523 36 64.5168C35.8526 65.7192 35.6446 67.136 35.4484 68.473C35.2824 69.6041 35.1247 70.6781 35.0192 71.5168C34.4245 76.245 34.7855 79.1888 35.483 84.878L35.5 85.0169Z" fill="#FEF3E4"/>
<path d="M99 28.5724C99.5 30.0724 110.5 45.0168 119.519 41.5168C119.519 41.5168 126.5 36.0724 124 24.5724C122.832 19.1989 119.917 16.1179 117.143 14.3602C114.343 12.5862 111.449 15.3844 110.862 18.6466C110.611 20.0455 110.188 21.5589 109.5 23.0724C107 28.5724 99 28.5724 99 28.5724Z" fill="#FED722"/>
<path d="M41.5192 41.5168L54.5 29.0724C54.5 29.0724 49.5 26.5724 47.5 22.0724C47.0598 21.082 46.7408 20.0916 46.5108 19.1492C45.7609 16.0762 42.9698 13.4182 40.2315 15.0017C37.4862 16.5891 34.7439 19.4505 34.5 24.5724C34 35.0724 41.5192 41.5168 41.5192 41.5168Z" fill="#FED722"/>
<path d="M41.5192 41.5168C41.5192 41.5168 31.5 43.0168 23.5 46.0168C15.5 49.0168 8 55.5168 6 57.5168C4 59.5168 3 61.0168 3 64.0168C3 66.1605 3.41189 67.28 4.5 68.4165M41.5192 41.5168C40.9273 42.1087 39.4459 47.2556 38.1321 53.0168M41.5192 41.5168L54.5 29.0724M41.5192 41.5168C41.5192 41.5168 34 35.0724 34.5 24.5724C34.7439 19.4505 37.4862 16.5891 40.2315 15.0017C42.9698 13.4182 45.7609 16.0762 46.5108 19.1492C46.7408 20.0916 47.0598 21.082 47.5 22.0724C49.5 26.5724 54.5 29.0724 54.5 29.0724M35.5 85.0169C36.4807 93.0169 45 101.517 49.5 104.017M35.5 85.0169L35.483 84.878M35.5 85.0169C35.4943 84.9704 35.4886 84.9241 35.483 84.878M49.5 104.017C54 106.517 54.5 107.017 64.5 109.017C74.5 111.017 81.5192 109.517 84.5 109.017M49.5 104.017C49.5 104.017 42 94.5169 42.5 87.5169C43 80.5169 49.5 75.0169 54.5 72.5169C59.5 70.0169 67 69.0169 74 69.0169C81 69.0169 88 70.5169 94 74.0169C100 77.5169 103 79.5169 104.5 87.5169C106 95.5169 96.5 103.017 93.5 105.017C90.5 107.017 84.5 109.017 84.5 109.017M84.5 109.017C84.9251 108.946 85.5238 108.854 86.2554 108.742C90.654 108.069 99.8556 106.66 105 104.517C106.174 104.028 107.177 103.653 108.082 103.315C111.805 101.925 113.889 101.147 119.519 95.5169C125.831 89.2055 126.045 86.5523 126.379 82.4266C126.415 81.9764 126.453 81.5087 126.5 81.0168C126.769 78.2166 126.749 75.5732 126.5 72.8232M123 54.0168C123 54.0168 124.5 60.5168 125.519 66.0168C125.968 68.4366 126.304 70.6628 126.5 72.8232M123 54.0168C123 54.0168 146.5 63.5724 149.5 66.0724M123 54.0168L119.519 41.5168M149.5 66.0724C152.5 68.5724 152.065 71.0168 154 71.0168C156.481 71.0168 158.038 69.0168 157.519 64.5168C157 60.0168 155.038 57.0168 148.519 53.0168C142 49.0168 138.519 47.5168 132.019 45.0168C125.519 42.5168 119.519 41.5168 119.519 41.5168M149.5 66.0724C149.5 66.0724 145.217 66.0539 141 66.0168C136.448 65.9768 133.507 68.1399 130 70.5724C129 71.266 126.5 72.8232 126.5 72.8232M119.519 41.5168C110.5 45.0168 99.5 30.0724 99 28.5724M119.519 41.5168C119.519 41.5168 126.5 36.0724 124 24.5724C122.832 19.1989 119.917 16.1179 117.143 14.3602C114.343 12.5862 111.449 15.3844 110.862 18.6466C110.611 20.0455 110.188 21.5589 109.5 23.0724C107 28.5724 99 28.5724 99 28.5724M35.0192 71.5168C34.4245 76.245 34.7855 79.1888 35.483 84.878M35.0192 71.5168C35.1247 70.6781 35.2824 69.6041 35.4484 68.473C35.6446 67.136 35.8526 65.7192 36 64.5168C36.4002 61.2523 37.2263 56.9886 38.1321 53.0168M35.0192 71.5168C35.0192 71.5168 31.4446 72.2926 27.5 72.9799C26.4623 73.1607 21.7722 74 19 74C14.7732 74 14.0592 74.0405 10 72.2618C8.89558 71.7779 7.88284 71.1955 7 70.5168C5.92535 69.6906 5.10734 69.0509 4.5 68.4165M38.1321 53.0168C38.1321 53.0168 31.5 57.5168 27 58.5168C22.5 59.5169 18 61.0168 14 62.5168C10 64.0168 8.79577 65.3315 4.5 68.4165M54.5 29.0724L62 26.0724M62 26.0724C62 26.0724 54.5 25.4136 54.5 19.4136C54.5 13.4135 70 11.4135 71.5 14.4135C73 17.4135 69 8.91353 73 4.41353C77 -0.0864769 83.4838 7.13515 86.5 12.4135C88.5 15.9135 86.5 22.0724 86.5 22.0724C86.5 22.0724 94 23.5724 96.5 26.0724C99 28.5723 98.5 27.0723 99 28.5724M62 26.0724C62 26.0724 68 25.0723 67.5 26.0724C67 27.0724 59.5 32.2312 64 38.0723C68.5 43.9135 77 33.4135 73 30.4135" stroke="black" stroke-width="5"/>
<path d="M105 39.0001C105 39.0001 99.9997 38.5724 96.4998 39.5724C92.9999 40.5724 88.9999 43.5001 86.4999 48.5001C83.9999 53.5001 84.9998 57.5724 86.9998 63.0724C88.9999 68.5724 96 70.5 96 70.5C96 70.5 104.5 77.5 107 79.5C109.5 81.5 110.5 83 114.5 82.5001C118.5 82.0001 124.5 79.0001 124.5 79.0001C124.5 79.0001 124.652 74.0724 124.5 72.0001C124.347 69.9277 122.473 59.9463 121 55.0724C118 45.1448 118 44.5001 118 44.5001C118 44.5001 114.5 44.5001 111 43.0001C107.5 41.5001 105 39.0001 105 39.0001Z" fill="url(#paint6_linear_300_26)"/>
<ellipse cx="98.5" cy="59.0168" rx="5.5" ry="7.5" fill="#0B0000"/>
<ellipse cx="98.5" cy="59.0168" rx="5.5" ry="7.5" fill="#0B0000"/>
<ellipse cx="98.5" cy="59.0168" rx="5.5" ry="7.5" fill="#0B0000"/>
<ellipse cx="55.5" cy="59.0168" rx="5.5" ry="7.5" fill="#0B0000"/>
<ellipse cx="55.5" cy="59.0168" rx="5.5" ry="7.5" fill="#0B0000"/>
<ellipse cx="55.5" cy="59.0168" rx="5.5" ry="7.5" fill="#0B0000"/>
<ellipse cx="80.5172" cy="86.5362" rx="4.48276" ry="6.46381" fill="black"/>
<ellipse cx="63.4828" cy="86.5362" rx="4.48276" ry="6.46381" fill="black"/>
<path d="M139.5 67.0723C139.5 67.0723 138.5 69.5723 138 71.0723C137.5 72.5723 137 76.0723 141 76.0723C145 76.0723 144 72.5723 143.5 71.0723C143 69.5723 142 67.0723 142 67.0723C142 67.0723 145.5 67.0723 147 68.0723C148.5 69.0723 150.5 71.5723 150.5 76.0723C150.5 80.5723 147 83.0723 145.5 84.0723C144 85.0723 141 85.0723 141 85.0723C141 85.0723 138 85.0723 136 84.0723C134 83.0723 131 80.0723 131 76.0723C131 72.0723 133 69.0723 134.5 68.0723C136 67.0723 139.5 67.0723 139.5 67.0723Z" fill="#FED722" stroke="#0B0000" stroke-width="3"/>
<path d="M105.999 52.0033L95.0001 46" stroke="black" stroke-width="5" stroke-linecap="round"/>
<path d="M47 52.0033L57.9985 46" stroke="black" stroke-width="5" stroke-linecap="round"/>
<defs>
<linearGradient id="paint0_linear_300_26" x1="171.947" y1="117.366" x2="158.122" y2="137.744" gradientUnits="userSpaceOnUse">
<stop stop-color="#F8AE21"/>
<stop offset="1" stop-color="#E52D14"/>
</linearGradient>
<linearGradient id="paint1_linear_300_26" x1="100" y1="129.5" x2="117" y2="127.5" gradientUnits="userSpaceOnUse">
<stop stop-color="#F8AE21"/>
<stop offset="1" stop-color="#E52D14"/>
</linearGradient>
<linearGradient id="paint2_linear_300_26" x1="66" y1="142.5" x2="48" y2="149" gradientUnits="userSpaceOnUse">
<stop stop-color="#F8AE21"/>
<stop offset="1" stop-color="#E52D14"/>
</linearGradient>
<linearGradient id="paint3_linear_300_26" x1="61" y1="84" x2="89.5" y2="105.5" gradientUnits="userSpaceOnUse">
<stop stop-color="#F8AE21"/>
<stop offset="1" stop-color="#E52D14"/>
</linearGradient>
<linearGradient id="paint4_linear_300_26" x1="7" y1="68.5" x2="39.1103" y2="59.0803" gradientUnits="userSpaceOnUse">
<stop stop-color="#F8AE21"/>
<stop offset="1" stop-color="#E52D14"/>
</linearGradient>
<linearGradient id="paint5_linear_300_26" x1="158" y1="66.5" x2="124" y2="57" gradientUnits="userSpaceOnUse">
<stop stop-color="#F8AE21"/>
<stop offset="1" stop-color="#E52D14"/>
</linearGradient>
<linearGradient id="paint6_linear_300_26" x1="90" y1="61" x2="125" y2="65" gradientUnits="userSpaceOnUse">
<stop stop-color="#F8AE21"/>
<stop offset="1" stop-color="#E52D14"/>
</linearGradient>
</defs>
</svg>
