<svg width="176" height="160" viewBox="0 0 176 160" fill="none" xmlns="http://www.w3.org/2000/svg">
<path d="M158.201 129.335C158.201 129.335 161.547 129.557 163.421 128.337C165.295 127.117 166.916 126.328 168.254 123.055C169.592 119.783 169.74 117.551 168.489 112.762C167.238 107.973 165.512 106.962 163.429 104.583C161.346 102.204 158.936 101.372 158.936 101.372C158.936 101.372 158.535 104.034 157.703 106.444C156.871 108.854 155.607 111.011 154.849 112.305C154.091 113.599 151.472 109.168 151.472 109.168C151.472 109.168 148.439 114.345 149.943 118.702C151.446 123.06 155.002 126.882 155.002 126.882L158.201 129.335Z" fill="url(#paint0_linear_207_496)"/>
<path d="M158.201 129.335C158.201 129.335 161.547 129.557 163.421 128.337C165.295 127.117 166.916 126.328 168.254 123.055C169.592 119.783 169.74 117.551 168.489 112.762C167.238 107.973 165.512 106.962 163.429 104.583C161.346 102.204 158.936 101.372 158.936 101.372C158.936 101.372 158.535 104.034 157.703 106.444C156.871 108.854 155.607 111.011 154.849 112.305C154.091 113.599 151.472 109.168 151.472 109.168C151.472 109.168 148.439 114.345 149.943 118.702C151.446 123.06 155.002 126.882 155.002 126.882L158.201 129.335ZM158.201 129.335C158.201 129.335 159.286 126.494 159.255 123.578C159.225 120.663 157.141 118.284 157.141 118.284" stroke="black" stroke-width="3"/>
<path d="M137.528 136.927C137.528 136.927 143.894 138.918 145.947 138.382C146.91 138.13 149.461 136.964 151.568 134.721C153.675 132.479 155.538 128.934 155.538 128.934L159.242 130.525C159.242 130.525 159.02 133.871 156.493 138.186C153.965 142.5 152.954 144.226 149.891 146.487C146.827 148.749 141.428 149.063 139.45 148.483C137.471 147.904 133.589 145.629 133.589 145.629L136.116 141.315L137.528 136.927Z" fill="#FEF3E4" stroke="black" stroke-width="3"/>
<path d="M15.0815 142.944C14.0815 151.444 22.5814 155.944 24.5815 156.444C26.5815 156.944 30.0815 157.444 30.0815 157.444C30.0815 157.444 30.5814 149.444 30.0815 143.944C29.5815 138.444 26.5815 132.944 26.5815 132.944C26.5815 132.944 16.0815 134.444 15.0815 142.944Z" fill="#523F45"/>
<path d="M128.081 140.444C127.581 137.944 125.581 135.944 122.581 135.944C118.231 135.944 113.778 138.783 111.581 142.444C110.081 144.944 109.581 148.444 110.081 151.444C110.581 154.444 113.581 157.444 113.581 157.444H121.581C121.581 157.444 127.581 151.444 128.081 149.444C128.581 147.444 128.581 142.944 128.081 140.444Z" fill="#523F45"/>
<path d="M84.5815 111.944H68.5815C68.5815 111.944 65.5815 112.944 64.5815 116.944C63.5815 120.944 65.5815 125.944 65.5815 125.944C68.7612 129.442 70.3313 131.444 75.5815 131.444C81.6213 131.444 84.6242 128.03 88.0815 123.944C88.0815 123.944 89.0815 119.944 88.0815 116.944C87.0815 113.944 84.5815 111.944 84.5815 111.944Z" fill="#FED722"/>
<path d="M129.081 157.444C129.081 157.444 136.081 150.944 136.581 147.944C137.081 144.944 137.081 139.944 136.081 137.944C135.081 135.944 132.581 134.444 131.581 131.944C130.581 129.444 127.081 114.944 126.081 111.944C125.081 108.944 119.081 97.9445 119.081 97.9445C119.081 97.9445 115.581 100.944 109.581 104.444C103.581 107.944 94.0815 109.944 94.0815 109.944L84.5815 111.944C84.5815 111.944 87.0815 113.944 88.0815 116.944C89.0815 119.944 88.0815 123.944 88.0815 123.944L85.0815 134.944L83.0815 144.444C83.0815 144.444 86.5815 145.944 91.0815 146.444C95.5815 146.944 101.581 147.444 101.581 147.444C101.581 147.444 100.081 151.444 99.0815 153.444C98.0815 155.444 96.0815 157.444 96.0815 157.444H113.581C113.581 157.444 110.581 154.444 110.081 151.444C109.581 148.444 110.081 144.944 111.581 142.444C113.778 138.783 118.231 135.944 122.581 135.944C125.581 135.944 127.581 137.944 128.081 140.444C128.581 142.944 128.581 147.444 128.081 149.444C127.581 151.444 121.581 157.444 121.581 157.444H129.081Z" fill="#FEF3E4"/>
<path d="M47.5815 107.444C47.5815 107.444 45.5815 114.944 45.5814 119.944C45.5814 124.944 46.2911 130.944 46.2911 130.944L47.5815 138.444L49.7579 147.444C49.7579 147.444 54.0815 147.944 58.0815 147.444C62.0815 146.944 67.5815 144.444 67.5815 144.444L66.5815 134.944L65.5815 125.944C65.5815 125.944 63.5815 120.944 64.5815 116.944C65.5815 112.944 68.5815 111.944 68.5815 111.944C68.5815 111.944 61.0815 110.944 57.5815 110.444C54.0815 109.944 47.5815 107.444 47.5815 107.444Z" fill="#FEF3E4"/>
<path d="M52.5815 157.444L51.0815 152.444L49.7579 147.444L47.5815 138.444L46.2911 130.944L26.5815 132.944C26.5815 132.944 29.5815 138.444 30.0815 143.944C30.5814 149.444 30.0815 157.444 30.0815 157.444H52.5815Z" fill="#FEF3E4"/>
<path d="M81.5815 157.444C81.5815 156.244 82.2481 148.278 83.0815 144.444L85.0815 134.944L88.0815 123.944C84.6242 128.03 81.6213 131.444 75.5815 131.444C70.3313 131.444 68.7612 129.442 65.5815 125.944L66.5815 134.944L67.5815 144.444C67.5815 144.444 68.0815 147.944 68.5815 150.944C69.0815 153.944 69.5815 157.444 69.5815 157.444H81.5815Z" fill="#FEF3E4"/>
<path d="M83.0815 144.444C82.2481 148.278 81.5815 156.244 81.5815 157.444H96.0815C96.0815 157.444 98.0815 155.444 99.0815 153.444C100.081 151.444 101.581 147.444 101.581 147.444C101.581 147.444 95.5815 146.944 91.0815 146.444C86.5815 145.944 83.0815 144.444 83.0815 144.444Z" fill="#523F45"/>
<path d="M51.0815 152.444L52.5815 157.444H69.5815C69.5815 157.444 69.0815 153.944 68.5815 150.944C68.0815 147.944 67.5815 144.444 67.5815 144.444C67.5815 144.444 62.0815 146.944 58.0815 147.444C54.0815 147.944 49.7579 147.444 49.7579 147.444L51.0815 152.444Z" fill="#523F45"/>
<path d="M52.5815 157.444L51.0815 152.444L49.7579 147.444M52.5815 157.444H30.0815M52.5815 157.444H69.5815M26.5815 132.944C26.5815 132.944 16.0815 134.444 15.0815 142.944C14.0815 151.444 22.5814 155.944 24.5815 156.444C26.5815 156.944 30.0815 157.444 30.0815 157.444M26.5815 132.944L46.2911 130.944M26.5815 132.944C26.5815 132.944 29.5815 138.444 30.0815 143.944C30.5814 149.444 30.0815 157.444 30.0815 157.444M46.2911 130.944C46.2911 130.944 45.5814 124.944 45.5814 119.944C45.5815 114.944 47.5815 107.444 47.5815 107.444C47.5815 107.444 54.0815 109.944 57.5815 110.444C61.0815 110.944 68.5815 111.944 68.5815 111.944M46.2911 130.944L47.5815 138.444L49.7579 147.444M84.5815 111.944L94.0815 109.944C94.0815 109.944 103.581 107.944 109.581 104.444C115.581 100.944 119.081 97.9445 119.081 97.9445C119.081 97.9445 125.081 108.944 126.081 111.944C127.081 114.944 130.581 129.444 131.581 131.944C132.581 134.444 135.081 135.944 136.081 137.944C137.081 139.944 137.081 144.944 136.581 147.944C136.081 150.944 129.081 157.444 129.081 157.444H121.581M84.5815 111.944H68.5815M84.5815 111.944C84.5815 111.944 87.0815 113.944 88.0815 116.944C89.0815 119.944 88.0815 123.944 88.0815 123.944M68.5815 111.944C68.5815 111.944 65.5815 112.944 64.5815 116.944C63.5815 120.944 65.5815 125.944 65.5815 125.944M65.5815 125.944L66.5815 134.944L67.5815 144.444M65.5815 125.944C68.7612 129.442 70.3313 131.444 75.5815 131.444C81.6213 131.444 84.6242 128.03 88.0815 123.944M88.0815 123.944L85.0815 134.944L83.0815 144.444M81.5815 157.444C81.5815 156.244 82.2481 148.278 83.0815 144.444M81.5815 157.444H96.0815M81.5815 157.444H69.5815M83.0815 144.444C83.0815 144.444 86.5815 145.944 91.0815 146.444C95.5815 146.944 101.581 147.444 101.581 147.444M101.581 147.444C101.581 147.444 100.081 151.444 99.0815 153.444C98.0815 155.444 96.0815 157.444 96.0815 157.444M101.581 147.444C101.581 147.444 103.081 144.444 104.581 139.444C106.081 134.444 107.081 128.944 107.081 128.944M96.0815 157.444H113.581M121.581 157.444C121.581 157.444 127.581 151.444 128.081 149.444C128.581 147.444 128.581 142.944 128.081 140.444C127.581 137.944 125.581 135.944 122.581 135.944C118.231 135.944 113.778 138.783 111.581 142.444C110.081 144.944 109.581 148.444 110.081 151.444C110.581 154.444 113.581 157.444 113.581 157.444M121.581 157.444H113.581M49.7579 147.444C49.7579 147.444 54.0815 147.944 58.0815 147.444C62.0815 146.944 67.5815 144.444 67.5815 144.444M67.5815 144.444C67.5815 144.444 68.0815 147.944 68.5815 150.944C69.0815 153.944 69.5815 157.444 69.5815 157.444" stroke="#040000" stroke-width="5"/>
<path d="M119.5 103.944C119.5 103.944 114.392 106.943 114.258 111.942C114.123 116.94 115.569 118.979 118.028 120.546C120.486 122.113 126 120.944 126 120.944L125 116.944L123.5 111.942L119.5 103.944Z" fill="url(#paint1_linear_207_496)"/>
<path d="M49.5 104.017C54 106.517 54.5 107.017 64.5 109.017C74.5 111.017 81.5192 109.517 84.5 109.017C84.5 109.017 90.5 107.017 93.5 105.017C96.5 103.017 106 95.5169 104.5 87.5169C103 79.5169 100 77.5169 94 74.0169C88 70.5169 81 69.0169 74 69.0169C67 69.0169 59.5 70.0169 54.5 72.5169C49.5 75.0169 43 80.5169 42.5 87.5169C42 94.5169 49.5 104.017 49.5 104.017Z" fill="url(#paint2_linear_207_496)"/>
<path d="M41.5192 41.5168C41.5192 41.5168 31.5 43.0168 23.5 46.0168C15.5 49.0168 8 55.5168 6 57.5168C4 59.5168 3 61.0168 3 64.0168C3 66.1605 3.41189 67.28 4.5 68.4165C8.79577 65.3315 10 64.0168 14 62.5168C18 61.0168 22.5 59.5169 27 58.5168C31.5 57.5168 38.1321 53.0168 38.1321 53.0168C39.4459 47.2556 40.9273 42.1087 41.5192 41.5168Z" fill="#FEF3E4"/>
<path d="M7 70.5168C7.88284 71.1955 8.89558 71.7779 10 72.2618C10.8312 72.6261 16.0128 74.5 18.5 74.5C21.8474 74.5 25.7906 73.2777 27.5 72.9799C31.4446 72.2926 35.0192 71.5168 35.0192 71.5168C35.1247 70.6781 35.2824 69.6041 35.4484 68.473C35.6446 67.136 35.8526 65.7192 36 64.5168C36.4002 61.2523 37.2263 56.9886 38.1321 53.0168C38.1321 53.0168 31.5 57.5168 27 58.5168C22.5 59.5169 18 61.0168 14 62.5168C10 64.0168 8.79577 65.3315 4.5 68.4165C5.10734 69.0509 5.92535 69.6906 7 70.5168Z" fill="url(#paint3_linear_207_496)"/>
<path d="M123 54.0168C123 54.0168 146.5 63.5724 149.5 66.0724C152.5 68.5724 152.065 71.0168 154 71.0168C156.481 71.0168 158.038 69.0168 157.519 64.5168C157 60.0168 155.038 57.0168 148.519 53.0168C142 49.0168 138.519 47.5168 132.019 45.0168C125.519 42.5168 119.519 41.5168 119.519 41.5168L123 54.0168Z" fill="#FEF3E4"/>
<path d="M123 54.0168C123 54.0168 124.5 60.5168 125.519 66.0168C125.968 68.4366 126.304 70.6628 126.5 72.8232C126.5 72.8232 129 71.266 130 70.5724C133.507 68.1399 136.448 65.9768 141 66.0168C145.217 66.0539 149.5 66.0724 149.5 66.0724C146.5 63.5724 123 54.0168 123 54.0168Z" fill="url(#paint4_linear_207_496)"/>
<path d="M35.5 85.0169C36.4807 93.0169 45 101.517 49.5 104.017C49.5 104.017 42 94.5169 42.5 87.5169C43 80.5169 49.5 75.0169 54.5 72.5169C59.5 70.0169 67 69.0169 74 69.0169C81 69.0169 88 70.5169 94 74.0169C100 77.5169 103 79.5169 104.5 87.5169C106 95.5169 96.5 103.017 93.5 105.017C90.5 107.017 84.5 109.017 84.5 109.017C84.9251 108.946 85.5238 108.854 86.2554 108.742C90.654 108.069 99.8556 106.66 105 104.517C106.174 104.028 107.177 103.653 108.082 103.315C111.805 101.925 113.889 101.147 119.519 95.5169C125.831 89.2055 126.045 86.5523 126.379 82.4266C126.415 81.9764 126.453 81.5087 126.5 81.0168C126.769 78.2166 126.749 75.5732 126.5 72.8232C126.304 70.6628 125.968 68.4366 125.519 66.0168C124.5 60.5168 123 54.0168 123 54.0168L119.519 41.5168C110.5 45.0168 99.5 30.0724 99 28.5724C98.5 27.0723 99 28.5723 96.5 26.0724C94 23.5724 86.5 22.0724 86.5 22.0724C86.5 22.0724 88.5 15.9135 86.5 12.4135C83.4838 7.13515 77 -0.0864768 73 4.41353C69 8.91353 73 17.4135 71.5 14.4135C70 11.4135 54.5 13.4135 54.5 19.4136C54.5 25.4136 62 26.0724 62 26.0724L54.5 29.0724L41.5192 41.5168C40.9273 42.1087 39.4459 47.2556 38.1321 53.0168C37.2263 56.9886 36.4002 61.2523 36 64.5168C35.8526 65.7192 35.6446 67.136 35.4484 68.473C35.2824 69.6041 35.1247 70.6781 35.0192 71.5168C34.4245 76.245 34.7855 79.1888 35.483 84.878L35.5 85.0169Z" fill="#FEF3E4"/>
<path d="M99 28.5724C99.5 30.0724 110.5 45.0168 119.519 41.5168C119.519 41.5168 126.5 36.0724 124 24.5724C122.832 19.1989 119.917 16.1179 117.143 14.3602C114.343 12.5862 111.449 15.3844 110.862 18.6466C110.611 20.0455 110.188 21.5589 109.5 23.0724C107 28.5724 99 28.5724 99 28.5724Z" fill="#FED722"/>
<path d="M41.5192 41.5168L54.5 29.0724C54.5 29.0724 49.5 26.5724 47.5 22.0724C47.0598 21.082 46.7408 20.0916 46.5108 19.1492C45.7609 16.0762 42.9698 13.4182 40.2315 15.0017C37.4862 16.5891 34.7439 19.4505 34.5 24.5724C34 35.0724 41.5192 41.5168 41.5192 41.5168Z" fill="#FED722"/>
<path d="M41.5192 41.5168C41.5192 41.5168 31.5 43.0168 23.5 46.0168C15.5 49.0168 8 55.5168 6 57.5168C4 59.5168 3 61.0168 3 64.0168C3 66.1605 3.41189 67.28 4.5 68.4165M41.5192 41.5168C40.9273 42.1087 39.4459 47.2556 38.1321 53.0168M41.5192 41.5168L54.5 29.0724M41.5192 41.5168C41.5192 41.5168 34 35.0724 34.5 24.5724C34.7439 19.4505 37.4862 16.5891 40.2315 15.0017C42.9698 13.4182 45.7609 16.0762 46.5108 19.1492C46.7408 20.0916 47.0598 21.082 47.5 22.0724C49.5 26.5724 54.5 29.0724 54.5 29.0724M35.5 85.0169C36.4807 93.0169 45 101.517 49.5 104.017M35.5 85.0169L35.483 84.878M35.5 85.0169C35.4943 84.9704 35.4886 84.9241 35.483 84.878M49.5 104.017C54 106.517 54.5 107.017 64.5 109.017C74.5 111.017 81.5192 109.517 84.5 109.017M49.5 104.017C49.5 104.017 42 94.5169 42.5 87.5169C43 80.5169 49.5 75.0169 54.5 72.5169C59.5 70.0169 67 69.0169 74 69.0169C81 69.0169 88 70.5169 94 74.0169C100 77.5169 103 79.5169 104.5 87.5169C106 95.5169 96.5 103.017 93.5 105.017C90.5 107.017 84.5 109.017 84.5 109.017M84.5 109.017C84.9251 108.946 85.5238 108.854 86.2554 108.742C90.654 108.069 99.8556 106.66 105 104.517C106.174 104.028 107.177 103.653 108.082 103.315C111.805 101.925 113.889 101.147 119.519 95.5169C125.831 89.2055 126.045 86.5523 126.379 82.4266C126.415 81.9764 126.453 81.5087 126.5 81.0168C126.769 78.2166 126.749 75.5732 126.5 72.8232M123 54.0168C123 54.0168 124.5 60.5168 125.519 66.0168C125.968 68.4366 126.304 70.6628 126.5 72.8232M123 54.0168C123 54.0168 146.5 63.5724 149.5 66.0724M123 54.0168L119.519 41.5168M149.5 66.0724C152.5 68.5724 152.065 71.0168 154 71.0168C156.481 71.0168 158.038 69.0168 157.519 64.5168C157 60.0168 155.038 57.0168 148.519 53.0168C142 49.0168 138.519 47.5168 132.019 45.0168C125.519 42.5168 119.519 41.5168 119.519 41.5168M149.5 66.0724C149.5 66.0724 145.217 66.0539 141 66.0168C136.448 65.9768 133.507 68.1399 130 70.5724C129 71.266 126.5 72.8232 126.5 72.8232M119.519 41.5168C110.5 45.0168 99.5 30.0724 99 28.5724M119.519 41.5168C119.519 41.5168 126.5 36.0724 124 24.5724C122.832 19.1989 119.917 16.1179 117.143 14.3602C114.343 12.5862 111.449 15.3844 110.862 18.6466C110.611 20.0455 110.188 21.5589 109.5 23.0724C107 28.5724 99 28.5724 99 28.5724M35.0192 71.5168C34.4245 76.245 34.7855 79.1888 35.483 84.878M35.0192 71.5168C35.1247 70.6781 35.2824 69.6041 35.4484 68.473C35.6446 67.136 35.8526 65.7192 36 64.5168C36.4002 61.2523 37.2263 56.9886 38.1321 53.0168M35.0192 71.5168C35.0192 71.5168 31.4446 72.2926 27.5 72.9799C25.7906 73.2777 21.8474 74.5 18.5 74.5C16.0128 74.5 10.8312 72.6261 10 72.2618C8.89558 71.7779 7.88284 71.1955 7 70.5168C5.92535 69.6906 5.10734 69.0509 4.5 68.4165M38.1321 53.0168C38.1321 53.0168 31.5 57.5168 27 58.5168C22.5 59.5169 18 61.0168 14 62.5168C10 64.0168 8.79577 65.3315 4.5 68.4165M54.5 29.0724L62 26.0724M62 26.0724C62 26.0724 54.5 25.4136 54.5 19.4136C54.5 13.4135 70 11.4135 71.5 14.4135C73 17.4135 69 8.91353 73 4.41353C77 -0.0864769 83.4838 7.13515 86.5 12.4135C88.5 15.9135 86.5 22.0724 86.5 22.0724C86.5 22.0724 94 23.5724 96.5 26.0724C99 28.5723 98.5 27.0723 99 28.5724M62 26.0724C62 26.0724 68 25.0723 67.5 26.0724C67 27.0724 59.5 32.2312 64 38.0723C68.5 43.9135 77 33.4135 73 30.4135" stroke="black" stroke-width="5"/>
<path d="M104.983 39.0909C104.983 39.0909 99.9829 38.6632 96.483 39.6632C92.9831 40.6632 88.9831 43.5909 86.4831 48.5909C83.9831 53.5909 84.9829 57.6632 86.983 63.1632C88.983 68.6632 96.483 70.5 96.483 70.5C96.483 70.5 104 77.0909 106.5 79.0909C109 81.0909 110.483 83.0909 114.483 82.5909C118.483 82.0909 124.483 79.0909 124.483 79.0909C124.483 79.0909 124.636 74.1632 124.483 72.0909C124.33 70.0185 122.456 60.0371 120.983 55.1632C117.983 45.2356 117.983 44.5909 117.983 44.5909C117.983 44.5909 114.483 44.5909 110.983 43.0909C107.483 41.5909 104.983 39.0909 104.983 39.0909Z" fill="url(#paint5_linear_207_496)"/>
<path d="M106 63C102.5 59.5 95.5 60 95.5 60M95.5 60C95.5 60 99 56 103.5 54.5M95.5 60L93.5 62.5" stroke="black" stroke-width="3.5" stroke-linecap="round"/>
<ellipse cx="55.5" cy="59.0168" rx="5.5" ry="7.5" fill="#0B0000"/>
<ellipse cx="55.5" cy="59.0168" rx="5.5" ry="7.5" fill="#0B0000"/>
<ellipse cx="55.5" cy="59.0168" rx="5.5" ry="7.5" fill="#0B0000"/>
<ellipse cx="80.5172" cy="86.5362" rx="4.48276" ry="6.46381" fill="black"/>
<ellipse cx="63.4828" cy="86.5362" rx="4.48276" ry="6.46381" fill="black"/>
<path d="M139.5 67.0724C139.5 67.0724 138.5 69.5724 138 71.0724C137.5 72.5724 137 76.0724 141 76.0724C145 76.0724 144 72.5724 143.5 71.0724C143 69.5724 142 67.0724 142 67.0724C142 67.0724 145.5 67.0724 147 68.0724C148.5 69.0724 150.5 71.5724 150.5 76.0724C150.5 80.5724 147 83.0724 145.5 84.0724C144 85.0724 141 85.0724 141 85.0724C141 85.0724 138 85.0724 136 84.0724C134 83.0724 131 80.0724 131 76.0724C131 72.0724 133 69.0724 134.5 68.0724C136 67.0724 139.5 67.0724 139.5 67.0724Z" fill="#FED722" stroke="#0B0000" stroke-width="3"/>
<defs>
<linearGradient id="paint0_linear_207_496" x1="166.175" y1="105.467" x2="160" y2="132" gradientUnits="userSpaceOnUse">
<stop stop-color="#F8AE21"/>
<stop offset="1" stop-color="#E52D14"/>
</linearGradient>
<linearGradient id="paint1_linear_207_496" x1="115.5" y1="114.5" x2="126" y2="111.5" gradientUnits="userSpaceOnUse">
<stop stop-color="#F8AE21"/>
<stop offset="1" stop-color="#E52D14"/>
</linearGradient>
<linearGradient id="paint2_linear_207_496" x1="73.5" y1="85.5" x2="86" y2="113.5" gradientUnits="userSpaceOnUse">
<stop stop-color="#F8AE21"/>
<stop offset="1" stop-color="#E52D14"/>
</linearGradient>
<linearGradient id="paint3_linear_207_496" x1="7" y1="68.5" x2="38.1607" y2="66.0188" gradientUnits="userSpaceOnUse">
<stop stop-color="#F8AE21"/>
<stop offset="1" stop-color="#E52D14"/>
</linearGradient>
<linearGradient id="paint4_linear_207_496" x1="144" y1="62" x2="124" y2="66" gradientUnits="userSpaceOnUse">
<stop stop-color="#F8AE21"/>
<stop offset="1" stop-color="#E52D14"/>
</linearGradient>
<linearGradient id="paint5_linear_207_496" x1="90.4831" y1="67.0908" x2="121.983" y2="55.0908" gradientUnits="userSpaceOnUse">
<stop stop-color="#F8AE21"/>
<stop offset="1" stop-color="#E52D14"/>
</linearGradient>
</defs>
</svg>
