<svg width="180" height="180" viewBox="0 0 180 180" fill="none" xmlns="http://www.w3.org/2000/svg">
    <g clip-path="url(#clip0_434_22)">
        <path d="M162.587 143.024C162.587 143.024 165.823 143.904 167.901 143.078C169.98 142.253 171.725 141.801 173.683 138.857C175.642 135.914 176.229 133.756 175.95 128.814C175.672 123.872 174.18 122.54 172.609 119.796C171.038 117.051 168.84 115.759 168.84 115.759C168.84 115.759 167.92 118.289 166.628 120.487C165.335 122.684 163.67 124.549 162.67 125.668C161.671 126.786 159.981 121.924 159.981 121.924C159.981 121.924 155.984 126.399 156.595 130.968C157.207 135.537 159.937 139.986 159.937 139.986L162.587 143.024Z"
              fill="url(#paint0_linear_434_22)"/>
        <path d="M162.587 143.024C162.587 143.024 165.823 143.904 167.901 143.078C169.98 142.253 171.725 141.801 173.683 138.857C175.642 135.914 176.229 133.756 175.95 128.814C175.672 123.872 174.18 122.54 172.609 119.796C171.038 117.051 168.84 115.759 168.84 115.759C168.84 115.759 167.92 118.289 166.628 120.487C165.335 122.684 163.67 124.549 162.67 125.668C161.671 126.786 159.981 121.924 159.981 121.924C159.981 121.924 155.984 126.399 156.595 130.968C157.207 135.537 159.937 139.986 159.937 139.986L162.587 143.024ZM162.587 143.024C162.587 143.024 164.212 140.453 164.759 137.59C165.306 134.726 163.735 131.982 163.735 131.982"
              stroke="black" stroke-width="3"/>
        <path d="M140.82 146.376C140.82 146.376 146.667 149.587 148.785 149.468C149.78 149.412 152.511 148.773 155.02 146.992C157.529 145.21 160.056 142.104 160.056 142.104L163.372 144.396C163.372 144.396 162.492 147.633 159.161 151.362C155.83 155.091 154.498 156.582 151.048 158.193C147.597 159.804 142.243 159.044 140.418 158.084C138.593 157.125 135.237 154.127 135.237 154.127L138.568 150.398L140.82 146.376Z"
              fill="#FEF3E4" stroke="black" stroke-width="3"/>
        <path d="M19.0815 150.944C18.0815 159.444 26.5814 163.944 28.5815 164.444C30.5815 164.944 34.0815 165.444 34.0815 165.444C34.0815 165.444 34.5814 157.444 34.0815 151.944C33.5815 146.444 30.5815 140.944 30.5815 140.944C30.5815 140.944 20.0815 142.444 19.0815 150.944Z"
              fill="#523F45"/>
        <path d="M132.081 148.444C131.581 145.944 129.581 143.944 126.581 143.944C122.231 143.944 117.778 146.783 115.581 150.444C114.081 152.944 113.581 156.444 114.081 159.444C114.581 162.444 117.581 165.444 117.581 165.444H125.581C125.581 165.444 131.581 159.444 132.081 157.444C132.581 155.444 132.581 150.944 132.081 148.444Z"
              fill="#523F45"/>
        <path d="M88.5815 119.944H72.5815C72.5815 119.944 69.5815 120.944 68.5815 124.944C67.5815 128.944 69.5815 133.944 69.5815 133.944C72.7612 137.442 74.3313 139.444 79.5815 139.444C85.6213 139.444 88.6242 136.03 92.0815 131.944C92.0815 131.944 93.0815 127.944 92.0815 124.944C91.0815 121.944 88.5815 119.944 88.5815 119.944Z"
              fill="#FD8A0B"/>
        <path d="M133.081 165.444C133.081 165.444 140.081 158.944 140.581 155.944C141.081 152.944 141.081 147.944 140.081 145.944C139.081 143.944 136.581 142.444 135.581 139.944C134.581 137.444 131.081 122.944 130.081 119.944C129.081 116.944 123.081 105.944 123.081 105.944C123.081 105.944 119.581 108.944 113.581 112.444C107.581 115.944 98.0815 117.944 98.0815 117.944L88.5815 119.944C88.5815 119.944 91.0815 121.944 92.0815 124.944C93.0815 127.944 92.0815 131.944 92.0815 131.944L89.0815 142.944L87.0815 152.444C87.0815 152.444 90.5815 153.944 95.0815 154.444C99.5815 154.944 105.581 155.444 105.581 155.444C105.581 155.444 104.081 159.444 103.081 161.444C102.081 163.444 100.081 165.444 100.081 165.444H117.581C117.581 165.444 114.581 162.444 114.081 159.444C113.581 156.444 114.081 152.944 115.581 150.444C117.778 146.783 122.231 143.944 126.581 143.944C129.581 143.944 131.581 145.944 132.081 148.444C132.581 150.944 132.581 155.444 132.081 157.444C131.581 159.444 125.581 165.444 125.581 165.444H133.081Z"
              fill="#FEF3E4"/>
        <path d="M51.5815 115.444C51.5815 115.444 49.5815 122.944 49.5814 127.944C49.5814 132.944 50.2911 138.944 50.2911 138.944L51.5815 146.444L53.7579 155.444C53.7579 155.444 58.0815 155.944 62.0815 155.444C66.0815 154.944 71.5815 152.444 71.5815 152.444L70.5815 142.944L69.5815 133.944C69.5815 133.944 67.5815 128.944 68.5815 124.944C69.5815 120.944 72.5815 119.944 72.5815 119.944C72.5815 119.944 65.0815 118.944 61.5815 118.444C58.0815 117.944 51.5815 115.444 51.5815 115.444Z"
              fill="#FEF3E4"/>
        <path d="M56.5815 165.444L55.0815 160.444L53.7579 155.444L51.5815 146.444L50.2911 138.944L30.5815 140.944C30.5815 140.944 33.5815 146.444 34.0815 151.944C34.5814 157.444 34.0815 165.444 34.0815 165.444H56.5815Z"
              fill="#FEF3E4"/>
        <path d="M85.5815 165.444C85.5815 164.244 86.2481 156.278 87.0815 152.444L89.0815 142.944L92.0815 131.944C88.6242 136.03 85.6213 139.444 79.5815 139.444C74.3313 139.444 72.7612 137.442 69.5815 133.944L70.5815 142.944L71.5815 152.444C71.5815 152.444 72.0815 155.944 72.5815 158.944C73.0815 161.944 73.5815 165.444 73.5815 165.444H85.5815Z"
              fill="#FEF3E4"/>
        <path d="M87.0815 152.444C86.2481 156.278 85.5815 164.244 85.5815 165.444H100.081C100.081 165.444 102.081 163.444 103.081 161.444C104.081 159.444 105.581 155.444 105.581 155.444C105.581 155.444 99.5815 154.944 95.0815 154.444C90.5815 153.944 87.0815 152.444 87.0815 152.444Z"
              fill="#523F45"/>
        <path d="M55.0815 160.444L56.5815 165.444H73.5815C73.5815 165.444 73.0815 161.944 72.5815 158.944C72.0815 155.944 71.5815 152.444 71.5815 152.444C71.5815 152.444 66.0815 154.944 62.0815 155.444C58.0815 155.944 53.7579 155.444 53.7579 155.444L55.0815 160.444Z"
              fill="#523F45"/>
        <path d="M56.5815 165.444L55.0815 160.444L53.7579 155.444M56.5815 165.444H34.0815M56.5815 165.444H73.5815M30.5815 140.944C30.5815 140.944 20.0815 142.444 19.0815 150.944C18.0815 159.444 26.5814 163.944 28.5815 164.444C30.5815 164.944 34.0815 165.444 34.0815 165.444M30.5815 140.944L50.2911 138.944M30.5815 140.944C30.5815 140.944 33.5815 146.444 34.0815 151.944C34.5814 157.444 34.0815 165.444 34.0815 165.444M50.2911 138.944C50.2911 138.944 49.5814 132.944 49.5814 127.944C49.5815 122.944 51.5815 115.444 51.5815 115.444C51.5815 115.444 58.0815 117.944 61.5815 118.444C65.0815 118.944 72.5815 119.944 72.5815 119.944M50.2911 138.944L51.5815 146.444L53.7579 155.444M88.5815 119.944L98.0815 117.944C98.0815 117.944 107.581 115.944 113.581 112.444C119.581 108.944 123.081 105.944 123.081 105.944C123.081 105.944 129.081 116.944 130.081 119.944C131.081 122.944 134.581 137.444 135.581 139.944C136.581 142.444 139.081 143.944 140.081 145.944C141.081 147.944 141.081 152.944 140.581 155.944C140.081 158.944 133.081 165.444 133.081 165.444H125.581M88.5815 119.944H72.5815M88.5815 119.944C88.5815 119.944 91.0815 121.944 92.0815 124.944C93.0815 127.944 92.0815 131.944 92.0815 131.944M72.5815 119.944C72.5815 119.944 69.5815 120.944 68.5815 124.944C67.5815 128.944 69.5815 133.944 69.5815 133.944M69.5815 133.944L70.5815 142.944L71.5815 152.444M69.5815 133.944C72.7612 137.442 74.3313 139.444 79.5815 139.444C85.6213 139.444 88.6242 136.03 92.0815 131.944M92.0815 131.944L89.0815 142.944L87.0815 152.444M85.5815 165.444C85.5815 164.244 86.2481 156.278 87.0815 152.444M85.5815 165.444H100.081M85.5815 165.444H73.5815M87.0815 152.444C87.0815 152.444 90.5815 153.944 95.0815 154.444C99.5815 154.944 105.581 155.444 105.581 155.444M105.581 155.444C105.581 155.444 104.081 159.444 103.081 161.444C102.081 163.444 100.081 165.444 100.081 165.444M105.581 155.444C105.581 155.444 107.081 152.444 108.581 147.444C110.081 142.444 111.081 136.944 111.081 136.944M100.081 165.444H117.581M125.581 165.444C125.581 165.444 131.581 159.444 132.081 157.444C132.581 155.444 132.581 150.944 132.081 148.444C131.581 145.944 129.581 143.944 126.581 143.944C122.231 143.944 117.778 146.783 115.581 150.444C114.081 152.944 113.581 156.444 114.081 159.444C114.581 162.444 117.581 165.444 117.581 165.444M125.581 165.444H117.581M53.7579 155.444C53.7579 155.444 58.0815 155.944 62.0815 155.444C66.0815 154.944 71.5815 152.444 71.5815 152.444M71.5815 152.444C71.5815 152.444 72.0815 155.944 72.5815 158.944C73.0815 161.944 73.5815 165.444 73.5815 165.444"
              stroke="black" stroke-width="5"/>
        <path d="M123.5 111.944C123.5 111.944 118.392 114.943 118.258 119.942C118.123 124.94 119.569 126.979 122.028 128.546C124.486 130.113 130 128.944 130 128.944L129 124.944L127.5 119.942L123.5 111.944Z"
              fill="url(#paint1_linear_434_22)"/>
        <path d="M55.5 115.017C60 117.517 60.5 118.017 70.5 120.017C80.5 122.017 87.5192 120.517 90.5 120.017C90.5 120.017 96.5 118.017 99.5 116.017C102.5 114.017 112 106.517 110.5 98.5169C109 90.5169 106 88.5169 100 85.0169C94 81.5169 87 80.0169 80 80.0169C73 80.0169 65.5 81.0169 60.5 83.5169C55.5 86.0169 49 91.5169 48.5 98.5169C48 105.517 55.5 115.017 55.5 115.017Z"
              fill="url(#paint2_linear_434_22)"/>
        <path d="M13 81.5168C13.8828 82.1955 14.8956 82.7779 16 83.2618C16.8312 83.6261 23.0128 85 25.5 85C28.8474 85 31.7906 84.2777 33.5 83.9799C37.4446 83.2926 41.0192 82.5168 41.0192 82.5168C41.1247 81.6781 41.2824 80.6041 41.4484 79.473C41.6446 78.136 41.8526 76.7192 42 75.5168C42.4002 72.2523 43.2263 67.9886 44.1321 64.0168C44.1321 64.0168 37.5 68.5168 33 69.5168C28.5 70.5169 24 72.0168 20 73.5168C16 75.0168 14.7958 76.3315 10.5 79.4165C11.1073 80.0509 11.9254 80.6906 13 81.5168Z"
              fill="url(#paint3_linear_434_22)"/>
        <path d="M129 65.0168C129 65.0168 152.5 74.5724 155.5 77.0724C158.5 79.5724 158.065 82.0168 160 82.0168C162.481 82.0168 164.038 80.0168 163.519 75.5168C163 71.0168 161.038 68.0168 154.519 64.0168C148 60.0168 144.519 58.5168 138.019 56.0168C131.519 53.5168 125.519 52.5168 125.519 52.5168L129 65.0168Z"
              fill="#FEF3E4"/>
        <path d="M129 65.0168C129 65.0168 130.5 71.5168 131.519 77.0168C131.968 79.4366 132.304 81.6628 132.5 83.8232C132.5 83.8232 135 82.266 136 81.5724C139.507 79.1399 142.448 76.9768 147 77.0168C151.217 77.0539 155.5 77.0724 155.5 77.0724C152.5 74.5724 129 65.0168 129 65.0168Z"
              fill="url(#paint4_linear_434_22)"/>
        <path d="M41.5 96.0169C42.4807 104.017 51 112.517 55.5 115.017C55.5 115.017 48 105.517 48.5 98.5169C49 91.5169 55.5 86.0169 60.5 83.5169C65.5 81.0169 73 80.0169 80 80.0169C87 80.0169 94 81.5169 100 85.0169C106 88.5169 109 90.5169 110.5 98.5169C112 106.517 102.5 114.017 99.5 116.017C96.5 118.017 90.5 120.017 90.5 120.017C90.9251 119.946 91.5238 119.854 92.2554 119.742C96.654 119.069 105.856 117.66 111 115.517C112.174 115.028 113.177 114.653 114.082 114.315C117.805 112.925 119.889 112.147 125.519 106.517C131.831 100.206 132.045 97.5523 132.379 93.4266C132.415 92.9764 132.453 92.5087 132.5 92.0168C132.769 89.2166 132.749 86.5732 132.5 83.8232C132.304 81.6628 131.968 79.4366 131.519 77.0168C130.5 71.5168 129 65.0168 129 65.0168L125.519 52.5168C116.5 56.0168 105.5 41.0724 105 39.5724C104.5 38.0723 105 39.5723 102.5 37.0724C100 34.5724 92.5 33.0724 92.5 33.0724C92.5 33.0724 94.5 26.9135 92.5 23.4135C89.4838 18.1352 83 10.9135 79 15.4135C75 19.9135 79 28.4135 77.5 25.4135C76 22.4135 60.5 24.4135 60.5 30.4136C60.5 36.4136 68 37.0724 68 37.0724L60.5 40.0724L47.5192 52.5168C46.9273 53.1087 45.4459 58.2556 44.1321 64.0168C43.2263 67.9886 42.4002 72.2523 42 75.5168C41.8526 76.7192 41.6446 78.136 41.4484 79.473C41.2824 80.6041 41.1247 81.6781 41.0192 82.5168C40.4245 87.245 40.7855 90.1888 41.483 95.878L41.5 96.0169Z"
              fill="#FEF3E4"/>
        <path d="M105 39.5724C105.5 41.0724 116.5 56.0168 125.519 52.5168C125.519 52.5168 132.5 47.0724 130 35.5724C128.832 30.1989 125.917 27.1179 123.143 25.3602C120.343 23.5862 117.449 26.3844 116.862 29.6466C116.611 31.0455 116.188 32.5589 115.5 34.0724C113 39.5724 105 39.5724 105 39.5724Z"
              fill="#FED722"/>
        <path d="M47.5192 52.5168L60.5 40.0724C60.5 40.0724 55.5 37.5724 53.5 33.0724C53.0598 32.082 52.7408 31.0916 52.5108 30.1492C51.7609 27.0762 48.9698 24.4182 46.2315 26.0017C43.4862 27.5891 40.7439 30.4505 40.5 35.5724C40 46.0724 47.5192 52.5168 47.5192 52.5168Z"
              fill="#FED722"/>
        <path d="M47.5192 52.5168C47.5192 52.5168 37.5 54.0168 29.5 57.0168C21.5 60.0168 14 66.5168 12 68.5168C10 70.5168 9 72.0168 9 75.0168C9 77.1605 9.41189 78.28 10.5 79.4165C14.7958 76.3315 16 75.0168 20 73.5168C24 72.0168 28.5 70.5169 33 69.5168C37.5 68.5168 44.1321 64.0168 44.1321 64.0168C45.4459 58.2556 46.9273 53.1087 47.5192 52.5168Z"
              fill="#FEF3E4"/>
        <path d="M47.5192 52.5168C47.5192 52.5168 37.5 54.0168 29.5 57.0168C21.5 60.0168 14 66.5168 12 68.5168C10 70.5168 9 72.0168 9 75.0168C9 77.1605 9.41189 78.28 10.5 79.4165M47.5192 52.5168C46.9273 53.1087 45.4459 58.2556 44.1321 64.0168M47.5192 52.5168L60.5 40.0724M47.5192 52.5168C47.5192 52.5168 40 46.0724 40.5 35.5724C40.7439 30.4505 43.4862 27.5891 46.2315 26.0017C48.9698 24.4182 51.7609 27.0762 52.5108 30.1492C52.7408 31.0916 53.0598 32.082 53.5 33.0724C55.5 37.5724 60.5 40.0724 60.5 40.0724M41.5 96.0169C42.4807 104.017 51 112.517 55.5 115.017M41.5 96.0169L41.483 95.878M41.5 96.0169C41.4943 95.9704 41.4886 95.9241 41.483 95.878M55.5 115.017C60 117.517 60.5 118.017 70.5 120.017C80.5 122.017 87.5192 120.517 90.5 120.017M55.5 115.017C55.5 115.017 48 105.517 48.5 98.5169C49 91.5169 55.5 86.0169 60.5 83.5169C65.5 81.0169 73 80.0169 80 80.0169C87 80.0169 94 81.5169 100 85.0169C106 88.5169 109 90.5169 110.5 98.5169C112 106.517 102.5 114.017 99.5 116.017C96.5 118.017 90.5 120.017 90.5 120.017M90.5 120.017C90.9251 119.946 91.5238 119.854 92.2554 119.742C96.654 119.069 105.856 117.66 111 115.517C112.174 115.028 113.177 114.653 114.082 114.315C117.805 112.925 119.889 112.147 125.519 106.517C131.831 100.206 132.045 97.5523 132.379 93.4266C132.415 92.9764 132.453 92.5087 132.5 92.0168C132.769 89.2166 132.749 86.5732 132.5 83.8232M129 65.0168C129 65.0168 130.5 71.5168 131.519 77.0168C131.968 79.4366 132.304 81.6628 132.5 83.8232M129 65.0168C129 65.0168 152.5 74.5724 155.5 77.0724M129 65.0168L125.519 52.5168M155.5 77.0724C158.5 79.5724 158.065 82.0168 160 82.0168C162.481 82.0168 164.038 80.0168 163.519 75.5168C163 71.0168 161.038 68.0168 154.519 64.0168C148 60.0168 144.519 58.5168 138.019 56.0168C131.519 53.5168 125.519 52.5168 125.519 52.5168M155.5 77.0724C155.5 77.0724 151.217 77.0539 147 77.0168C142.448 76.9768 139.507 79.1399 136 81.5724C135 82.266 132.5 83.8232 132.5 83.8232M125.519 52.5168C116.5 56.0168 105.5 41.0724 105 39.5724M125.519 52.5168C125.519 52.5168 132.5 47.0724 130 35.5724C128.832 30.1989 125.917 27.1179 123.143 25.3602C120.343 23.5862 117.449 26.3844 116.862 29.6466C116.611 31.0455 116.188 32.5589 115.5 34.0724C113 39.5724 105 39.5724 105 39.5724M41.0192 82.5168C40.4245 87.245 40.7855 90.1888 41.483 95.878M41.0192 82.5168C41.1247 81.6781 41.2824 80.6041 41.4484 79.473C41.6446 78.136 41.8526 76.7192 42 75.5168C42.4002 72.2523 43.2263 67.9886 44.1321 64.0168M41.0192 82.5168C41.0192 82.5168 37.4446 83.2926 33.5 83.9799C31.7906 84.2777 28.8474 85 25.5 85C23.0128 85 16.8312 83.6261 16 83.2618C14.8956 82.7779 13.8828 82.1955 13 81.5168C11.9254 80.6906 11.1073 80.0509 10.5 79.4165M44.1321 64.0168C44.1321 64.0168 37.5 68.5168 33 69.5168C28.5 70.5169 24 72.0168 20 73.5168C16 75.0168 14.7958 76.3315 10.5 79.4165M60.5 40.0724L68 37.0724M68 37.0724C68 37.0724 60.5 36.4136 60.5 30.4136C60.5 24.4135 76 22.4135 77.5 25.4135C79 28.4135 75 19.9135 79 15.4135C83 10.9135 89.4838 18.1352 92.5 23.4135C94.5 26.9135 92.5 33.0724 92.5 33.0724C92.5 33.0724 100 34.5724 102.5 37.0724C105 39.5723 104.5 38.0723 105 39.5724M68 37.0724C68 37.0724 74 36.0723 73.5 37.0724C73 38.0724 65.5 43.2312 70 49.0723C74.5 54.9135 83 44.4135 79 41.4135"
              stroke="black" stroke-width="5"/>
        <path d="M110.983 50.0909C110.983 50.0909 105.983 49.6632 102.483 50.6632C98.9831 51.6632 94.9831 54.5909 92.4831 59.5909C89.9831 64.5909 90.9829 68.6632 92.983 74.1632C94.983 79.6632 102.483 81.5 102.483 81.5C102.483 81.5 110 88.0909 112.5 90.0909C115 92.0909 116.483 94.0909 120.483 93.5909C124.483 93.0909 130.483 90.0909 130.483 90.0909C130.483 90.0909 130.636 85.1632 130.483 83.0909C130.33 81.0185 128.456 71.0371 126.983 66.1632C123.983 56.2356 123.983 55.5909 123.983 55.5909C123.983 55.5909 120.483 55.5909 116.983 54.0909C113.483 52.5909 110.983 50.0909 110.983 50.0909Z"
              fill="url(#paint5_linear_434_22)"/>
        <ellipse cx="104.5" cy="70.0168" rx="5.5" ry="7.5" fill="black"/>
        <ellipse cx="104.5" cy="70.0168" rx="5.5" ry="7.5" fill="black"/>
        <ellipse cx="104.5" cy="70.0168" rx="5.5" ry="7.5" fill="black"/>
        <ellipse cx="61.5" cy="70.0168" rx="5.5" ry="7.5" fill="black"/>
        <ellipse cx="61.5" cy="70.0168" rx="5.5" ry="7.5" fill="black"/>
        <ellipse cx="61.5" cy="70.0168" rx="5.5" ry="7.5" fill="black"/>
        <path d="M145.5 78.0724C145.5 78.0724 144.5 80.5724 144 82.0724C143.5 83.5724 143 87.0724 147 87.0724C151 87.0724 150 83.5724 149.5 82.0724C149 80.5724 148 78.0724 148 78.0724C148 78.0724 151.5 78.0724 153 79.0724C154.5 80.0724 156.5 82.5724 156.5 87.0724C156.5 91.5724 153 94.0724 151.5 95.0724C150 96.0724 147 96.0724 147 96.0724C147 96.0724 144 96.0724 142 95.0724C140 94.0724 137 91.0724 137 87.0724C137 83.0724 139 80.0724 140.5 79.0724C142 78.0724 145.5 78.0724 145.5 78.0724Z"
              fill="#FED722" stroke="black" stroke-width="3"/>
        <ellipse cx="87.3448" cy="94.0724" rx="4.65517" ry="3" fill="black"/>
        <ellipse cx="69.6552" cy="94.0724" rx="4.65517" ry="3" fill="black"/>
    </g>
    <defs>
        <linearGradient id="paint0_linear_434_22" x1="175.126" y1="121.206" x2="162.5" y2="142"
                        gradientUnits="userSpaceOnUse">
            <stop stop-color="#F8AE21"/>
            <stop offset="1" stop-color="#E52D14"/>
        </linearGradient>
        <linearGradient id="paint1_linear_434_22" x1="119.5" y1="122.5" x2="131.5" y2="121"
                        gradientUnits="userSpaceOnUse">
            <stop stop-color="#F8AE21"/>
            <stop offset="1" stop-color="#E52D14"/>
        </linearGradient>
        <linearGradient id="paint2_linear_434_22" x1="71" y1="97.5" x2="97.5" y2="121" gradientUnits="userSpaceOnUse">
            <stop stop-color="#F8AE21"/>
            <stop offset="1" stop-color="#E52D14"/>
        </linearGradient>
        <linearGradient id="paint3_linear_434_22" x1="12" y1="78.5" x2="43.1285" y2="76.5167"
                        gradientUnits="userSpaceOnUse">
            <stop stop-color="#F8AE21"/>
            <stop offset="1" stop-color="#E52D14"/>
        </linearGradient>
        <linearGradient id="paint4_linear_434_22" x1="147" y1="73.5" x2="131" y2="74.5" gradientUnits="userSpaceOnUse">
            <stop stop-color="#F8AE21"/>
            <stop offset="1" stop-color="#E52D14"/>
        </linearGradient>
        <linearGradient id="paint5_linear_434_22" x1="96.4831" y1="78.0908" x2="127.983" y2="66.0908"
                        gradientUnits="userSpaceOnUse">
            <stop stop-color="#F8AE21"/>
            <stop offset="1" stop-color="#E52D14"/>
        </linearGradient>
        <clipPath id="clip0_434_22">
            <rect width="180" height="180" rx="2" fill="white"/>
        </clipPath>
    </defs>
</svg>
