<svg width="180" height="180" viewBox="0 0 180 180" fill="none" xmlns="http://www.w3.org/2000/svg">
    <path d="M152.5 128.625C152.5 128.625 149.5 127.125 148.5 125.125C147.5 123.125 146.5 121.625 147 118.125C147.5 114.625 148.5 112.625 152 109.125C155.5 105.625 157.5 105.625 160.5 104.625C163.5 103.625 166 104.125 166 104.125C166 104.125 165 106.625 164.5 109.125C164 111.625 164 114.125 164 115.625C164 117.125 168.5 114.625 168.5 114.625C168.5 114.625 168.5 120.625 165 123.625C161.5 126.625 156.5 128.125 156.5 128.125L152.5 128.625Z"
          fill="url(#paint0_linear_434_21)"/>
    <path d="M152.5 128.625C152.5 128.625 149.5 127.125 148.5 125.125C147.5 123.125 146.5 121.625 147 118.125C147.5 114.625 148.5 112.625 152 109.125C155.5 105.625 157.5 105.625 160.5 104.625C163.5 103.625 166 104.125 166 104.125C166 104.125 165 106.625 164.5 109.125C164 111.625 164 114.125 164 115.625C164 117.125 168.5 114.625 168.5 114.625C168.5 114.625 168.5 120.625 165 123.625C161.5 126.625 156.5 128.125 156.5 128.125L152.5 128.625ZM152.5 128.625C152.5 128.625 153 125.625 154.5 123.125C156 120.625 159 119.625 159 119.625"
          stroke="black" stroke-width="3"/>
    <path d="M141 144.625C141 144.625 147.5 143.125 149 141.625C149.704 140.921 151.315 138.625 152 135.625C152.685 132.625 152.5 128.625 152.5 128.625L156.5 128.125C156.5 128.125 158 131.125 158 136.125C158 141.125 158 143.125 156.5 146.625C155 150.125 150.5 153.125 148.5 153.625C146.5 154.125 142 154.125 142 154.125V149.125L141 144.625Z"
          fill="#FEF3E4" stroke="black" stroke-width="3"/>
    <path d="M19.0817 150.944C18.0817 159.444 26.5817 163.944 28.5817 164.444C30.5817 164.944 34.0817 165.444 34.0817 165.444C34.0817 165.444 34.5817 157.444 34.0817 151.944C33.5817 146.444 30.5817 140.944 30.5817 140.944C30.5817 140.944 20.0817 142.444 19.0817 150.944Z"
          fill="#523F45"/>
    <path d="M132.082 148.444C131.582 145.944 129.582 143.944 126.582 143.944C122.231 143.944 117.778 146.783 115.582 150.444C114.082 152.944 113.582 156.444 114.082 159.444C114.582 162.444 117.582 165.444 117.582 165.444H125.582C125.582 165.444 131.582 159.444 132.082 157.444C132.582 155.444 132.582 150.944 132.082 148.444Z"
          fill="#523F45"/>
    <path d="M88.5817 119.944H72.5817C72.5817 119.944 69.5817 120.944 68.5817 124.944C67.5817 128.944 69.5817 133.944 69.5817 133.944C72.7614 137.442 74.3315 139.444 79.5817 139.444C85.6215 139.444 88.6244 136.03 92.0817 131.944C92.0817 131.944 93.0817 127.944 92.0817 124.944C91.0817 121.944 88.5817 119.944 88.5817 119.944Z"
          fill="#FED722"/>
    <path d="M133.082 165.444C133.082 165.444 140.082 158.944 140.582 155.944C141.082 152.944 141.082 147.944 140.082 145.944C139.082 143.944 136.582 142.444 135.582 139.944C134.582 137.444 131.082 122.944 130.082 119.944C129.082 116.944 123.082 105.944 123.082 105.944C123.082 105.944 119.582 108.944 113.582 112.444C107.582 115.944 98.0817 117.944 98.0817 117.944L88.5817 119.944C88.5817 119.944 91.0817 121.944 92.0817 124.944C93.0817 127.944 92.0817 131.944 92.0817 131.944L89.0817 142.944L87.0817 152.444C87.0817 152.444 90.5817 153.944 95.0817 154.444C99.5817 154.944 105.582 155.444 105.582 155.444C105.582 155.444 104.082 159.444 103.082 161.444C102.082 163.444 100.082 165.444 100.082 165.444H117.582C117.582 165.444 114.582 162.444 114.082 159.444C113.582 156.444 114.082 152.944 115.582 150.444C117.778 146.783 122.231 143.944 126.582 143.944C129.582 143.944 131.582 145.944 132.082 148.444C132.582 150.944 132.582 155.444 132.082 157.444C131.582 159.444 125.582 165.444 125.582 165.444H133.082Z"
          fill="#FEF3E4"/>
    <path d="M87.0817 152.444C86.2483 156.278 85.5817 164.244 85.5817 165.444H100.082C100.082 165.444 102.082 163.444 103.082 161.444C104.082 159.444 105.582 155.444 105.582 155.444C105.582 155.444 99.5817 154.944 95.0817 154.444C90.5817 153.944 87.0817 152.444 87.0817 152.444Z"
          fill="#523F45"/>
    <path d="M28.5817 114C28.5817 114 29.0817 104.5 24.5817 104.5C20.0817 104.5 20.0817 110.5 20.0817 110.5C20.0817 110.5 10.5 108.5 10.5 119.944C10.5 131.389 20 127 24.5 129.5C24.5 129.5 28 124.556 28 122.5C28 120.444 28.5817 114 28.5817 114Z"
          fill="#523F45"/>
    <path d="M30.5817 140.944C30.5817 140.944 33.5817 146.444 34.0817 151.944C34.5817 157.444 34.0817 165.444 34.0817 165.444H56.5817H73.5817H85.5817C85.5817 164.244 86.2483 156.278 87.0817 152.444L89.0817 142.944L92.0817 131.944C88.6244 136.03 85.6215 139.444 79.5817 139.444C74.3315 139.444 72.7614 137.442 69.5817 133.944C69.5817 133.944 67.5817 128.944 68.5817 124.944C69.5817 120.944 72.5817 119.944 72.5817 119.944C72.5817 119.944 65.0817 118.944 61.5817 118.444C58.0817 117.944 48.5 111.5 48.5 111.5C48.5 111.5 43 116 40.5 117C38 118 28.5817 114 28.5817 114C28.5817 114 28 120.444 28 122.5C28 124.556 24.5 129.5 24.5 129.5C30.4464 131.812 36.3147 133.954 42.5 135.5L44 140L30.5817 140.944Z"
          fill="#FEF3E4"/>
    <path d="M48.5 111.5L49.8952 109.426L48.3542 108.389L46.9169 109.565L48.5 111.5ZM30.5817 140.944L30.4062 138.451L30.3168 138.457L30.2282 138.47L30.5817 140.944ZM34.0817 165.444L33.7282 167.919L33.904 167.944H34.0817V165.444ZM133.082 165.444V167.944H134.063L134.783 167.276L133.082 165.444ZM123.082 105.944L125.276 104.747L123.798 102.037L121.455 104.046L123.082 105.944ZM69.5817 133.944L67.2605 134.873L67.4282 135.292L67.7319 135.626L69.5817 133.944ZM92.0817 131.944L94.4936 132.602L94.5006 132.577L94.507 132.551L92.0817 131.944ZM115.582 150.444L113.438 149.158L115.582 150.444ZM24.5 129.5L23.2859 131.685L23.435 131.768L23.5939 131.83L24.5 129.5ZM89.0817 142.944L86.6698 142.287L86.6504 142.357L86.6353 142.429L89.0817 142.944ZM48.4285 135.821C49.7105 135.308 50.334 133.853 49.8212 132.571C49.3083 131.289 47.8534 130.666 46.5715 131.179L48.4285 135.821ZM44 140L44.1755 142.494L47.3911 142.267L46.3717 139.209L44 140ZM20.0817 110.5L19.5709 112.947L22.5817 113.576V110.5H20.0817ZM29.1881 162.019C28.6815 161.892 26.4457 160.898 24.4745 158.927C22.5807 157.033 21.1806 154.5 21.5646 151.237L16.5988 150.652C15.9828 155.889 18.3327 159.856 20.9389 162.462C23.4677 164.991 26.482 166.496 27.9754 166.87L29.1881 162.019ZM21.5646 151.237C21.9294 148.136 23.9948 146.211 26.3648 144.972C27.5383 144.359 28.7038 143.964 29.5848 143.723C30.0214 143.604 30.378 143.525 30.6173 143.477C30.7367 143.453 30.8261 143.438 30.8809 143.428C30.9082 143.424 30.9268 143.421 30.9361 143.419C30.9408 143.418 30.9431 143.418 30.9429 143.418C30.9429 143.418 30.9422 143.418 30.9409 143.418C30.9403 143.419 30.9395 143.419 30.9386 143.419C30.9381 143.419 30.9373 143.419 30.937 143.419C30.9362 143.419 30.9353 143.419 30.5817 140.944C30.2282 138.47 30.2272 138.47 30.2262 138.47C30.2258 138.47 30.2247 138.47 30.2239 138.47C30.2223 138.47 30.2206 138.471 30.2187 138.471C30.2148 138.471 30.2104 138.472 30.2053 138.473C30.195 138.474 30.1823 138.476 30.167 138.479C30.1365 138.483 30.096 138.49 30.0462 138.498C29.9467 138.515 29.8096 138.54 29.6399 138.574C29.3011 138.641 28.8295 138.746 28.2661 138.9C27.1471 139.206 25.6251 139.717 24.0486 140.541C20.9186 142.177 17.234 145.253 16.5988 150.652L21.5646 151.237ZM30.5817 140.944C28.387 142.142 28.3868 142.141 28.3866 142.141C28.3866 142.141 28.3864 142.14 28.3863 142.14C28.3861 142.14 28.386 142.14 28.3859 142.14C28.3857 142.139 28.3857 142.139 28.3859 142.139C28.3862 142.14 28.3872 142.142 28.389 142.145C28.3924 142.152 28.3986 142.163 28.4073 142.18C28.4248 142.213 28.4525 142.265 28.4892 142.336C28.5625 142.479 28.6712 142.694 28.8049 142.973C29.0728 143.53 29.4381 144.333 29.8182 145.298C30.5895 147.256 31.3725 149.756 31.592 152.171L36.5714 151.718C36.291 148.633 35.324 145.633 34.4702 143.466C34.0379 142.368 33.6218 141.452 33.3116 140.807C33.1563 140.484 33.0267 140.227 32.934 140.047C32.8877 139.957 32.8504 139.886 32.8237 139.835C32.8104 139.81 32.7997 139.79 32.7917 139.775C32.7877 139.768 32.7845 139.762 32.7819 139.757C32.7807 139.755 32.7796 139.753 32.7786 139.751C32.7782 139.75 32.7778 139.75 32.7774 139.749C32.7772 139.749 32.777 139.748 32.7769 139.748C32.7767 139.748 32.7765 139.747 30.5817 140.944ZM56.5817 162.944H34.0817V167.944H56.5817V162.944ZM34.0817 165.444C34.4353 162.97 34.4353 162.97 34.4354 162.97C34.4354 162.97 34.4354 162.97 34.4354 162.97C34.4354 162.97 34.4353 162.97 34.4352 162.97C34.435 162.97 34.4345 162.969 34.4339 162.969C34.4326 162.969 34.4305 162.969 34.4275 162.968C34.4217 162.968 34.4125 162.966 34.4003 162.965C34.3759 162.961 34.3391 162.956 34.2912 162.949C34.1952 162.934 34.0548 162.914 33.8797 162.887C33.529 162.834 33.041 162.757 32.4927 162.666C31.3744 162.48 30.0839 162.243 29.1881 162.019L27.9754 166.87C29.0795 167.146 30.5391 167.409 31.6707 167.598C32.2475 167.694 32.7594 167.774 33.1275 167.83C33.3117 167.858 33.4604 167.88 33.5637 167.895C33.6153 167.903 33.6557 167.909 33.6835 167.913C33.6974 167.915 33.7082 167.916 33.7157 167.918C33.7194 167.918 33.7224 167.918 33.7244 167.919C33.7255 167.919 33.7263 167.919 33.7269 167.919C33.7272 167.919 33.7275 167.919 33.7277 167.919C33.7278 167.919 33.7279 167.919 33.728 167.919C33.7281 167.919 33.7282 167.919 34.0817 165.444ZM31.592 152.171C31.8287 154.775 31.8318 158.035 31.7699 160.699C31.7392 162.019 31.6931 163.171 31.6547 163.992C31.6356 164.402 31.6184 164.729 31.606 164.952C31.5999 165.063 31.5949 165.149 31.5916 165.206C31.5899 165.234 31.5886 165.256 31.5877 165.27C31.5873 165.276 31.587 165.282 31.5868 165.285C31.5867 165.286 31.5866 165.287 31.5866 165.288C31.5866 165.288 31.5866 165.289 31.5866 165.289C31.5866 165.289 31.5866 165.289 31.5866 165.289C31.5866 165.289 31.5866 165.288 34.0817 165.444C36.5768 165.6 36.5769 165.6 36.5769 165.6C36.5769 165.6 36.5769 165.6 36.5769 165.599C36.5769 165.599 36.577 165.599 36.577 165.598C36.5771 165.597 36.5772 165.595 36.5773 165.592C36.5776 165.588 36.578 165.581 36.5785 165.573C36.5795 165.556 36.581 165.532 36.5829 165.501C36.5866 165.438 36.5919 165.346 36.5984 165.228C36.6115 164.992 36.6294 164.651 36.6493 164.225C36.6891 163.374 36.7367 162.182 36.7685 160.815C36.8316 158.104 36.8347 154.614 36.5714 151.718L31.592 152.171ZM133.082 165.444C134.783 167.276 134.783 167.276 134.783 167.276C134.783 167.276 134.784 167.276 134.784 167.275C134.784 167.275 134.785 167.275 134.785 167.274C134.787 167.273 134.789 167.271 134.791 167.269C134.795 167.265 134.801 167.259 134.809 167.252C134.824 167.238 134.846 167.218 134.873 167.192C134.929 167.139 135.009 167.064 135.109 166.968C135.311 166.776 135.597 166.5 135.941 166.16C136.626 165.483 137.55 164.542 138.497 163.498C139.436 162.462 140.433 161.283 141.243 160.134C141.985 159.081 142.822 157.711 143.048 156.355L138.116 155.533C138.116 155.529 138.109 155.575 138.071 155.677C138.034 155.776 137.977 155.907 137.893 156.07C137.723 156.4 137.477 156.798 137.155 157.255C136.512 158.168 135.665 159.177 134.792 160.141C133.925 161.097 133.069 161.968 132.426 162.604C132.106 162.92 131.841 163.176 131.657 163.351C131.566 163.438 131.495 163.505 131.448 163.55C131.424 163.572 131.406 163.588 131.395 163.599C131.389 163.604 131.385 163.608 131.383 163.61C131.382 163.611 131.381 163.612 131.38 163.613C131.38 163.613 131.38 163.613 131.38 163.613C131.38 163.613 131.38 163.613 131.38 163.613C131.38 163.613 131.381 163.612 133.082 165.444ZM143.048 156.355C143.328 154.671 143.46 152.504 143.393 150.486C143.33 148.589 143.082 146.354 142.318 144.826L137.846 147.062C138.082 147.535 138.334 148.799 138.396 150.653C138.453 152.385 138.335 154.218 138.116 155.533L143.048 156.355ZM142.318 144.826C141.614 143.419 140.406 142.226 139.659 141.426C138.786 140.491 138.212 139.789 137.903 139.016L133.26 140.873C133.951 142.6 135.127 143.898 136.004 144.838C137.008 145.913 137.549 146.47 137.846 147.062L142.318 144.826ZM137.903 139.016C137.716 138.548 137.347 137.323 136.851 135.522C136.372 133.783 135.813 131.658 135.251 129.501C134.146 125.265 132.988 120.758 132.453 119.154L127.71 120.735C128.175 122.131 129.268 126.373 130.413 130.763C130.975 132.919 131.541 135.074 132.031 136.851C132.503 138.566 132.948 140.091 133.26 140.873L137.903 139.016ZM132.453 119.154C131.876 117.421 130.009 113.712 128.425 110.666C127.606 109.091 126.819 107.613 126.238 106.529C125.947 105.986 125.707 105.542 125.54 105.233C125.456 105.078 125.391 104.957 125.346 104.875C125.323 104.834 125.306 104.802 125.295 104.781C125.289 104.77 125.284 104.762 125.281 104.756C125.28 104.753 125.279 104.751 125.278 104.75C125.277 104.749 125.277 104.748 125.277 104.748C125.277 104.748 125.277 104.748 125.277 104.748C125.276 104.747 125.276 104.747 123.082 105.944C120.887 107.142 120.887 107.142 120.887 107.142C120.887 107.142 120.887 107.142 120.887 107.142C120.887 107.142 120.887 107.143 120.888 107.143C120.888 107.144 120.889 107.146 120.891 107.149C120.894 107.154 120.898 107.161 120.903 107.172C120.914 107.192 120.931 107.222 120.953 107.263C120.996 107.343 121.061 107.461 121.143 107.613C121.308 107.917 121.544 108.356 121.832 108.891C122.406 109.964 123.182 111.422 123.989 112.973C125.654 116.176 127.288 119.468 127.71 120.735L132.453 119.154ZM123.082 105.944C121.455 104.046 121.455 104.046 121.455 104.046C121.455 104.046 121.455 104.046 121.456 104.046C121.456 104.045 121.456 104.045 121.456 104.045C121.456 104.045 121.456 104.045 121.456 104.045C121.456 104.045 121.455 104.046 121.453 104.048C121.449 104.052 121.441 104.058 121.43 104.067C121.409 104.085 121.374 104.114 121.326 104.154C121.23 104.233 121.082 104.354 120.884 104.512C120.487 104.828 119.889 105.291 119.107 105.863C117.54 107.008 115.237 108.584 112.322 110.285L114.841 114.604C117.926 112.804 120.373 111.131 122.057 109.9C122.899 109.285 123.551 108.779 123.998 108.424C124.222 108.246 124.394 108.105 124.513 108.006C124.573 107.957 124.619 107.919 124.652 107.891C124.668 107.877 124.681 107.866 124.69 107.858C124.695 107.854 124.699 107.851 124.702 107.848C124.704 107.847 124.705 107.846 124.706 107.845C124.707 107.844 124.707 107.844 124.707 107.844C124.708 107.843 124.708 107.843 124.708 107.843C124.708 107.843 124.709 107.843 123.082 105.944ZM112.322 110.285C109.582 111.884 105.934 113.191 102.863 114.112C101.349 114.567 100.016 114.915 99.0625 115.15C98.5866 115.267 98.207 115.355 97.9491 115.413C97.8201 115.443 97.7216 115.464 97.6568 115.479C97.6244 115.486 97.6005 115.491 97.5853 115.494C97.5777 115.496 97.5723 115.497 97.5692 115.497C97.5676 115.498 97.5666 115.498 97.5662 115.498C97.566 115.498 97.5659 115.498 97.566 115.498C97.566 115.498 97.5662 115.498 97.5662 115.498C97.5664 115.498 97.5666 115.498 98.0817 117.944C98.5967 120.391 98.597 120.391 98.5973 120.391C98.5975 120.391 98.5979 120.391 98.5982 120.39C98.5989 120.39 98.5997 120.39 98.6006 120.39C98.6025 120.39 98.6049 120.389 98.608 120.388C98.614 120.387 98.6224 120.385 98.6329 120.383C98.6541 120.379 98.6842 120.372 98.7228 120.364C98.8001 120.347 98.9116 120.322 99.0541 120.29C99.3391 120.225 99.7486 120.13 100.257 120.005C101.273 119.755 102.689 119.385 104.3 118.901C107.48 117.948 111.582 116.505 114.841 114.604L112.322 110.285ZM97.5666 115.498L88.0666 117.498L89.0967 122.391L98.5967 120.391L97.5666 115.498ZM88.5817 117.444H72.5817V122.444H88.5817V117.444ZM72.5817 119.944C71.7911 117.573 71.7898 117.573 71.7885 117.574C71.7881 117.574 71.7868 117.574 71.7859 117.574C71.7841 117.575 71.7822 117.576 71.7803 117.576C71.7766 117.578 71.7726 117.579 71.7684 117.58C71.76 117.583 71.7509 117.586 71.741 117.59C71.7212 117.597 71.6984 117.605 71.6728 117.615C71.6215 117.634 71.5586 117.658 71.4855 117.689C71.3395 117.75 71.1516 117.836 70.933 117.951C70.497 118.18 69.9301 118.532 69.3297 119.046C68.1096 120.092 66.7967 121.777 66.1563 124.338L71.0071 125.551C71.3667 124.112 72.0538 123.297 72.5837 122.843C72.8583 122.607 73.1039 122.458 73.2617 122.375C73.34 122.334 73.3942 122.31 73.4162 122.301C73.4271 122.297 73.4296 122.296 73.4228 122.298C73.4193 122.3 73.4135 122.302 73.4051 122.305C73.4009 122.306 73.3961 122.308 73.3907 122.31C73.3879 122.311 73.385 122.312 73.382 122.313C73.3804 122.313 73.3789 122.314 73.3772 122.314C73.3764 122.315 73.3752 122.315 73.3748 122.315C73.3735 122.316 73.3723 122.316 72.5817 119.944ZM66.1563 124.338C65.519 126.887 65.8579 129.582 66.2622 131.468C66.4712 132.444 66.7143 133.277 66.9062 133.87C67.0025 134.168 67.0869 134.408 67.1492 134.579C67.1803 134.664 67.206 134.732 67.225 134.782C67.2344 134.806 67.2422 134.827 67.2482 134.842C67.2512 134.849 67.2537 134.856 67.2558 134.861C67.2568 134.864 67.2577 134.866 67.2585 134.868C67.2589 134.869 67.2593 134.87 67.2596 134.871C67.2598 134.871 67.26 134.872 67.2601 134.872C67.2603 134.872 67.2605 134.873 69.5817 133.944C71.9029 133.016 71.9031 133.016 71.9033 133.017C71.9033 133.017 71.9035 133.017 71.9036 133.018C71.9038 133.018 71.904 133.019 71.9042 133.019C71.9045 133.02 71.9047 133.02 71.9047 133.021C71.9049 133.021 71.9045 133.02 71.9038 133.018C71.9022 133.014 71.8989 133.006 71.894 132.993C71.8842 132.967 71.8679 132.924 71.8463 132.865C71.803 132.746 71.739 132.565 71.6634 132.331C71.5116 131.862 71.3172 131.195 71.1512 130.421C70.8055 128.807 70.6444 127.001 71.0071 125.551L66.1563 124.338ZM92.0817 131.944C94.507 132.551 94.5072 132.55 94.5073 132.55C94.5073 132.55 94.5075 132.549 94.5076 132.549C94.5078 132.548 94.508 132.547 94.5082 132.546C94.5086 132.544 94.5091 132.542 94.5097 132.54C94.5108 132.535 94.5122 132.53 94.5138 132.523C94.517 132.51 94.5211 132.493 94.5259 132.472C94.5357 132.431 94.5487 132.375 94.5641 132.305C94.595 132.165 94.6358 131.969 94.6805 131.728C94.7694 131.247 94.8755 130.576 94.9464 129.796C95.0828 128.296 95.1153 126.14 94.4534 124.154L89.71 125.735C90.0481 126.749 90.0806 128.093 89.9669 129.343C89.9128 129.938 89.8314 130.454 89.7641 130.817C89.7306 130.998 89.7012 131.138 89.6813 131.229C89.6713 131.274 89.6638 131.306 89.6594 131.325C89.6572 131.334 89.6558 131.34 89.6552 131.342C89.655 131.344 89.6549 131.344 89.6551 131.343C89.6552 131.343 89.6553 131.342 89.6555 131.341C89.6556 131.341 89.6557 131.34 89.6559 131.34C89.6559 131.34 89.6561 131.339 89.6561 131.339C89.6562 131.339 89.6563 131.338 92.0817 131.944ZM94.4534 124.154C93.8156 122.24 92.7272 120.71 91.8548 119.692C91.4109 119.174 91.0021 118.765 90.6978 118.48C90.5451 118.337 90.4172 118.223 90.3224 118.142C90.2749 118.101 90.2356 118.068 90.2055 118.043C90.1904 118.03 90.1776 118.02 90.1672 118.011C90.162 118.007 90.1574 118.004 90.1535 118C90.1515 117.999 90.1497 117.997 90.148 117.996C90.1471 117.995 90.1463 117.995 90.1456 117.994C90.1452 117.994 90.1447 117.993 90.1445 117.993C90.1439 117.993 90.1434 117.992 88.5817 119.944C87.0199 121.897 87.0194 121.896 87.0189 121.896C87.0188 121.896 87.0183 121.895 87.018 121.895C87.0174 121.895 87.0168 121.894 87.0163 121.894C87.0152 121.893 87.0143 121.892 87.0135 121.891C87.0119 121.89 87.011 121.889 87.0105 121.889C87.0097 121.888 87.011 121.889 87.0145 121.892C87.0215 121.898 87.0369 121.911 87.0597 121.931C87.1055 121.97 87.1808 122.036 87.2781 122.128C87.4738 122.311 87.7525 122.589 88.0585 122.946C88.6862 123.679 89.3477 124.648 89.71 125.735L94.4534 124.154ZM88.0817 165.444C88.0817 164.995 88.2329 162.831 88.5059 160.189C88.7761 157.574 89.14 154.745 89.5246 152.975L84.6387 151.913C84.19 153.977 83.8039 157.048 83.5324 159.675C83.2638 162.274 83.0817 164.694 83.0817 165.444H88.0817ZM87.0817 152.444C86.0969 154.742 86.0973 154.742 86.0977 154.743C86.0978 154.743 86.0983 154.743 86.0986 154.743C86.0992 154.743 86.0999 154.744 86.1006 154.744C86.1021 154.745 86.1038 154.745 86.1057 154.746C86.1095 154.748 86.1141 154.75 86.1196 154.752C86.1306 154.757 86.145 154.763 86.1628 154.77C86.1983 154.785 86.2471 154.805 86.3086 154.83C86.4317 154.879 86.6058 154.947 86.8261 155.029C87.2662 155.193 87.8929 155.413 88.6663 155.649C90.2065 156.117 92.3621 156.658 94.8056 156.929L95.3578 151.96C93.3012 151.731 91.4568 151.271 90.1221 150.865C89.458 150.663 88.9284 150.477 88.5716 150.344C88.3935 150.278 88.259 150.225 88.1731 150.19C88.1301 150.173 88.0994 150.16 88.0814 150.153C88.0724 150.149 88.0666 150.147 88.0641 150.146C88.0628 150.145 88.0624 150.145 88.0628 150.145C88.063 150.145 88.0634 150.145 88.064 150.145C88.0643 150.146 88.0647 150.146 88.0651 150.146C88.0653 150.146 88.0656 150.146 88.0657 150.146C88.0661 150.146 88.0665 150.147 87.0817 152.444ZM94.8056 156.929C97.0804 157.182 99.7249 157.434 101.793 157.622C102.828 157.716 103.723 157.794 104.359 157.849C104.677 157.877 104.93 157.898 105.104 157.913C105.191 157.92 105.258 157.926 105.304 157.93C105.327 157.932 105.344 157.933 105.356 157.934C105.362 157.935 105.366 157.935 105.369 157.935C105.371 157.936 105.372 157.936 105.373 157.936C105.373 157.936 105.373 157.936 105.374 157.936C105.374 157.936 105.374 157.936 105.374 157.936C105.374 157.936 105.374 157.936 105.582 155.444C105.789 152.953 105.789 152.953 105.789 152.953C105.789 152.953 105.789 152.953 105.789 152.953C105.789 152.953 105.789 152.953 105.788 152.953C105.788 152.953 105.787 152.953 105.785 152.953C105.783 152.952 105.778 152.952 105.773 152.952C105.762 152.951 105.745 152.949 105.722 152.947C105.678 152.944 105.612 152.938 105.526 152.931C105.355 152.916 105.104 152.895 104.789 152.868C104.159 152.813 103.272 152.736 102.246 152.642C100.188 152.455 97.5829 152.207 95.3578 151.96L94.8056 156.929ZM105.582 155.444C103.241 154.567 103.241 154.567 103.241 154.567C103.241 154.567 103.241 154.567 103.241 154.567C103.241 154.567 103.241 154.567 103.241 154.567C103.241 154.567 103.24 154.568 103.24 154.568C103.24 154.57 103.239 154.573 103.237 154.576C103.235 154.583 103.231 154.594 103.225 154.608C103.215 154.636 103.199 154.679 103.178 154.734C103.136 154.844 103.075 155.004 102.998 155.203C102.845 155.602 102.63 156.154 102.385 156.766C101.886 158.016 101.294 159.429 100.846 160.326L105.318 162.562C105.869 161.46 106.528 159.873 107.028 158.623C107.283 157.985 107.506 157.412 107.665 156.998C107.745 156.791 107.809 156.623 107.853 156.507C107.875 156.449 107.892 156.403 107.904 156.372C107.91 156.356 107.914 156.344 107.917 156.336C107.919 156.332 107.92 156.328 107.921 156.326C107.921 156.325 107.922 156.324 107.922 156.323C107.922 156.323 107.922 156.323 107.922 156.323C107.922 156.323 107.922 156.322 107.922 156.322C107.922 156.322 107.922 156.322 105.582 155.444ZM85.5817 167.944H100.082V162.944H85.5817V167.944ZM100.846 160.326C100.473 161.072 99.8646 161.9 99.2861 162.594C99.0077 162.928 98.7569 163.207 98.5778 163.4C98.4886 163.496 98.4181 163.569 98.3721 163.617C98.3491 163.641 98.3322 163.658 98.3223 163.668C98.3173 163.673 98.3141 163.676 98.3126 163.678C98.3119 163.679 98.3117 163.679 98.3119 163.679C98.312 163.679 98.3122 163.678 98.3125 163.678C98.3127 163.678 98.3129 163.678 98.3131 163.677C98.3132 163.677 98.3134 163.677 98.3135 163.677C98.3137 163.677 98.3139 163.677 100.082 165.444C101.849 167.212 101.85 167.212 101.85 167.212C101.85 167.212 101.85 167.211 101.85 167.211C101.851 167.211 101.851 167.21 101.852 167.21C101.852 167.209 101.853 167.208 101.854 167.207C101.857 167.205 101.859 167.202 101.862 167.199C101.868 167.193 101.877 167.185 101.886 167.175C101.906 167.155 101.933 167.127 101.967 167.092C102.034 167.023 102.128 166.924 102.242 166.802C102.469 166.557 102.781 166.211 103.127 165.795C103.799 164.989 104.691 163.817 105.318 162.562L100.846 160.326ZM126.582 146.444C128.274 146.444 129.34 147.486 129.63 148.935L134.533 147.954C133.823 144.403 130.889 141.444 126.582 141.444L126.582 146.444ZM129.63 148.935C129.836 149.961 129.957 151.531 129.957 153.132C129.957 154.764 129.83 156.142 129.656 156.838L134.507 158.051C134.833 156.747 134.957 154.874 134.957 153.132C134.957 151.358 134.828 149.428 134.533 147.954L129.63 148.935ZM125.582 167.944H133.082V162.944H125.582V167.944ZM129.656 156.838C129.683 156.73 129.684 156.793 129.511 157.082C129.361 157.335 129.141 157.657 128.855 158.038C128.284 158.8 127.54 159.677 126.779 160.529C126.025 161.375 125.281 162.164 124.724 162.744C124.446 163.033 124.217 163.268 124.057 163.431C123.978 163.512 123.916 163.574 123.874 163.616C123.853 163.637 123.838 163.653 123.828 163.663C123.823 163.668 123.819 163.672 123.817 163.674C123.815 163.675 123.815 163.676 123.814 163.676C123.814 163.677 123.814 163.677 123.814 163.677C123.814 163.677 123.814 163.677 123.814 163.677C123.814 163.677 123.814 163.677 125.582 165.444C127.349 167.212 127.35 167.212 127.35 167.212C127.35 167.212 127.35 167.212 127.35 167.211C127.35 167.211 127.351 167.211 127.351 167.21C127.352 167.209 127.354 167.208 127.356 167.206C127.359 167.203 127.364 167.198 127.37 167.191C127.383 167.179 127.401 167.16 127.424 167.137C127.471 167.09 127.538 167.022 127.624 166.935C127.794 166.761 128.037 166.512 128.33 166.207C128.914 165.6 129.701 164.764 130.509 163.859C131.311 162.961 132.161 161.964 132.855 161.038C133.202 160.576 133.533 160.101 133.806 159.643C134.057 159.221 134.355 158.659 134.507 158.051L129.656 156.838ZM100.082 167.944H117.582V162.944H100.082V167.944ZM117.582 167.944H125.582V162.944H117.582V167.944ZM117.582 165.444C119.349 163.677 119.35 163.677 119.35 163.677C119.35 163.677 119.351 163.678 119.351 163.678C119.351 163.678 119.351 163.679 119.352 163.679C119.352 163.68 119.353 163.68 119.353 163.68C119.354 163.681 119.353 163.681 119.353 163.68C119.351 163.678 119.346 163.674 119.34 163.666C119.326 163.652 119.302 163.628 119.269 163.593C119.204 163.524 119.105 163.416 118.981 163.276C118.732 162.994 118.395 162.589 118.046 162.106C117.302 161.076 116.701 159.956 116.548 159.033L111.616 159.855C111.962 161.932 113.111 163.813 113.992 165.033C114.456 165.675 114.9 166.208 115.229 166.581C115.395 166.769 115.533 166.919 115.634 167.026C115.685 167.08 115.726 167.122 115.756 167.154C115.771 167.169 115.784 167.182 115.794 167.192C115.798 167.197 115.803 167.201 115.806 167.204C115.808 167.206 115.809 167.207 115.81 167.209C115.811 167.209 115.812 167.21 115.812 167.211C115.813 167.211 115.813 167.211 115.813 167.211C115.814 167.212 115.814 167.212 117.582 165.444ZM116.548 159.033C116.128 156.514 116.582 153.636 117.725 151.731L113.438 149.158C111.581 152.252 111.036 156.375 111.616 159.855L116.548 159.033ZM28.5817 114C31.0783 114.131 31.0783 114.131 31.0783 114.13C31.0783 114.13 31.0784 114.129 31.0784 114.129C31.0785 114.128 31.0785 114.126 31.0786 114.125C31.0787 114.122 31.0789 114.119 31.0791 114.115C31.0795 114.107 31.0799 114.097 31.0805 114.085C31.0816 114.061 31.083 114.027 31.0845 113.985C31.0876 113.902 31.0912 113.785 31.094 113.639C31.0994 113.347 31.1015 112.938 31.0887 112.45C31.0633 111.484 30.9784 110.157 30.7279 108.797C30.485 107.479 30.0486 105.91 29.1937 104.61C28.2833 103.227 26.7714 102 24.5817 102V107C24.642 107 24.7551 106.961 25.0166 107.358C25.3336 107.84 25.6159 108.646 25.8106 109.703C25.9976 110.718 26.0689 111.766 26.0904 112.581C26.101 112.984 26.0991 113.317 26.0949 113.545C26.0927 113.659 26.09 113.746 26.0879 113.801C26.0869 113.829 26.0861 113.849 26.0855 113.86C26.0853 113.866 26.0851 113.87 26.085 113.871C26.085 113.872 26.085 113.872 26.085 113.872C26.085 113.871 26.0851 113.871 26.0851 113.87C26.0851 113.87 26.0851 113.87 26.0851 113.87C26.0851 113.869 26.0852 113.869 28.5817 114ZM28.5817 114C26.0918 113.775 26.0918 113.775 26.0918 113.775C26.0918 113.775 26.0918 113.776 26.0918 113.776C26.0918 113.776 26.0918 113.776 26.0917 113.777C26.0916 113.778 26.0915 113.779 26.0914 113.78C26.0911 113.784 26.0906 113.789 26.0901 113.795C26.0889 113.808 26.0873 113.826 26.0851 113.85C26.0808 113.899 26.0744 113.97 26.0664 114.061C26.0503 114.243 26.0274 114.505 26 114.826C25.945 115.466 25.8718 116.343 25.7984 117.285C25.6553 119.123 25.5 121.355 25.5 122.5H30.5C30.5 121.59 30.6355 119.571 30.7833 117.673C30.8554 116.748 30.9275 115.885 30.9817 115.253C31.0088 114.937 31.0313 114.679 31.047 114.501C31.0549 114.412 31.0611 114.342 31.0653 114.295C31.0674 114.272 31.069 114.254 31.07 114.242C31.0706 114.236 31.071 114.232 31.0712 114.229C31.0714 114.227 31.0715 114.226 31.0715 114.226C31.0715 114.225 31.0716 114.225 31.0716 114.225C31.0716 114.225 31.0716 114.225 31.0716 114.225C31.0716 114.225 31.0716 114.225 28.5817 114ZM25.5 122.5C25.5 122.461 25.4727 122.748 25.1614 123.462C24.8888 124.087 24.5056 124.803 24.0931 125.507C23.6853 126.203 23.2738 126.845 22.9623 127.315C22.8073 127.55 22.6788 127.739 22.5902 127.867C22.546 127.932 22.5119 127.981 22.4895 128.013C22.4783 128.029 22.4701 128.041 22.465 128.048C22.4625 128.051 22.4607 128.054 22.4598 128.055C22.4593 128.056 22.4591 128.056 22.459 128.056C22.459 128.056 22.459 128.056 22.4591 128.056C22.4591 128.056 22.4592 128.056 22.4593 128.056C22.4594 128.056 22.4595 128.056 24.5 129.5C26.5405 130.945 26.5406 130.944 26.5408 130.944C26.5409 130.944 26.5411 130.944 26.5412 130.944C26.5415 130.943 26.5418 130.943 26.5422 130.942C26.543 130.941 26.544 130.939 26.5453 130.938C26.5477 130.934 26.551 130.93 26.5551 130.924C26.5632 130.912 26.5747 130.896 26.5891 130.875C26.618 130.834 26.659 130.775 26.7105 130.7C26.8134 130.55 26.9584 130.337 27.1315 130.075C27.4762 129.555 27.9397 128.832 28.4069 128.035C28.8693 127.246 29.3612 126.34 29.7448 125.46C30.0897 124.669 30.5 123.567 30.5 122.5H25.5ZM56.5817 167.944H73.5817V162.944H56.5817V167.944ZM73.5817 167.944H85.5817V162.944H73.5817V167.944ZM89.528 152.959L91.528 143.459L86.6353 142.429L84.6353 151.929L89.528 152.959ZM91.4936 143.602L94.4936 132.602L89.6698 131.287L86.6698 142.287L91.4936 143.602ZM105.582 155.444C107.818 156.562 107.818 156.562 107.818 156.562C107.818 156.562 107.818 156.561 107.818 156.561C107.819 156.561 107.819 156.56 107.819 156.56C107.82 156.558 107.82 156.557 107.821 156.556C107.823 156.553 107.825 156.549 107.827 156.544C107.831 156.535 107.837 156.523 107.844 156.509C107.859 156.479 107.879 156.438 107.904 156.385C107.954 156.28 108.025 156.13 108.114 155.936C108.291 155.548 108.538 154.986 108.833 154.266C109.422 152.826 110.2 150.75 110.976 148.163L106.187 146.726C105.463 149.139 104.741 151.063 104.205 152.373C103.937 153.028 103.716 153.528 103.565 153.859C103.49 154.025 103.432 154.148 103.394 154.226C103.375 154.266 103.362 154.294 103.353 154.31C103.349 154.319 103.347 154.324 103.345 154.327C103.345 154.328 103.344 154.329 103.344 154.329C103.344 154.329 103.345 154.329 103.345 154.328C103.345 154.328 103.345 154.328 103.345 154.327C103.345 154.327 103.345 154.327 103.345 154.327C103.345 154.327 103.346 154.326 105.582 155.444ZM110.976 148.163C111.752 145.578 112.392 142.885 112.836 140.854C113.059 139.834 113.235 138.974 113.355 138.366C113.415 138.062 113.461 137.821 113.492 137.655C113.508 137.572 113.52 137.507 113.528 137.463C113.532 137.441 113.535 137.424 113.538 137.412C113.539 137.406 113.54 137.401 113.54 137.398C113.541 137.396 113.541 137.395 113.541 137.394C113.541 137.393 113.541 137.393 113.541 137.392C113.541 137.392 113.541 137.392 113.541 137.392C113.541 137.392 113.541 137.392 111.082 136.944C108.622 136.497 108.622 136.497 108.622 136.497C108.622 136.497 108.622 136.497 108.622 136.497C108.622 136.497 108.622 136.497 108.622 136.497C108.622 136.498 108.622 136.498 108.622 136.499C108.621 136.501 108.621 136.504 108.62 136.509C108.618 136.518 108.616 136.533 108.612 136.552C108.605 136.591 108.594 136.649 108.579 136.726C108.55 136.88 108.507 137.108 108.449 137.398C108.335 137.978 108.166 138.805 107.952 139.785C107.521 141.754 106.912 144.311 106.187 146.726L110.976 148.163ZM117.725 151.731C119.528 148.727 123.215 146.444 126.582 146.444L126.582 141.444C121.247 141.444 116.029 144.84 113.438 149.158L117.725 151.731ZM79.5817 141.944C86.8848 141.944 90.5627 137.61 93.9901 133.559L90.1732 130.33C86.6862 134.451 84.3582 136.944 79.5817 136.944L79.5817 141.944ZM67.7319 135.626C69.2165 137.259 70.6589 138.945 72.4451 140.104C74.39 141.365 76.599 141.944 79.5817 141.944L79.5817 136.944C77.3142 136.944 76.1131 136.523 75.1654 135.908C74.0591 135.191 73.1266 134.127 71.4316 132.263L67.7319 135.626ZM72.5817 119.944C72.9121 117.466 72.9121 117.466 72.912 117.466C72.912 117.466 72.9119 117.466 72.9118 117.466C72.9116 117.466 72.9112 117.466 72.9108 117.466C72.9099 117.466 72.9085 117.466 72.9067 117.466C72.9032 117.465 72.8978 117.464 72.8907 117.463C72.8764 117.462 72.8552 117.459 72.8274 117.455C72.7717 117.448 72.6896 117.437 72.5838 117.422C72.3721 117.394 72.0658 117.353 71.6872 117.303C70.9301 117.201 69.8841 117.061 68.729 116.904C66.4158 116.592 63.6746 116.218 61.9353 115.97L61.2281 120.919C62.9888 121.171 65.7476 121.547 68.0594 121.859C69.2168 122.016 70.2646 122.157 71.0231 122.258C71.4023 122.309 71.7093 122.35 71.9214 122.378C72.0275 122.393 72.1099 122.404 72.1659 122.411C72.1938 122.415 72.2151 122.418 72.2295 122.42C72.2367 122.421 72.2421 122.421 72.2458 122.422C72.2476 122.422 72.249 122.422 72.2499 122.422C72.2503 122.422 72.2507 122.422 72.2509 122.422C72.251 122.422 72.2511 122.422 72.2512 122.422C72.2513 122.422 72.2513 122.422 72.5817 119.944ZM61.9353 115.97C61.4827 115.905 60.5367 115.571 59.1522 114.899C57.8482 114.267 56.3878 113.452 54.9999 112.632C53.618 111.816 52.3385 111.012 51.4027 110.411C50.9356 110.111 50.556 109.863 50.2943 109.691C50.1635 109.604 50.0623 109.537 49.9945 109.492C49.9606 109.469 49.9351 109.452 49.9183 109.441C49.91 109.436 49.9038 109.431 49.9 109.429C49.898 109.428 49.8966 109.427 49.8959 109.426C49.8955 109.426 49.8952 109.426 49.8951 109.426C49.895 109.426 49.8951 109.426 49.895 109.426C49.8951 109.426 49.8952 109.426 48.5 111.5C47.1048 113.575 47.1049 113.575 47.1052 113.575C47.1053 113.575 47.1055 113.575 47.1058 113.575C47.1062 113.576 47.1068 113.576 47.1076 113.576C47.1091 113.577 47.1112 113.579 47.1139 113.581C47.1193 113.584 47.1269 113.589 47.1368 113.596C47.1566 113.609 47.1853 113.628 47.2224 113.653C47.2966 113.703 47.4047 113.774 47.5427 113.865C47.8188 114.047 48.2151 114.306 48.701 114.618C49.6711 115.241 51.0058 116.08 52.4568 116.937C53.9019 117.791 55.4931 118.681 56.97 119.398C58.3665 120.075 59.9307 120.734 61.2281 120.919L61.9353 115.97ZM43.4285 137.821L48.4285 135.821L46.5715 131.179L41.5715 133.179L43.4285 137.821ZM30.7572 143.438L44.1755 142.494L43.8245 137.506L30.4062 138.451L30.7572 143.438ZM46.3717 139.209L44.8717 134.71L40.1283 136.291L41.6283 140.791L46.3717 139.209ZM39.5716 114.679C39.7216 114.619 39.6975 114.669 39.3389 114.659C39.0221 114.65 38.5909 114.6 38.0494 114.497C36.9677 114.292 35.6722 113.923 34.3827 113.5C33.1059 113.081 31.8956 112.629 31.0003 112.28C30.5541 112.106 30.1896 111.959 29.9384 111.856C29.8129 111.805 29.7158 111.765 29.6512 111.738C29.6189 111.724 29.5948 111.714 29.5792 111.707C29.5715 111.704 29.5658 111.702 29.5624 111.7C29.5608 111.7 29.5596 111.699 29.559 111.699C29.5587 111.699 29.5586 111.699 29.5586 111.699C29.5586 111.699 29.5587 111.699 29.5587 111.699C29.5588 111.699 29.559 111.699 28.5817 114C27.6044 116.301 27.6047 116.301 27.605 116.301C27.6051 116.301 27.6054 116.302 27.6057 116.302C27.6063 116.302 27.607 116.302 27.6078 116.303C27.6095 116.303 27.6118 116.304 27.6147 116.305C27.6203 116.308 27.6283 116.311 27.6384 116.315C27.6587 116.324 27.6877 116.336 27.725 116.352C27.7996 116.383 27.9073 116.428 28.0442 116.484C28.3178 116.596 28.7086 116.753 29.1845 116.939C30.1333 117.309 31.4338 117.794 32.824 118.25C34.2016 118.702 35.7294 119.146 37.1168 119.409C37.8098 119.541 38.5246 119.639 39.2013 119.657C39.8363 119.675 40.6535 119.631 41.4284 119.321L39.5716 114.679ZM48.5 111.5C46.9169 109.565 46.917 109.565 46.917 109.565C46.917 109.565 46.9171 109.565 46.9171 109.565C46.917 109.565 46.9169 109.565 46.9167 109.565C46.9164 109.566 46.9157 109.566 46.9146 109.567C46.9126 109.569 46.9092 109.571 46.9046 109.575C46.8953 109.583 46.8809 109.595 46.8618 109.61C46.8234 109.641 46.7658 109.688 46.6911 109.748C46.5415 109.868 46.3234 110.043 46.0533 110.256C45.5122 110.683 44.7673 111.26 43.9494 111.866C42.209 113.155 40.4685 114.32 39.5716 114.679L41.4284 119.321C43.0315 118.68 45.291 117.095 46.9256 115.884C47.7951 115.24 48.5815 114.63 49.1498 114.182C49.4344 113.957 49.6656 113.772 49.8265 113.643C49.907 113.578 49.97 113.527 50.0134 113.492C50.0352 113.474 50.052 113.46 50.0637 113.451C50.0695 113.446 50.0741 113.442 50.0774 113.44C50.079 113.438 50.0803 113.437 50.0812 113.437C50.0817 113.436 50.0821 113.436 50.0824 113.436C50.0826 113.435 50.0827 113.435 50.0828 113.435C50.083 113.435 50.0831 113.435 48.5 111.5ZM24.5817 102C22.8421 102 21.4079 102.601 20.3193 103.569C19.2822 104.491 18.6712 105.641 18.3034 106.622C17.9317 107.613 17.7568 108.569 17.6713 109.252C17.6278 109.601 17.6056 109.894 17.5941 110.108C17.5883 110.216 17.5853 110.304 17.5836 110.37C17.5828 110.403 17.5823 110.431 17.582 110.453C17.5819 110.463 17.5818 110.473 17.5818 110.481C17.5818 110.485 17.5817 110.488 17.5817 110.492C17.5817 110.493 17.5817 110.495 17.5817 110.496C17.5817 110.497 17.5817 110.498 17.5817 110.498C17.5817 110.499 17.5817 110.5 20.0817 110.5C22.5817 110.5 22.5817 110.501 22.5817 110.502C22.5817 110.502 22.5817 110.503 22.5817 110.503C22.5817 110.504 22.5817 110.505 22.5817 110.506C22.5817 110.508 22.5817 110.509 22.5817 110.511C22.5817 110.513 22.5817 110.514 22.5817 110.513C22.5817 110.512 22.5818 110.506 22.582 110.495C22.5826 110.473 22.5839 110.433 22.5869 110.376C22.5931 110.262 22.6059 110.087 22.6327 109.873C22.6879 109.431 22.7943 108.887 22.985 108.378C23.1797 107.859 23.4125 107.509 23.6411 107.306C23.818 107.149 24.0714 107 24.5817 107V102ZM20.0817 110.5C20.5925 108.053 20.5911 108.052 20.5897 108.052C20.5891 108.052 20.5877 108.052 20.5866 108.052C20.5845 108.051 20.5822 108.051 20.5797 108.05C20.5749 108.049 20.5694 108.048 20.5633 108.047C20.5511 108.044 20.5365 108.042 20.5196 108.038C20.4858 108.032 20.4425 108.024 20.3905 108.015C20.2865 107.998 20.1468 107.976 19.9762 107.955C19.6364 107.913 19.1668 107.872 18.6087 107.866C17.5101 107.856 15.9722 107.984 14.3856 108.6C12.7648 109.23 11.1083 110.367 9.8836 112.305C8.67181 114.223 8 116.74 8 119.944H13C13 117.427 13.5259 115.902 14.1107 114.976C14.6825 114.071 15.4215 113.562 16.1961 113.261C17.005 112.947 17.8625 112.859 18.5604 112.866C18.9007 112.869 19.1797 112.895 19.3638 112.918C19.4552 112.929 19.5214 112.939 19.5577 112.945C19.5759 112.948 19.5864 112.95 19.5889 112.951C19.5901 112.951 19.5892 112.951 19.5863 112.95C19.5848 112.95 19.5828 112.95 19.5802 112.949C19.5789 112.949 19.5775 112.949 19.576 112.948C19.5752 112.948 19.5739 112.948 19.5736 112.948C19.5723 112.948 19.5709 112.947 20.0817 110.5ZM25.7141 127.315C24.0622 126.397 22.1201 126.187 20.6086 126.069C18.9001 125.936 17.5934 125.908 16.3493 125.635C15.2042 125.383 14.5022 124.99 14.029 124.38C13.532 123.741 13 122.491 13 119.944H8C8 123.12 8.65549 125.613 10.0804 127.448C11.529 129.312 13.4833 130.124 15.2756 130.518C16.969 130.89 18.8811 130.95 20.2194 131.054C21.7548 131.174 22.6878 131.353 23.2859 131.685L25.7141 127.315ZM23.5939 131.83C29.5627 134.151 35.5503 136.34 41.8936 137.925L43.1063 133.075C37.0791 131.568 31.33 129.474 25.4061 127.17L23.5939 131.83Z"
          fill="black"/>
    <path d="M123.5 111.944C123.5 111.944 118.392 114.943 118.258 119.941C118.123 124.94 119.569 126.979 122.028 128.546C124.486 130.113 130 128.944 130 128.944L129 124.944L127.5 119.941L123.5 111.944Z"
          fill="url(#paint1_linear_434_21)"/>
    <path d="M53.5 112.017C58 114.517 58.5 115.017 68.5 117.017C78.5 119.017 85.5192 117.517 88.5 117.017C88.5 117.017 94.5 115.017 97.5 113.017C100.5 111.017 110 103.517 108.5 95.5169C107 87.5169 104 85.5169 98 82.0169C92 78.5169 85 77.0169 78 77.0169C71 77.0169 63.5 78.0169 58.5 80.5169C53.5 83.0169 47 88.5169 46.5 95.5169C46 102.517 53.5 112.017 53.5 112.017Z"
          fill="url(#paint2_linear_434_21)"/>
    <path d="M45.5192 49.5168C45.5192 49.5168 35.5 51.0168 27.5 54.0168C19.5 57.0168 12 63.5168 10 65.5168C8 67.5168 7 69.0168 7 72.0168C7 74.1605 7.41189 75.28 8.5 76.4165C12.7958 73.3315 14 72.0168 18 70.5168C22 69.0168 26.5 67.5169 31 66.5168C35.5 65.5168 42.1321 61.0168 42.1321 61.0168C43.4459 55.2556 44.9273 50.1087 45.5192 49.5168Z"
          fill="#FEF3E4"/>
    <path d="M11 78.5168C11.8828 79.1955 12.8956 79.7779 14 80.2618C14.8312 80.6261 20.5128 82.0169 23 82.0169C26.3474 82.0169 29.7906 81.2777 31.5 80.9799C35.4446 80.2926 39.0192 79.5168 39.0192 79.5168C39.1247 78.6781 39.2824 77.6041 39.4484 76.473C39.6446 75.136 39.8526 73.7192 40 72.5168C40.4002 69.2523 41.2263 64.9886 42.1321 61.0168C42.1321 61.0168 35.5 65.5168 31 66.5168C26.5 67.5169 22 69.0168 18 70.5168C14 72.0168 12.7958 73.3315 8.5 76.4165C9.10734 77.0509 9.92535 77.6906 11 78.5168Z"
          fill="url(#paint3_linear_434_21)"/>
    <path d="M127 62.0168C127 62.0168 150.5 71.5724 153.5 74.0724C156.5 76.5724 156.065 79.0168 158 79.0168C160.481 79.0168 162.038 77.0168 161.519 72.5168C161 68.0168 159.038 65.0168 152.519 61.0168C146 57.0168 142.519 55.5168 136.019 53.0168C129.519 50.5168 123.519 49.5168 123.519 49.5168L127 62.0168Z"
          fill="#FEF3E4"/>
    <path d="M127 62.0168C127 62.0168 128.5 68.5168 129.519 74.0168C129.968 76.4366 130.304 78.6628 130.5 80.8232C130.5 80.8232 133 79.266 134 78.5724C137.507 76.1399 140.448 73.9768 145 74.0168C149.217 74.0539 153.5 74.0724 153.5 74.0724C150.5 71.5724 127 62.0168 127 62.0168Z"
          fill="url(#paint4_linear_434_21)"/>
    <path d="M39.5 93.0169C40.4807 101.017 49 109.517 53.5 112.017C53.5 112.017 46 102.517 46.5 95.5169C47 88.5169 53.5 83.0169 58.5 80.5169C63.5 78.0169 71 77.0169 78 77.0169C85 77.0169 92 78.5169 98 82.0169C104 85.5169 107 87.5169 108.5 95.5169C110 103.517 100.5 111.017 97.5 113.017C94.5 115.017 88.5 117.017 88.5 117.017C88.9251 116.946 89.5238 116.854 90.2554 116.742C94.654 116.069 103.856 114.66 109 112.517C110.174 112.028 111.177 111.653 112.082 111.315C115.805 109.925 117.889 109.147 123.519 103.517C129.831 97.2055 130.045 94.5523 130.379 90.4266C130.415 89.9764 130.453 89.5087 130.5 89.0168C130.769 86.2166 130.749 83.5732 130.5 80.8232C130.304 78.6628 129.968 76.4366 129.519 74.0168C128.5 68.5168 127 62.0168 127 62.0168L123.519 49.5168C114.5 53.0168 103.5 38.0724 103 36.5724C102.5 35.0723 103 36.5723 100.5 34.0724C98 31.5724 90.5 30.0724 90.5 30.0724C90.5 30.0724 92.5 23.9135 90.5 20.4135C87.4838 15.1352 81 7.91352 77 12.4135C73 16.9135 77 25.4135 75.5 22.4135C74 19.4135 58.5 21.4135 58.5 27.4136C58.5 33.4136 66 34.0724 66 34.0724L58.5 37.0724L45.5192 49.5168C44.9273 50.1087 43.4459 55.2556 42.1321 61.0168C41.2263 64.9886 40.4002 69.2523 40 72.5168C39.8526 73.7192 39.6446 75.136 39.4484 76.473C39.2824 77.6041 39.1247 78.6781 39.0192 79.5168C38.4245 84.245 38.7855 87.1888 39.483 92.878L39.5 93.0169Z"
          fill="#FEF3E4"/>
    <path d="M103 36.5724C103.5 38.0724 114.5 53.0168 123.519 49.5168C123.519 49.5168 130.5 44.0724 128 32.5724C126.832 27.1989 123.917 24.1179 121.143 22.3602C118.343 20.5862 115.449 23.3844 114.862 26.6466C114.611 28.0455 114.188 29.5589 113.5 31.0724C111 36.5724 103 36.5724 103 36.5724Z"
          fill="#FED722"/>
    <path d="M45.5192 49.5168L58.5 37.0724C58.5 37.0724 53.5 34.5724 51.5 30.0724C51.0598 29.082 50.7408 28.0916 50.5108 27.1492C49.7609 24.0762 46.9698 21.4182 44.2315 23.0017C41.4862 24.5891 38.7439 27.4505 38.5 32.5724C38 43.0724 45.5192 49.5168 45.5192 49.5168Z"
          fill="#FED722"/>
    <path d="M45.5192 49.5168C45.5192 49.5168 35.5 51.0168 27.5 54.0168C19.5 57.0168 12 63.5168 10 65.5168C8 67.5168 7 69.0168 7 72.0168C7 74.1605 7.41189 75.28 8.5 76.4165M45.5192 49.5168C44.9273 50.1087 43.4459 55.2556 42.1321 61.0168M45.5192 49.5168L58.5 37.0724M45.5192 49.5168C45.5192 49.5168 38 43.0724 38.5 32.5724C38.7439 27.4505 41.4862 24.5891 44.2315 23.0017C46.9698 21.4182 49.7609 24.0762 50.5108 27.1492C50.7408 28.0916 51.0598 29.082 51.5 30.0724C53.5 34.5724 58.5 37.0724 58.5 37.0724M39.5 93.0169C40.4807 101.017 49 109.517 53.5 112.017M39.5 93.0169L39.483 92.878M39.5 93.0169C39.4943 92.9704 39.4886 92.9241 39.483 92.878M53.5 112.017C58 114.517 58.5 115.017 68.5 117.017C78.5 119.017 85.5192 117.517 88.5 117.017M53.5 112.017C53.5 112.017 46 102.517 46.5 95.5169C47 88.5169 53.5 83.0169 58.5 80.5169C63.5 78.0169 71 77.0169 78 77.0169C85 77.0169 92 78.5169 98 82.0169C104 85.5169 107 87.5169 108.5 95.5169C110 103.517 100.5 111.017 97.5 113.017C94.5 115.017 88.5 117.017 88.5 117.017M88.5 117.017C88.9251 116.946 89.5238 116.854 90.2554 116.742C94.654 116.069 103.856 114.66 109 112.517C110.174 112.028 111.177 111.653 112.082 111.315C115.805 109.925 117.889 109.147 123.519 103.517C129.831 97.2055 130.045 94.5523 130.379 90.4266C130.415 89.9764 130.453 89.5087 130.5 89.0168C130.769 86.2166 130.749 83.5732 130.5 80.8232M127 62.0168C127 62.0168 128.5 68.5168 129.519 74.0168C129.968 76.4366 130.304 78.6628 130.5 80.8232M127 62.0168C127 62.0168 150.5 71.5724 153.5 74.0724M127 62.0168L123.519 49.5168M153.5 74.0724C156.5 76.5724 156.065 79.0168 158 79.0168C160.481 79.0168 162.038 77.0168 161.519 72.5168C161 68.0168 159.038 65.0168 152.519 61.0168C146 57.0168 142.519 55.5168 136.019 53.0168C129.519 50.5168 123.519 49.5168 123.519 49.5168M153.5 74.0724C153.5 74.0724 149.217 74.0539 145 74.0168C140.448 73.9768 137.507 76.1399 134 78.5724C133 79.266 130.5 80.8232 130.5 80.8232M123.519 49.5168C114.5 53.0168 103.5 38.0724 103 36.5724M123.519 49.5168C123.519 49.5168 130.5 44.0724 128 32.5724C126.832 27.1989 123.917 24.1179 121.143 22.3602C118.343 20.5862 115.449 23.3844 114.862 26.6466C114.611 28.0455 114.188 29.5589 113.5 31.0724C111 36.5724 103 36.5724 103 36.5724M39.0192 79.5168C38.4245 84.245 38.7855 87.1888 39.483 92.878M39.0192 79.5168C39.1247 78.6781 39.2824 77.6041 39.4484 76.473C39.6446 75.136 39.8526 73.7192 40 72.5168C40.4002 69.2523 41.2263 64.9886 42.1321 61.0168M39.0192 79.5168C39.0192 79.5168 35.4446 80.2926 31.5 80.9799C29.7906 81.2777 26.3474 82.0169 23 82.0169C20.5128 82.0169 14.8312 80.6261 14 80.2618C12.8956 79.7779 11.8828 79.1955 11 78.5168C9.92535 77.6906 9.10734 77.0509 8.5 76.4165M42.1321 61.0168C42.1321 61.0168 35.5 65.5168 31 66.5168C26.5 67.5169 22 69.0168 18 70.5168C14 72.0168 12.7958 73.3315 8.5 76.4165M58.5 37.0724L66 34.0724M66 34.0724C66 34.0724 58.5 33.4136 58.5 27.4136C58.5 21.4135 74 19.4135 75.5 22.4135C77 25.4135 73 16.9135 77 12.4135C81 7.91352 87.4838 15.1352 90.5 20.4135C92.5 23.9135 90.5 30.0724 90.5 30.0724C90.5 30.0724 98 31.5724 100.5 34.0724C103 36.5723 102.5 35.0723 103 36.5724M66 34.0724C66 34.0724 72 33.0723 71.5 34.0724C71 35.0724 63.5 40.2312 68 46.0723C72.5 51.9135 81 41.4135 77 38.4135"
          stroke="black" stroke-width="5"/>
    <path d="M109 47C109 47 104 46.5724 100.5 47.5724C97 48.5724 93 51.5 90.5 56.5C88 61.5 88.9998 65.5724 90.9999 71.0724C92.9999 76.5724 100.5 78.9999 100.5 78.9999C100.5 78.9999 108.5 85 111 87C113.5 89 114.5 91 118.5 90.5C122.5 90 128.5 87 128.5 87C128.5 87 128.653 82.0724 128.5 80C128.347 77.9276 126.473 67.9462 125 63.0724C122 53.1447 122 52.5 122 52.5C122 52.5 118.5 52.5 115 51C111.5 49.5 109 47 109 47Z"
          fill="url(#paint5_linear_434_21)"/>
    <ellipse cx="59.5" cy="67.0168" rx="5.5" ry="7.5" fill="black"/>
    <ellipse cx="59.5" cy="67.0168" rx="5.5" ry="7.5" fill="black"/>
    <ellipse cx="59.5" cy="67.0168" rx="5.5" ry="7.5" fill="black"/>
    <path d="M110.5 68.5C107 65 100 65.5 100 65.5M100 65.5C100 65.5 103.5 61.5 108 60M100 65.5L98 68" stroke="black"
          stroke-width="3.5" stroke-linecap="round"/>
    <ellipse cx="84.5172" cy="94.5362" rx="4.48276" ry="6.46381" fill="black"/>
    <ellipse cx="67.4828" cy="94.5362" rx="4.48276" ry="6.46381" fill="black"/>
    <path d="M143.5 75.0723C143.5 75.0723 142.5 77.5723 142 79.0723C141.5 80.5723 141 84.0723 145 84.0723C149 84.0723 148 80.5723 147.5 79.0723C147 77.5723 146 75.0723 146 75.0723C146 75.0723 149.5 75.0723 151 76.0723C152.5 77.0723 154.5 79.5723 154.5 84.0723C154.5 88.5723 151 91.0723 149.5 92.0723C148 93.0723 145 93.0723 145 93.0723C145 93.0723 142 93.0723 140 92.0723C138 91.0723 135 88.0723 135 84.0723C135 80.0723 137 77.0723 138.5 76.0723C140 75.0723 143.5 75.0723 143.5 75.0723Z"
          fill="#FED722" stroke="black" stroke-width="3"/>
    <defs>
        <linearGradient id="paint0_linear_434_21" x1="165.5" y1="104" x2="152.5" y2="128"
                        gradientUnits="userSpaceOnUse">
            <stop stop-color="#F8AE21"/>
            <stop offset="1" stop-color="#E52D14"/>
        </linearGradient>
        <linearGradient id="paint1_linear_434_21" x1="119" y1="124.5" x2="131.5" y2="120"
                        gradientUnits="userSpaceOnUse">
            <stop stop-color="#F8AE21"/>
            <stop offset="1" stop-color="#E52D14"/>
        </linearGradient>
        <linearGradient id="paint2_linear_434_21" x1="64" y1="81.5" x2="95" y2="114.5" gradientUnits="userSpaceOnUse">
            <stop stop-color="#F8AE21"/>
            <stop offset="1" stop-color="#E52D14"/>
        </linearGradient>
        <linearGradient id="paint3_linear_434_21" x1="13" y1="76" x2="43.5338" y2="75.4782"
                        gradientUnits="userSpaceOnUse">
            <stop stop-color="#F8AE21"/>
            <stop offset="1" stop-color="#E52D14"/>
        </linearGradient>
        <linearGradient id="paint4_linear_434_21" x1="143.5" y1="71" x2="127" y2="69.5" gradientUnits="userSpaceOnUse">
            <stop stop-color="#F8AE21"/>
            <stop offset="1" stop-color="#E52D14"/>
        </linearGradient>
        <linearGradient id="paint5_linear_434_21" x1="89" y1="65.4999" x2="125.5" y2="59.4999"
                        gradientUnits="userSpaceOnUse">
            <stop stop-color="#F8AE21"/>
            <stop offset="1" stop-color="#E52D14"/>
        </linearGradient>
    </defs>
</svg>
