<svg width="180" height="180" viewBox="0 0 180 180" fill="none" xmlns="http://www.w3.org/2000/svg">
    <g clip-path="url(#clip0_434_20)">
        <path d="M162.587 145.079C162.587 145.079 165.823 145.959 167.901 145.134C169.979 144.309 171.725 143.856 173.683 140.913C175.642 137.969 176.229 135.812 175.95 130.87C175.671 125.928 174.18 124.595 172.609 121.851C171.038 119.107 168.84 117.814 168.84 117.814C168.84 117.814 167.92 120.345 166.628 122.542C165.335 124.74 163.67 126.604 162.67 127.723C161.671 128.842 159.981 123.979 159.981 123.979C159.981 123.979 155.983 128.454 156.595 133.023C157.207 137.592 159.936 142.042 159.936 142.042L162.587 145.079Z"
              fill="url(#paint0_linear_434_20)"/>
        <path d="M162.587 145.079C162.587 145.079 165.823 145.959 167.901 145.134C169.979 144.309 171.725 143.856 173.683 140.913C175.642 137.969 176.229 135.812 175.95 130.87C175.671 125.928 174.18 124.595 172.609 121.851C171.038 119.107 168.84 117.814 168.84 117.814C168.84 117.814 167.92 120.345 166.628 122.542C165.335 124.74 163.67 126.604 162.67 127.723C161.671 128.842 159.981 123.979 159.981 123.979C159.981 123.979 155.983 128.454 156.595 133.023C157.207 137.592 159.936 142.042 159.936 142.042L162.587 145.079ZM162.587 145.079C162.587 145.079 164.212 142.509 164.759 139.645C165.306 136.782 163.735 134.037 163.735 134.037"
              stroke="black" stroke-width="3"/>
        <path d="M140.82 148.431C140.82 148.431 146.667 151.643 148.785 151.523C149.78 151.467 152.511 150.829 155.02 149.047C157.529 147.266 160.056 144.16 160.056 144.16L163.372 146.452C163.372 146.452 162.492 149.688 159.161 153.417C155.83 157.146 154.498 158.638 151.048 160.249C147.597 161.86 142.243 161.099 140.418 160.14C138.593 159.18 135.237 156.182 135.237 156.182L138.568 152.453L140.82 148.431Z"
              fill="#FEF3E4" stroke="black" stroke-width="3"/>
        <path d="M19.0815 153C18.0815 161.5 26.5814 166 28.5815 166.5C30.5815 167 34.0815 167.5 34.0815 167.5C34.0815 167.5 34.5814 159.5 34.0815 154C33.5815 148.5 30.5815 143 30.5815 143C30.5815 143 20.0815 144.5 19.0815 153Z"
              fill="#523F45"/>
        <path d="M132.081 150.5C131.581 148 129.581 146 126.581 146C122.231 146 117.778 148.839 115.581 152.5C114.081 155 113.581 158.5 114.081 161.5C114.581 164.5 117.581 167.5 117.581 167.5H125.581C125.581 167.5 131.581 161.5 132.081 159.5C132.581 157.5 132.581 153 132.081 150.5Z"
              fill="#523F45"/>
        <path d="M88.5815 122H72.5815C72.5815 122 69.5815 123 68.5815 127C67.5815 131 69.5815 136 69.5815 136C72.7612 139.498 74.3313 141.5 79.5815 141.5C85.6213 141.5 88.6242 138.086 92.0815 134C92.0815 134 93.0815 130 92.0815 127C91.0815 124 88.5815 122 88.5815 122Z"
              fill="#FD8A0B"/>
        <path d="M133.081 167.5C133.081 167.5 140.081 161 140.581 158C141.081 155 141.081 150 140.081 148C139.081 146 136.581 144.5 135.581 142C134.581 139.5 131.081 125 130.081 122C129.081 119 123.081 108 123.081 108C123.081 108 119.581 111 113.581 114.5C107.581 118 98.0815 120 98.0815 120L88.5815 122C88.5815 122 91.0815 124 92.0815 127C93.0815 130 92.0815 134 92.0815 134L89.0815 145L87.0815 154.5C87.0815 154.5 90.5815 156 95.0815 156.5C99.5815 157 105.581 157.5 105.581 157.5C105.581 157.5 104.081 161.5 103.081 163.5C102.081 165.5 100.081 167.5 100.081 167.5H117.581C117.581 167.5 114.581 164.5 114.081 161.5C113.581 158.5 114.081 155 115.581 152.5C117.778 148.839 122.231 146 126.581 146C129.581 146 131.581 148 132.081 150.5C132.581 153 132.581 157.5 132.081 159.5C131.581 161.5 125.581 167.5 125.581 167.5H133.081Z"
              fill="#FEF3E4"/>
        <path d="M51.5815 117.5C51.5815 117.5 49.5815 125 49.5814 130C49.5814 135 50.2911 141 50.2911 141L51.5815 148.5L53.7579 157.5C53.7579 157.5 58.0815 158 62.0815 157.5C66.0815 157 71.5815 154.5 71.5815 154.5L70.5815 145L69.5815 136C69.5815 136 67.5815 131 68.5815 127C69.5815 123 72.5815 122 72.5815 122C72.5815 122 65.0815 121 61.5815 120.5C58.0815 120 51.5815 117.5 51.5815 117.5Z"
              fill="#FEF3E4"/>
        <path d="M56.5815 167.5L55.0815 162.5L53.7579 157.5L51.5815 148.5L50.2911 141L30.5815 143C30.5815 143 33.5815 148.5 34.0815 154C34.5814 159.5 34.0815 167.5 34.0815 167.5H56.5815Z"
              fill="#FEF3E4"/>
        <path d="M85.5815 167.5C85.5815 166.3 86.2481 158.333 87.0815 154.5L89.0815 145L92.0815 134C88.6242 138.086 85.6213 141.5 79.5815 141.5C74.3313 141.5 72.7612 139.498 69.5815 136L70.5815 145L71.5815 154.5C71.5815 154.5 72.0815 158 72.5815 161C73.0815 164 73.5815 167.5 73.5815 167.5H85.5815Z"
              fill="#FEF3E4"/>
        <path d="M87.0815 154.5C86.2481 158.333 85.5815 166.3 85.5815 167.5H100.081C100.081 167.5 102.081 165.5 103.081 163.5C104.081 161.5 105.581 157.5 105.581 157.5C105.581 157.5 99.5815 157 95.0815 156.5C90.5815 156 87.0815 154.5 87.0815 154.5Z"
              fill="#523F45"/>
        <path d="M55.0815 162.5L56.5815 167.5H73.5815C73.5815 167.5 73.0815 164 72.5815 161C72.0815 158 71.5815 154.5 71.5815 154.5C71.5815 154.5 66.0815 157 62.0815 157.5C58.0815 158 53.7579 157.5 53.7579 157.5L55.0815 162.5Z"
              fill="#523F45"/>
        <path d="M56.5815 167.5L55.0815 162.5L53.7579 157.5M56.5815 167.5H34.0815M56.5815 167.5H73.5815M30.5815 143C30.5815 143 20.0815 144.5 19.0815 153C18.0815 161.5 26.5814 166 28.5815 166.5C30.5815 167 34.0815 167.5 34.0815 167.5M30.5815 143L50.2911 141M30.5815 143C30.5815 143 33.5815 148.5 34.0815 154C34.5814 159.5 34.0815 167.5 34.0815 167.5M50.2911 141C50.2911 141 49.5814 135 49.5814 130C49.5815 125 51.5815 117.5 51.5815 117.5C51.5815 117.5 58.0815 120 61.5815 120.5C65.0815 121 72.5815 122 72.5815 122M50.2911 141L51.5815 148.5L53.7579 157.5M88.5815 122L98.0815 120C98.0815 120 107.581 118 113.581 114.5C119.581 111 123.081 108 123.081 108C123.081 108 129.081 119 130.081 122C131.081 125 134.581 139.5 135.581 142C136.581 144.5 139.081 146 140.081 148C141.081 150 141.081 155 140.581 158C140.081 161 133.081 167.5 133.081 167.5H125.581M88.5815 122H72.5815M88.5815 122C88.5815 122 91.0815 124 92.0815 127C93.0815 130 92.0815 134 92.0815 134M72.5815 122C72.5815 122 69.5815 123 68.5815 127C67.5815 131 69.5815 136 69.5815 136M69.5815 136L70.5815 145L71.5815 154.5M69.5815 136C72.7612 139.498 74.3313 141.5 79.5815 141.5C85.6213 141.5 88.6242 138.086 92.0815 134M92.0815 134L89.0815 145L87.0815 154.5M85.5815 167.5C85.5815 166.3 86.2481 158.333 87.0815 154.5M85.5815 167.5H100.081M85.5815 167.5H73.5815M87.0815 154.5C87.0815 154.5 90.5815 156 95.0815 156.5C99.5815 157 105.581 157.5 105.581 157.5M105.581 157.5C105.581 157.5 104.081 161.5 103.081 163.5C102.081 165.5 100.081 167.5 100.081 167.5M105.581 157.5C105.581 157.5 107.081 154.5 108.581 149.5C110.081 144.5 111.081 139 111.081 139M100.081 167.5H117.581M125.581 167.5C125.581 167.5 131.581 161.5 132.081 159.5C132.581 157.5 132.581 153 132.081 150.5C131.581 148 129.581 146 126.581 146C122.231 146 117.778 148.839 115.581 152.5C114.081 155 113.581 158.5 114.081 161.5C114.581 164.5 117.581 167.5 117.581 167.5M125.581 167.5H117.581M53.7579 157.5C53.7579 157.5 58.0815 158 62.0815 157.5C66.0815 157 71.5815 154.5 71.5815 154.5M71.5815 154.5C71.5815 154.5 72.0815 158 72.5815 161C73.0815 164 73.5815 167.5 73.5815 167.5"
              stroke="black" stroke-width="5"/>
        <path d="M123.5 114C123.5 114 118.392 116.999 118.258 121.997C118.123 126.995 119.569 129.035 122.028 130.602C124.486 132.168 130 131 130 131L129 127L127.5 121.997L123.5 114Z"
              fill="url(#paint1_linear_434_20)"/>
        <path d="M51.5 113.017C56 115.517 56.5 116.017 66.5 118.017C76.5 120.017 83.5192 118.517 86.5 118.017C86.5 118.017 92.5 116.017 95.5 114.017C98.5 112.017 108 104.517 106.5 96.5169C105 88.5169 102 86.5169 96 83.0169C90 79.5169 83 78.0169 76 78.0169C69 78.0169 61.5 79.0169 56.5 81.5169C51.5 84.0169 45 89.5169 44.5 96.5169C44 103.517 51.5 113.017 51.5 113.017Z"
              fill="url(#paint2_linear_434_20)"/>
        <path d="M9 79.5168C9.88284 80.1955 10.8956 80.7779 12 81.2618C12.8312 81.6261 19.0128 83 21.5 83C24.8474 83 27.7906 82.2777 29.5 81.9799C33.4446 81.2926 37.0192 80.5168 37.0192 80.5168C37.1247 79.6781 37.2824 78.6041 37.4484 77.473C37.6446 76.136 37.8526 74.7192 38 73.5168C38.4002 70.2523 39.2263 65.9886 40.1321 62.0168C40.1321 62.0168 33.5 66.5168 29 67.5168C24.5 68.5169 20 70.0168 16 71.5168C12 73.0168 10.7958 74.3315 6.5 77.4165C7.10734 78.0509 7.92535 78.6906 9 79.5168Z"
              fill="url(#paint3_linear_434_20)"/>
        <path d="M125 63.0168C125 63.0168 148.5 72.5724 151.5 75.0724C154.5 77.5724 154.065 80.0168 156 80.0168C158.481 80.0168 160.038 78.0168 159.519 73.5168C159 69.0168 157.038 66.0168 150.519 62.0168C144 58.0168 140.519 56.5168 134.019 54.0168C127.519 51.5168 121.519 50.5168 121.519 50.5168L125 63.0168Z"
              fill="#FEF3E4"/>
        <path d="M125 63.0168C125 63.0168 126.5 69.5168 127.519 75.0168C127.968 77.4366 128.304 79.6628 128.5 81.8232C128.5 81.8232 131 80.266 132 79.5724C135.507 77.1399 138.448 74.9768 143 75.0168C147.217 75.0539 151.5 75.0724 151.5 75.0724C148.5 72.5724 125 63.0168 125 63.0168Z"
              fill="url(#paint4_linear_434_20)"/>
        <path d="M37.5 94.0169C38.4807 102.017 47 110.517 51.5 113.017C51.5 113.017 44 103.517 44.5 96.5169C45 89.5169 51.5 84.0169 56.5 81.5169C61.5 79.0169 69 78.0169 76 78.0169C83 78.0169 90 79.5169 96 83.0169C102 86.5169 105 88.5169 106.5 96.5169C108 104.517 98.5 112.017 95.5 114.017C92.5 116.017 86.5 118.017 86.5 118.017C86.9251 117.946 87.5238 117.854 88.2554 117.742C92.654 117.069 101.856 115.66 107 113.517C108.174 113.028 109.177 112.653 110.082 112.315C113.805 110.925 115.889 110.147 121.519 104.517C127.831 98.2055 128.045 95.5523 128.379 91.4266C128.415 90.9764 128.453 90.5087 128.5 90.0168C128.769 87.2166 128.749 84.5732 128.5 81.8232C128.304 79.6628 127.968 77.4366 127.519 75.0168C126.5 69.5168 125 63.0168 125 63.0168L121.519 50.5168C112.5 54.0168 101.5 39.0724 101 37.5724C100.5 36.0723 101 37.5723 98.5 35.0724C96 32.5724 88.5 31.0724 88.5 31.0724C88.5 31.0724 90.5 24.9135 88.5 21.4135C85.4838 16.1352 79 8.91352 75 13.4135C71 17.9135 75 26.4135 73.5 23.4135C72 20.4135 56.5 22.4135 56.5 28.4136C56.5 34.4136 64 35.0724 64 35.0724L56.5 38.0724L43.5192 50.5168C42.9273 51.1087 41.4459 56.2556 40.1321 62.0168C39.2263 65.9886 38.4002 70.2523 38 73.5168C37.8526 74.7192 37.6446 76.136 37.4484 77.473C37.2824 78.6041 37.1247 79.6781 37.0192 80.5168C36.4245 85.245 36.7855 88.1888 37.483 93.878L37.5 94.0169Z"
              fill="#FEF3E4"/>
        <path d="M101 37.5724C101.5 39.0724 112.5 54.0168 121.519 50.5168C121.519 50.5168 128.5 45.0724 126 33.5724C124.832 28.1989 121.917 25.1179 119.143 23.3602C116.343 21.5862 113.449 24.3844 112.862 27.6466C112.611 29.0455 112.188 30.5589 111.5 32.0724C109 37.5724 101 37.5724 101 37.5724Z"
              fill="#FED722"/>
        <path d="M43.5192 50.5168L56.5 38.0724C56.5 38.0724 51.5 35.5724 49.5 31.0724C49.0598 30.082 48.7408 29.0916 48.5108 28.1492C47.7609 25.0762 44.9698 22.4182 42.2315 24.0017C39.4862 25.5891 36.7439 28.4505 36.5 33.5724C36 44.0724 43.5192 50.5168 43.5192 50.5168Z"
              fill="#FED722"/>
        <path d="M43.5192 50.5168C43.5192 50.5168 33.5 52.0168 25.5 55.0168C17.5 58.0168 10 64.5168 8 66.5168C6 68.5168 5 70.0168 5 73.0168C5 75.1605 5.41189 76.28 6.5 77.4165C10.7958 74.3315 12 73.0168 16 71.5168C20 70.0168 24.5 68.5169 29 67.5168C33.5 66.5168 40.1321 62.0168 40.1321 62.0168C41.4459 56.2556 42.9273 51.1087 43.5192 50.5168Z"
              fill="#FEF3E4"/>
        <path d="M43.5192 50.5168C43.5192 50.5168 33.5 52.0168 25.5 55.0168C17.5 58.0168 10 64.5168 8 66.5168C6 68.5168 5 70.0168 5 73.0168C5 75.1605 5.41189 76.28 6.5 77.4165M43.5192 50.5168C42.9273 51.1087 41.4459 56.2556 40.1321 62.0168M43.5192 50.5168L56.5 38.0724M43.5192 50.5168C43.5192 50.5168 36 44.0724 36.5 33.5724C36.7439 28.4505 39.4862 25.5891 42.2315 24.0017C44.9698 22.4182 47.7609 25.0762 48.5108 28.1492C48.7408 29.0916 49.0598 30.082 49.5 31.0724C51.5 35.5724 56.5 38.0724 56.5 38.0724M37.5 94.0169C38.4807 102.017 47 110.517 51.5 113.017M37.5 94.0169L37.483 93.878M37.5 94.0169C37.4943 93.9704 37.4886 93.9241 37.483 93.878M51.5 113.017C56 115.517 56.5 116.017 66.5 118.017C76.5 120.017 83.5192 118.517 86.5 118.017M51.5 113.017C51.5 113.017 44 103.517 44.5 96.5169C45 89.5169 51.5 84.0169 56.5 81.5169C61.5 79.0169 69 78.0169 76 78.0169C83 78.0169 90 79.5169 96 83.0169C102 86.5169 105 88.5169 106.5 96.5169C108 104.517 98.5 112.017 95.5 114.017C92.5 116.017 86.5 118.017 86.5 118.017M86.5 118.017C86.9251 117.946 87.5238 117.854 88.2554 117.742C92.654 117.069 101.856 115.66 107 113.517C108.174 113.028 109.177 112.653 110.082 112.315C113.805 110.925 115.889 110.147 121.519 104.517C127.831 98.2055 128.045 95.5523 128.379 91.4266C128.415 90.9764 128.453 90.5087 128.5 90.0168C128.769 87.2166 128.749 84.5732 128.5 81.8232M125 63.0168C125 63.0168 126.5 69.5168 127.519 75.0168C127.968 77.4366 128.304 79.6628 128.5 81.8232M125 63.0168C125 63.0168 148.5 72.5724 151.5 75.0724M125 63.0168L121.519 50.5168M151.5 75.0724C154.5 77.5724 154.065 80.0168 156 80.0168C158.481 80.0168 160.038 78.0168 159.519 73.5168C159 69.0168 157.038 66.0168 150.519 62.0168C144 58.0168 140.519 56.5168 134.019 54.0168C127.519 51.5168 121.519 50.5168 121.519 50.5168M151.5 75.0724C151.5 75.0724 147.217 75.0539 143 75.0168C138.448 74.9768 135.507 77.1399 132 79.5724C131 80.266 128.5 81.8232 128.5 81.8232M121.519 50.5168C112.5 54.0168 101.5 39.0724 101 37.5724M121.519 50.5168C121.519 50.5168 128.5 45.0724 126 33.5724C124.832 28.1989 121.917 25.1179 119.143 23.3602C116.343 21.5862 113.449 24.3844 112.862 27.6466C112.611 29.0455 112.188 30.5589 111.5 32.0724C109 37.5724 101 37.5724 101 37.5724M37.0192 80.5168C36.4245 85.245 36.7855 88.1888 37.483 93.878M37.0192 80.5168C37.1247 79.6781 37.2824 78.6041 37.4484 77.473C37.6446 76.136 37.8526 74.7192 38 73.5168C38.4002 70.2523 39.2263 65.9886 40.1321 62.0168M37.0192 80.5168C37.0192 80.5168 33.4446 81.2926 29.5 81.9799C27.7906 82.2777 24.8474 83 21.5 83C19.0128 83 12.8312 81.6261 12 81.2618C10.8956 80.7779 9.88284 80.1955 9 79.5168C7.92535 78.6906 7.10734 78.0509 6.5 77.4165M40.1321 62.0168C40.1321 62.0168 33.5 66.5168 29 67.5168C24.5 68.5169 20 70.0168 16 71.5168C12 73.0168 10.7958 74.3315 6.5 77.4165M56.5 38.0724L64 35.0724M64 35.0724C64 35.0724 56.5 34.4136 56.5 28.4136C56.5 22.4135 72 20.4135 73.5 23.4135C75 26.4135 71 17.9135 75 13.4135C79 8.91352 85.4838 16.1352 88.5 21.4135C90.5 24.9135 88.5 31.0724 88.5 31.0724C88.5 31.0724 96 32.5724 98.5 35.0724C101 37.5723 100.5 36.0723 101 37.5724M64 35.0724C64 35.0724 70 34.0723 69.5 35.0724C69 36.0724 61.5 41.2312 66 47.0723C70.5 52.9135 79 42.4135 75 39.4135"
              stroke="black" stroke-width="5"/>
        <path d="M106.983 48.0909C106.983 48.0909 101.983 47.6632 98.483 48.6632C94.9831 49.6632 90.9831 52.5909 88.4831 57.5909C85.9831 62.5909 86.9829 66.6632 88.983 72.1632C90.983 77.6632 98.483 79.5 98.483 79.5C98.483 79.5 106 86.0909 108.5 88.0909C111 90.0909 112.483 92.0909 116.483 91.5909C120.483 91.0909 126.483 88.0909 126.483 88.0909C126.483 88.0909 126.636 83.1632 126.483 81.0909C126.33 79.0185 124.456 69.0371 122.983 64.1632C119.983 54.2356 119.983 53.5909 119.983 53.5909C119.983 53.5909 116.483 53.5909 112.983 52.0909C109.483 50.5909 106.983 48.0909 106.983 48.0909Z"
              fill="url(#paint5_linear_434_20)"/>
        <ellipse cx="100.5" cy="68.0168" rx="5.5" ry="7.5" fill="black"/>
        <ellipse cx="100.5" cy="68.0168" rx="5.5" ry="7.5" fill="black"/>
        <ellipse cx="100.5" cy="68.0168" rx="5.5" ry="7.5" fill="black"/>
        <ellipse cx="57.5" cy="68.0168" rx="5.5" ry="7.5" fill="black"/>
        <ellipse cx="57.5" cy="68.0168" rx="5.5" ry="7.5" fill="black"/>
        <ellipse cx="57.5" cy="68.0168" rx="5.5" ry="7.5" fill="black"/>
        <path d="M141.5 76.0724C141.5 76.0724 140.5 78.5724 140 80.0724C139.5 81.5724 139 85.0724 143 85.0724C147 85.0724 146 81.5724 145.5 80.0724C145 78.5724 144 76.0724 144 76.0724C144 76.0724 147.5 76.0724 149 77.0724C150.5 78.0724 152.5 80.5724 152.5 85.0724C152.5 89.5724 149 92.0724 147.5 93.0724C146 94.0724 143 94.0724 143 94.0724C143 94.0724 140 94.0724 138 93.0724C136 92.0724 133 89.0724 133 85.0724C133 81.0724 135 78.0724 136.5 77.0724C138 76.0724 141.5 76.0724 141.5 76.0724Z"
              fill="#FED722" stroke="black" stroke-width="3"/>
        <ellipse cx="83.3449" cy="92.0724" rx="4.65517" ry="3" fill="black"/>
        <ellipse cx="65.6552" cy="92.0724" rx="4.65517" ry="3" fill="black"/>
    </g>
    <defs>
        <linearGradient id="paint0_linear_434_20" x1="175.126" y1="123.261" x2="162.5" y2="144.056"
                        gradientUnits="userSpaceOnUse">
            <stop stop-color="#F8AE21"/>
            <stop offset="1" stop-color="#E52D14"/>
        </linearGradient>
        <linearGradient id="paint1_linear_434_20" x1="119.5" y1="124.556" x2="131.5" y2="123.056"
                        gradientUnits="userSpaceOnUse">
            <stop stop-color="#F8AE21"/>
            <stop offset="1" stop-color="#E52D14"/>
        </linearGradient>
        <linearGradient id="paint2_linear_434_20" x1="67" y1="95.5" x2="93.5" y2="119" gradientUnits="userSpaceOnUse">
            <stop stop-color="#F8AE21"/>
            <stop offset="1" stop-color="#E52D14"/>
        </linearGradient>
        <linearGradient id="paint3_linear_434_20" x1="8" y1="76.5" x2="39.1285" y2="74.5167"
                        gradientUnits="userSpaceOnUse">
            <stop stop-color="#F8AE21"/>
            <stop offset="1" stop-color="#E52D14"/>
        </linearGradient>
        <linearGradient id="paint4_linear_434_20" x1="143" y1="71.5" x2="127" y2="72.5" gradientUnits="userSpaceOnUse">
            <stop stop-color="#F8AE21"/>
            <stop offset="1" stop-color="#E52D14"/>
        </linearGradient>
        <linearGradient id="paint5_linear_434_20" x1="92.4831" y1="76.0908" x2="123.983" y2="64.0908"
                        gradientUnits="userSpaceOnUse">
            <stop stop-color="#F8AE21"/>
            <stop offset="1" stop-color="#E52D14"/>
        </linearGradient>
        <clipPath id="clip0_434_20">
            <rect width="180" height="180" rx="2" fill="white"/>
        </clipPath>
    </defs>
</svg>
