<svg width="11" height="12" viewBox="0 0 11 12" fill="none" xmlns="http://www.w3.org/2000/svg">
<path d="M0.702637 10.9168C0.702637 11.147 0.881882 11.3329 1.10374 11.3329H10.3292C10.5511 11.3329 10.7303 11.147 10.7303 10.9168V5.45455H0.702637V10.9168ZM10.3292 1.86509H8.2234V1.03275C8.2234 0.97553 8.17828 0.928711 8.12313 0.928711H7.42119C7.36604 0.928711 7.32091 0.97553 7.32091 1.03275V1.86509H4.11205V1.03275C4.11205 0.97553 4.06693 0.928711 4.01177 0.928711H3.30984C3.25468 0.928711 3.20956 0.97553 3.20956 1.03275V1.86509H1.10374C0.881882 1.86509 0.702637 2.05107 0.702637 2.28126V4.57019H10.7303V2.28126C10.7303 2.05107 10.5511 1.86509 10.3292 1.86509Z" fill="#929292"/>
</svg>
