<svg width="11" height="12" viewBox="0 0 11 12" fill="none" xmlns="http://www.w3.org/2000/svg">
  <path
    d="M0.702393 11.2915C0.702393 11.5328 0.881637 11.7278 1.1035 11.7278H10.329C10.5508 11.7278 10.7301 11.5328 10.7301 11.2915V5.5656H0.702393V11.2915ZM10.329 1.80287H8.22316V0.930354C8.22316 0.870368 8.17803 0.821289 8.12288 0.821289H7.42094C7.36579 0.821289 7.32067 0.870368 7.32067 0.930354V1.80287H4.11181V0.930354C4.11181 0.870368 4.06668 0.821289 4.01153 0.821289H3.30959C3.25444 0.821289 3.20931 0.870368 3.20931 0.930354V1.80287H1.1035C0.881637 1.80287 0.702393 1.99782 0.702393 2.23913V4.63855H10.7301V2.23913C10.7301 1.99782 10.5508 1.80287 10.329 1.80287Z"
    fill="#FFA109"
  />
</svg>
