<svg width="11" height="13" viewBox="0 0 11 13" fill="none" xmlns="http://www.w3.org/2000/svg">
    <path d="M10.4688 4.25H0.53125C0.376563 4.25 0.25 4.12344 0.25 3.96875V3.125C0.25 2.50391 0.753906 2 1.375 2H2.5V0.78125C2.5 0.626563 2.62656 0.5 2.78125 0.5H3.71875C3.87344 0.5 4 0.626563 4 0.78125V2H7V0.78125C7 0.626563 7.12656 0.5 7.28125 0.5H8.21875C8.37344 0.5 8.5 0.626563 8.5 0.78125V2H9.625C10.2461 2 10.75 2.50391 10.75 3.125V3.96875C10.75 4.12344 10.6234 4.25 10.4688 4.25ZM0.53125 5H10.4688C10.6234 5 10.75 5.12656 10.75 5.28125V11.375C10.75 11.9961 10.2461 12.5 9.625 12.5H1.375C0.753906 12.5 0.25 11.9961 0.25 11.375V5.28125C0.25 5.12656 0.376563 5 0.53125 5ZM6.56172 8.75L7.68906 7.62266C7.79922 7.5125 7.79922 7.33437 7.68906 7.22422L7.02578 6.56094C6.91563 6.45078 6.7375 6.45078 6.62734 6.56094L5.5 7.68828L4.37266 6.56094C4.2625 6.45078 4.08437 6.45078 3.97422 6.56094L3.31094 7.22422C3.20078 7.33437 3.20078 7.5125 3.31094 7.62266L4.43828 8.75L3.31094 9.87734C3.20078 9.9875 3.20078 10.1656 3.31094 10.2758L3.97422 10.9391C4.08437 11.0492 4.2625 11.0492 4.37266 10.9391L5.5 9.81172L6.62734 10.9391C6.7375 11.0492 6.91563 11.0492 7.02578 10.9391L7.68906 10.2758C7.79922 10.1656 7.79922 9.9875 7.68906 9.87734L6.56172 8.75Z" fill="#929292" />
  </svg>