<svg width="261" height="354" viewBox="0 0 261 354" fill="none" xmlns="http://www.w3.org/2000/svg">
<circle cx="148" cy="113" r="111" fill="#FFA109" stroke="#444648" stroke-width="4"/>
<circle cx="148" cy="113" r="93" fill="url(#paint0_linear_762_7840)" stroke="#444648" stroke-width="4"/>
<path d="M3.24356 318.626L63.236 235.304L65.9023 233.304L71.9015 231.971H80.5671L85.2332 235.304L89.8993 237.303L93.8988 241.969L97.2317 249.302L45.2383 347.289L39.239 350.622H31.9066L21.9079 347.289L13.9089 343.956L6.57651 333.958L3.24356 329.958V318.626Z" fill="#FFA109"/>
<path d="M108.564 217.306L93.3548 241.969" stroke="#444648" stroke-width="4"/>
<path d="M90.6885 209.307L76.0237 231.304" stroke="#444648" stroke-width="4"/>
<path d="M67.2355 231.971L2.57694 320.626" stroke="#444648" stroke-width="4"/>
<path d="M96.5655 247.968L44.572 348.622" stroke="#444648" stroke-width="4"/>
<path d="M65.9025 233.304L66.9998 232.693C69.4003 231.356 72.1588 230.804 74.8888 231.114V231.114C76.0036 231.24 77.0977 231.509 78.1444 231.913L80.0231 232.637L80.6565 232.849C84.1852 234.025 87.3917 236.006 90.0218 238.637V238.637L92.0892 240.704C92.9297 241.545 93.664 242.485 94.2755 243.504V243.504C94.9911 244.697 95.5319 245.986 95.8812 247.332L96.5653 249.969" stroke="#444648" stroke-width="4"/>
<path d="M45.9048 347.289L43.0656 348.566C40.3154 349.803 37.3491 350.489 34.335 350.583V350.583C31.9941 350.657 29.6557 350.373 27.4003 349.742L25.4881 349.207L24.8467 348.989C19.1798 347.066 14.019 343.891 9.74768 339.7V339.7L7.27835 337.277C5.34768 335.382 3.90074 333.052 3.05949 330.481V330.481C2.01302 327.283 1.94649 323.845 2.86843 320.609L3.24348 319.293" stroke="#444648" stroke-width="4"/>
<defs>
<linearGradient id="paint0_linear_762_7840" x1="202" y1="18" x2="102" y2="208" gradientUnits="userSpaceOnUse">
<stop stop-color="#FFA109"/>
<stop offset="1" stop-color="#F1F3FF"/>
</linearGradient>
</defs>
</svg>
