<svg width="30" height="24" viewBox="0 0 30 24" fill="none" xmlns="http://www.w3.org/2000/svg">
<path d="M15 2C12.38 2 10.25 4.13 10.25 6.75C10.25 9.32 12.26 11.4 14.88 11.49C14.96 11.48 15.04 11.48 15.1 11.49C15.12 11.49 15.13 11.49 15.15 11.49C15.16 11.49 15.16 11.49 15.17 11.49C17.73 11.4 19.74 9.32 19.75 6.75C19.75 4.13 17.62 2 15 2Z" fill="#929292"/>
<path d="M20.08 14.1499C17.29 12.2899 12.74 12.2899 9.92996 14.1499C8.65996 14.9999 7.95996 16.1499 7.95996 17.3799C7.95996 18.6099 8.65996 19.7499 9.91996 20.5899C11.32 21.5299 13.16 21.9999 15 21.9999C16.84 21.9999 18.68 21.5299 20.08 20.5899C21.34 19.7399 22.04 18.5999 22.04 17.3599C22.03 16.1299 21.34 14.9899 20.08 14.1499Z" fill="#B5B5B5"/>
<path d="M25.9899 7.3401C26.1499 9.2801 24.7699 10.9801 22.8599 11.2101C22.8499 11.2101 22.8499 11.2101 22.8399 11.2101H22.8099C22.7499 11.2101 22.6899 11.2101 22.6399 11.2301C21.6699 11.2801 20.7799 10.9701 20.1099 10.4001C21.1399 9.4801 21.7299 8.1001 21.6099 6.6001C21.5399 5.7901 21.2599 5.0501 20.8399 4.4201C21.2199 4.2301 21.6599 4.1101 22.1099 4.0701C24.0699 3.9001 25.8199 5.3601 25.9899 7.3401Z" fill="#929292"/>
<path d="M27.9902 16.5899C27.9102 17.5599 27.2902 18.3999 26.2502 18.9699C25.2502 19.5199 23.9902 19.7799 22.7402 19.7499C23.4602 19.0999 23.8802 18.2899 23.9602 17.4299C24.0602 16.1899 23.4702 14.9999 22.2902 14.0499C21.6202 13.5199 20.8402 13.0999 19.9902 12.7899C22.2002 12.1499 24.9802 12.5799 26.6902 13.9599C27.6102 14.6999 28.0802 15.6299 27.9902 16.5899Z" fill="#B5B5B5"/>
<path d="M4.01014 7.3401C3.85014 9.2801 5.23014 10.9801 7.14014 11.2101C7.15014 11.2101 7.15014 11.2101 7.16014 11.2101H7.19014C7.25014 11.2101 7.31014 11.2101 7.36014 11.2301C8.33014 11.2801 9.22014 10.9701 9.89014 10.4001C8.86014 9.4801 8.27014 8.1001 8.39014 6.6001C8.46014 5.7901 8.74014 5.0501 9.16014 4.4201C8.78014 4.2301 8.34014 4.1101 7.89014 4.0701C5.93014 3.9001 4.18014 5.3601 4.01014 7.3401Z" fill="#929292"/>
<path d="M2.00977 16.5899C2.08977 17.5599 2.70977 18.3999 3.74977 18.9699C4.74977 19.5199 6.00977 19.7799 7.25977 19.7499C6.53977 19.0999 6.11977 18.2899 6.03977 17.4299C5.93977 16.1899 6.52976 14.9999 7.70976 14.0499C8.37976 13.5199 9.15977 13.0999 10.0098 12.7899C7.79977 12.1499 5.01976 12.5799 3.30976 13.9599C2.38976 14.6999 1.91977 15.6299 2.00977 16.5899Z" fill="#B5B5B5"/>
</svg>
