<svg width="28" height="28" viewBox="0 0 28 28" fill="none" xmlns="http://www.w3.org/2000/svg">
<path d="M23.4893 17.7217C24.3439 15.6368 24.5406 13.3293 24.0518 11.1237C23.563 8.91801 22.4133 6.92513 20.7642 5.42519C19.1152 3.92526 17.0499 2.9937 14.8586 2.7615C12.6672 2.5293 10.4601 3.00812 8.54755 4.13066L7.24105 1.78164C9.23982 0.608643 11.5032 -0.00565579 13.8054 3.92402e-05C16.1076 0.00573427 18.3681 0.631224 20.3613 1.8141C26.2748 5.31937 28.5401 12.8249 25.7836 19.0835L27.551 20.1302L22.0656 23.1243L21.8483 16.7494L23.4893 17.7217ZM4.06305 9.32906C3.20848 11.414 3.01177 13.7214 3.50057 15.9271C3.98936 18.1327 5.13908 20.1256 6.78809 21.6256C8.43709 23.1255 10.5024 24.0571 12.6938 24.2893C14.8851 24.5215 17.0922 24.0426 19.0048 22.9201L20.3113 25.2691C18.3125 26.4421 16.0491 27.0564 13.7469 27.0507C11.4447 27.045 9.18425 26.4195 7.191 25.2367C1.27752 21.7314 -0.987775 14.2259 1.76878 7.96725L0 6.92189L5.48544 3.92781L5.70275 10.3027L4.06173 9.33041L4.06305 9.32906Z" fill="#929292"/>
<path d="M15.5085 17.5832L11.6086 13.7582L7.71291 17.5832L5.76506 15.6707L11.61 9.93327L15.5071 13.7582L19.4042 9.93327L21.352 11.8458L15.5071 17.5832H15.5085Z" fill="#B5B5B5"/>
</svg>
