<svg width="48" height="48" viewBox="0 0 48 48" fill="none" xmlns="http://www.w3.org/2000/svg">
  <rect x="8.5" y="16.5" width="31" height="31" rx="15.5" fill="white" />
  <rect x="8.5" y="16.5" width="31" height="31" rx="15.5" stroke="#E9E9F2" />
  <path
    fill-rule="evenodd"
    clip-rule="evenodd"
    d="M28.9077 27.092C28.1279 26.3123 27.2773 26.4818 26.9614 26.5809L26.9574 26.5821C26.9556 26.5827 26.9539 26.5834 26.9523 26.5844C26.951 26.5852 26.9499 26.586 26.9489 26.587C26.9478 26.5881 26.9466 26.5893 26.9452 26.5906L26.9221 26.6136C26.5961 26.9396 26.4331 27.1026 26.3571 27.2841C26.2535 27.5313 26.2535 27.8098 26.3571 28.057C26.4331 28.2385 26.5961 28.4015 26.9221 28.7275L27.2722 29.0776C27.5982 29.4036 27.7612 29.5666 27.9427 29.6426C28.1899 29.7462 28.4684 29.7462 28.7156 29.6426C28.8971 29.5666 29.0601 29.4036 29.3861 29.0776L29.4091 29.0545C29.4105 29.0531 29.4117 29.0519 29.4127 29.0508C29.4137 29.0498 29.4146 29.0487 29.4153 29.0475C29.4163 29.0459 29.417 29.0441 29.4176 29.0423L29.4189 29.0383C29.5179 28.7224 29.6875 27.8718 28.9077 27.092ZM26.3764 32.0873C26.7725 31.6912 26.9705 31.4932 27.0447 31.2649C27.1099 31.0641 27.1099 30.8477 27.0447 30.6469C26.9705 30.4185 26.7725 30.2205 26.3764 29.8245L26.1752 29.6233C25.7792 29.2273 25.5812 29.0292 25.3528 28.9551C25.152 28.8898 24.9357 28.8898 24.7348 28.9551C24.5065 29.0292 24.3085 29.2273 23.9125 29.6233L18.9057 34.6301C18.8605 34.6752 18.8382 34.6977 18.8226 34.7146C18.8218 34.7154 18.8214 34.7164 18.8212 34.7174C18.8175 34.7402 18.8137 34.7715 18.8061 34.835L18.5373 37.0749C18.512 37.2858 18.4981 37.4061 18.4954 37.493C18.4952 37.4994 18.5004 37.5046 18.5067 37.5044C18.5937 37.5016 18.7139 37.4877 18.9248 37.4624L21.1648 37.1936C21.2282 37.186 21.2596 37.1822 21.2823 37.1785C21.2833 37.1784 21.2844 37.1779 21.2852 37.1771C21.302 37.1615 21.3245 37.1392 21.3696 37.0941L26.3764 32.0873ZM26.6137 25.4726C27.1097 25.317 28.5027 25.0444 29.729 26.2707C30.9553 27.497 30.6827 28.89 30.5272 29.386C30.513 29.431 30.4982 29.4774 30.4626 29.5513C30.4344 29.61 30.3858 29.6902 30.3469 29.7424C30.2962 29.8103 30.2501 29.8563 30.2137 29.8926C30.2116 29.8948 30.2095 29.8969 30.2074 29.8989L22.191 37.9154C22.1853 37.9211 22.1794 37.927 22.1735 37.933C22.108 37.9987 22.0256 38.0815 21.9264 38.1473C21.8403 38.2044 21.747 38.2497 21.6489 38.2821C21.536 38.3195 21.4199 38.3331 21.3278 38.344C21.3194 38.345 21.3111 38.3459 21.3031 38.3469L19.0419 38.6183C18.86 38.6401 18.6877 38.6608 18.5431 38.6653C18.3885 38.6702 18.1984 38.6604 18.0071 38.5742C17.7488 38.4578 17.5419 38.2509 17.4255 37.9926C17.3393 37.8013 17.3295 37.6112 17.3344 37.4566C17.3389 37.312 17.3596 37.1397 17.3815 36.9578L17.6528 34.6966C17.6538 34.6886 17.6547 34.6804 17.6557 34.6719C17.6666 34.5798 17.6802 34.4638 17.7176 34.3508C17.75 34.2527 17.7953 34.1594 17.8524 34.0733C17.9182 33.9741 18.001 33.8917 18.0668 33.8263C18.0728 33.8203 18.0786 33.8144 18.0843 33.8088L26.1008 25.7923C26.1029 25.7902 26.1049 25.7881 26.1071 25.786C26.1434 25.7496 26.1894 25.7035 26.2573 25.6528C26.3095 25.6139 26.3898 25.5653 26.4484 25.5371C26.5223 25.5015 26.5687 25.4867 26.6137 25.4726Z"
    fill="#040509"
  />
  <rect x="8.5" y="8.5" width="31" height="31" rx="15.5" fill="white" />
  <rect x="8.5" y="8.5" width="31" height="31" rx="15.5" stroke="#E9E9F2" />
  <path
    fill-rule="evenodd"
    clip-rule="evenodd"
    d="M26.4676 19.8007C25.5115 19.8007 24.7364 20.5758 24.7364 21.532C24.7364 22.4881 25.5115 23.2632 26.4676 23.2632C27.4238 23.2632 28.1989 22.4881 28.1989 21.532C28.1989 20.5758 27.4238 19.8007 26.4676 19.8007ZM25.7312 21.532C25.7312 21.1252 26.0609 20.7955 26.4676 20.7955C26.8744 20.7955 27.2041 21.1252 27.2041 21.532C27.2041 21.9387 26.8744 22.2684 26.4676 22.2684C26.0609 22.2684 25.7312 21.9387 25.7312 21.532Z"
    fill="#040509"
  />
  <path
    fill-rule="evenodd"
    clip-rule="evenodd"
    d="M23.9793 17.333H24.0205C25.0244 17.333 25.8057 17.333 26.4341 17.3802C27.072 17.428 27.5923 17.5265 28.0654 17.7448C29.0324 18.1909 29.8087 18.9672 30.2548 19.9342C30.4731 20.4073 30.5716 20.9276 30.6194 21.5655C30.6666 22.1939 30.6666 22.9752 30.6666 23.9791V24.0203C30.6666 25.0241 30.6666 25.8055 30.6194 26.4339C30.5716 27.0717 30.4731 27.592 30.2548 28.0652C29.8582 28.9247 29.2008 29.6336 28.3804 30.0939C28.3744 30.1006 28.3681 30.1072 28.3617 30.1137C28.2774 30.1979 28.1706 30.2456 28.0606 30.2568C27.5888 30.4735 27.0698 30.5715 26.4341 30.6192C25.8057 30.6663 25.0244 30.6663 24.0205 30.6663H23.9793C22.9755 30.6663 22.1941 30.6663 21.5657 30.6192C20.9279 30.5713 20.4076 30.4729 19.9344 30.2546C18.9674 29.8084 18.1912 29.0322 17.745 28.0652C17.5267 27.592 17.4283 27.0717 17.3804 26.4339C17.3332 25.8055 17.3332 25.0241 17.3333 24.0203V23.9791C17.3332 22.9752 17.3332 22.1939 17.3804 21.5655C17.4283 20.9276 17.5267 20.4073 17.745 19.9342C18.1912 18.9672 18.9674 18.1909 19.9344 17.7448C20.4076 17.5265 20.9279 17.428 21.5657 17.3802C22.1941 17.333 22.9755 17.333 23.9793 17.333ZM29.3342 27.6854C29.054 28.2745 28.6152 28.7703 28.0711 29.1197L26.2371 27.2857L26.4367 27.0861C26.7052 26.8176 26.8857 26.6376 27.0358 26.5102C27.1815 26.3865 27.2655 26.3417 27.3296 26.3209C27.4961 26.2668 27.6755 26.2668 27.842 26.3209C27.9061 26.3417 27.9901 26.3865 28.1358 26.5101C28.2858 26.6375 28.4663 26.8174 28.7347 27.0859L29.3342 27.6854ZM29.6274 26.3595C29.6224 26.4271 29.6167 26.4922 29.6105 26.5548L29.4239 26.3682C29.1734 26.1177 28.9643 25.9086 28.7796 25.7518C28.5869 25.5882 28.3881 25.4524 28.1494 25.3748C27.7831 25.2558 27.3885 25.2558 27.0222 25.3748C26.7835 25.4524 26.5847 25.5882 26.392 25.7518C26.2072 25.9087 25.9981 26.1178 25.7475 26.3684L25.5285 26.5874L23.9816 25.0855C23.7308 24.8421 23.5214 24.6387 23.3367 24.4864C23.1438 24.3273 22.9455 24.1958 22.7085 24.1215C22.3445 24.0073 21.9539 24.0102 21.5916 24.1297C21.3557 24.2075 21.1594 24.342 20.9689 24.5038C20.7864 24.6589 20.58 24.8653 20.3329 25.1124L18.45 26.9953C18.416 26.8111 18.3906 26.6022 18.3724 26.3595C18.3284 25.7726 18.328 25.0284 18.328 23.9997C18.328 22.9709 18.3284 22.2268 18.3724 21.6399C18.4161 21.0581 18.5006 20.6711 18.6483 20.3509C18.9953 19.5988 19.5991 18.9951 20.3512 18.6481C20.6714 18.5003 21.0584 18.4158 21.6401 18.3722C22.227 18.3281 22.9711 18.3278 23.9999 18.3278C25.0287 18.3278 25.7728 18.3281 26.3597 18.3722C26.9415 18.4158 27.3285 18.5003 27.6487 18.6481C28.4008 18.9951 29.0045 19.5988 29.3515 20.3509C29.4992 20.6711 29.5838 21.0581 29.6274 21.6399C29.6715 22.2268 29.6718 22.9709 29.6718 23.9997C29.6718 25.0284 29.6715 25.7726 29.6274 26.3595ZM20.3512 29.3513C19.724 29.0619 19.1999 28.5939 18.8419 28.0103L21.0222 25.83C21.2871 25.5651 21.4651 25.3877 21.6131 25.2619C21.7567 25.1399 21.8397 25.0954 21.9032 25.0744C22.0679 25.0201 22.2454 25.0188 22.4109 25.0707C22.4748 25.0907 22.5584 25.134 22.7037 25.2538C22.8536 25.3775 23.0342 25.5522 23.303 25.8132L25.1846 27.64L27.078 29.5334C26.8741 29.5758 26.6394 29.6062 26.3597 29.6272C25.7728 29.6712 25.0287 29.6715 23.9999 29.6715C22.9711 29.6715 22.227 29.6712 21.6401 29.6272C21.0584 29.5835 20.6714 29.499 20.3512 29.3513Z"
    fill="#040509"
  />
  <rect x="0.5" y="8.5" width="31" height="31" rx="15.5" fill="white" />
  <rect x="0.5" y="8.5" width="31" height="31" rx="15.5" stroke="#E9E9F2" />
  <path
    fill-rule="evenodd"
    clip-rule="evenodd"
    d="M16.1279 17.333C14.1392 17.333 12.5271 18.9451 12.5271 20.9338V23.4144C12.5271 25.4031 14.1392 27.0152 16.1279 27.0152C18.1165 27.0152 19.7286 25.4031 19.7286 23.4144V20.9338C19.7286 18.9451 18.1165 17.333 16.1279 17.333ZM13.5271 20.9338C13.5271 19.4974 14.6915 18.333 16.1279 18.333C17.5642 18.333 18.7286 19.4974 18.7286 20.9338V23.4144C18.7286 24.8508 17.5642 26.0152 16.1279 26.0152C14.6915 26.0152 13.5271 24.8508 13.5271 23.4144V20.9338Z"
    fill="#040509"
  />
  <path
    d="M11.6666 23.4144C11.6666 23.1383 11.4428 22.9144 11.1666 22.9144C10.8905 22.9144 10.6666 23.1383 10.6666 23.4144C10.6666 25.1298 11.4544 26.5011 12.5207 27.4341C13.4323 28.2318 14.566 28.7261 15.6279 28.8467V30.2361C15.6279 30.5123 15.8517 30.7361 16.1279 30.7361C16.404 30.7361 16.6279 30.5123 16.6279 30.2361V28.8467C17.6897 28.7261 18.8234 28.2318 19.7351 27.4341C20.8014 26.5011 21.5891 25.1298 21.5891 23.4144C21.5891 23.1383 21.3652 22.9144 21.0891 22.9144C20.813 22.9144 20.5891 23.1383 20.5891 23.4144C20.5891 24.7997 19.9594 25.9091 19.0766 26.6815C18.1842 27.4624 17.0584 27.8756 16.1279 27.8756C15.1973 27.8756 14.0715 27.4624 13.1792 26.6815C12.2964 25.9091 11.6666 24.7997 11.6666 23.4144Z"
    fill="#040509"
  />
  <rect width="48" height="48" rx="24" fill="#FFA109" />
  <path
    fill-rule="evenodd"
    clip-rule="evenodd"
    d="M24 16.5C24.4142 16.5 24.75 16.8358 24.75 17.25V23.25H30.75C31.1642 23.25 31.5 23.5858 31.5 24C31.5 24.4142 31.1642 24.75 30.75 24.75H24.75V30.75C24.75 31.1642 24.4142 31.5 24 31.5C23.5858 31.5 23.25 31.1642 23.25 30.75V24.75H17.25C16.8358 24.75 16.5 24.4142 16.5 24C16.5 23.5858 16.8358 23.25 17.25 23.25H23.25V17.25C23.25 16.8358 23.5858 16.5 24 16.5Z"
    fill="white"
    stroke="#F5F5F5"
    stroke-width="2"
    stroke-linecap="round"
    stroke-linejoin="round"
  />
</svg>
