<svg xmlns="http://www.w3.org/2000/svg" viewBox="0 0 500 500"><g id="freepik--background-complete--inject-135"><rect y="382.4" width="500" height="0.25" style="fill:#ebebeb"></rect><rect x="416.78" y="398.49" width="33.12" height="0.25" style="fill:#ebebeb"></rect><rect x="322.53" y="401.21" width="8.69" height="0.25" style="fill:#ebebeb"></rect><rect x="396.59" y="389.21" width="19.19" height="0.25" style="fill:#ebebeb"></rect><rect x="52.46" y="390.89" width="43.19" height="0.25" style="fill:#ebebeb"></rect><rect x="104.56" y="390.89" width="6.33" height="0.25" style="fill:#ebebeb"></rect><rect x="131.47" y="395.11" width="93.68" height="0.25" style="fill:#ebebeb"></rect><path d="M237,337.8H43.91a5.71,5.71,0,0,1-5.7-5.71V60.66A5.71,5.71,0,0,1,43.91,55H237a5.71,5.71,0,0,1,5.71,5.71V332.09A5.71,5.71,0,0,1,237,337.8ZM43.91,55.2a5.46,5.46,0,0,0-5.45,5.46V332.09a5.46,5.46,0,0,0,5.45,5.46H237a5.47,5.47,0,0,0,5.46-5.46V60.66A5.47,5.47,0,0,0,237,55.2Z" style="fill:#ebebeb"></path><path d="M453.31,337.8H260.21a5.72,5.72,0,0,1-5.71-5.71V60.66A5.72,5.72,0,0,1,260.21,55h193.1A5.71,5.71,0,0,1,459,60.66V332.09A5.71,5.71,0,0,1,453.31,337.8ZM260.21,55.2a5.47,5.47,0,0,0-5.46,5.46V332.09a5.47,5.47,0,0,0,5.46,5.46h193.1a5.47,5.47,0,0,0,5.46-5.46V60.66a5.47,5.47,0,0,0-5.46-5.46Z" style="fill:#ebebeb"></path><rect x="65.2" y="128.22" width="124.78" height="128.93" style="fill:#ebebeb"></rect><rect x="69.56" y="128.22" width="124.78" height="128.93" style="fill:#f0f0f0"></rect><rect x="72.7" y="131.27" width="118.33" height="122.88" style="fill:#e0e0e0"></rect><rect x="72.7" y="131.27" width="115.37" height="122.88" style="fill:#f5f5f5"></rect><rect x="129.24" y="131.27" width="2.34" height="122.88" style="fill:#ebebeb"></rect><polygon points="115.75 131.27 82.87 254.15 79.71 254.15 112.59 131.27 115.75 131.27" style="fill:#fff"></polygon><rect x="130.58" y="129.38" width="2.01" height="127.13" style="fill:#f0f0f0"></rect><polygon points="103.81 131.27 72.7 247.56 72.7 183.64 86.71 131.27 103.81 131.27" style="fill:#fff"></polygon><polygon points="188.07 142.42 188.07 154.22 161.33 254.15 158.17 254.15 188.07 142.42" style="fill:#fff"></polygon><polygon points="188.07 166.24 188.07 230.16 181.66 254.15 164.55 254.15 188.07 166.24" style="fill:#fff"></polygon><path d="M169.29,297H182v-.85c0-1.65-1.86-3-4.07-2.88l-5,.2c-2,.09-3.64,1.35-3.64,2.88Z" style="fill:#f0f0f0"></path><path d="M194.37,297.41h16.76L213.8,274a1.65,1.65,0,0,0-1.64-1.57H200.93a1.64,1.64,0,0,0-1.64,1.57Z" style="fill:#e6e6e6"></path><path d="M168.79,238H173l4.71,44.2h-4.19A1.45,1.45,0,0,1,172.1,281l-4.43-41.69A1.1,1.1,0,0,1,168.79,238Z" style="fill:#e6e6e6"></path><path d="M175.26,282.23H238a1.11,1.11,0,0,0,1.12-1.26l-4.43-41.69a1.44,1.44,0,0,0-1.39-1.25H170.56a1.1,1.1,0,0,0-1.12,1.25L173.87,281A1.45,1.45,0,0,0,175.26,282.23Z" style="fill:#ebebeb"></path><path d="M176.43,278.14h59.14a1,1,0,0,0,1-1.09l-3.87-36.37a1.25,1.25,0,0,0-1.21-1.1H172.33a1,1,0,0,0-1,1.1l3.87,36.37A1.25,1.25,0,0,0,176.43,278.14Z" style="fill:#fafafa"></path><path d="M193.74,295.59h20.62a.91.91,0,0,1,.91.91h0a.91.91,0,0,1-.91.91H193.74a.91.91,0,0,1-.91-.91h0A.91.91,0,0,1,193.74,295.59Z" style="fill:#e6e6e6"></path><rect x="142.97" y="296.88" width="51.05" height="7.7" transform="translate(336.99 601.47) rotate(180)" style="fill:#e6e6e6"></rect><path d="M285.23,382.9h1.27a.29.29,0,0,0,.29-.29l2-78h-5.89l2,78A.31.31,0,0,0,285.23,382.9Z" style="fill:#e6e6e6"></path><polygon points="330.67 382.9 333.61 382.9 325.3 304.58 319.41 304.58 330.67 382.9" style="fill:#f0f0f0"></polygon><polygon points="140.98 382.9 140.98 382.9 152.26 304.58 146.38 304.58 138.06 382.9 140.98 382.9" style="fill:#e6e6e6"></polygon><rect x="179.46" y="296.88" width="149.24" height="7.7" transform="translate(508.16 601.47) rotate(180)" style="fill:#f5f5f5"></rect><polygon points="184.12 382.9 187.5 382.9 187.5 382.9 188.75 304.58 182.87 304.58 184.12 382.9" style="fill:#f0f0f0"></polygon><path d="M231.79,295.5h1.57a.31.31,0,0,0,.3-.3v-1.65a.3.3,0,0,0-.3-.3h-1.13a.29.29,0,0,0-.28.22l-.44,1.65A.3.3,0,0,0,231.79,295.5Z" style="fill:#f5f5f5"></path><path d="M229.63,295.5h1.57a.3.3,0,0,0,.29-.3v-1.65a.29.29,0,0,0-.29-.3h-1.13a.29.29,0,0,0-.28.22l-.45,1.65A.31.31,0,0,0,229.63,295.5Z" style="fill:#f5f5f5"></path><path d="M227.47,295.5H229a.3.3,0,0,0,.29-.3v-1.65a.29.29,0,0,0-.29-.3h-1.13a.31.31,0,0,0-.29.22l-.44,1.65A.31.31,0,0,0,227.47,295.5Z" style="fill:#f5f5f5"></path><path d="M225.31,295.5h1.56a.3.3,0,0,0,.3-.3v-1.65a.29.29,0,0,0-.3-.3h-1.12a.31.31,0,0,0-.29.22l-.44,1.65A.3.3,0,0,0,225.31,295.5Z" style="fill:#f5f5f5"></path><path d="M223.15,295.5h1.56a.3.3,0,0,0,.3-.3v-1.65a.29.29,0,0,0-.3-.3h-1.12a.3.3,0,0,0-.29.22l-.44,1.65A.3.3,0,0,0,223.15,295.5Z" style="fill:#f5f5f5"></path><path d="M221,295.5h1.56a.3.3,0,0,0,.3-.3v-1.65a.29.29,0,0,0-.3-.3h-1.12a.3.3,0,0,0-.29.22l-.44,1.65A.3.3,0,0,0,221,295.5Z" style="fill:#f5f5f5"></path><path d="M218.83,295.5h1.56a.3.3,0,0,0,.3-.3v-1.65a.29.29,0,0,0-.3-.3h-1.12a.29.29,0,0,0-.29.22l-.44,1.65A.3.3,0,0,0,218.83,295.5Z" style="fill:#f5f5f5"></path><path d="M216.67,295.5h1.56a.31.31,0,0,0,.3-.3v-1.65a.3.3,0,0,0-.3-.3h-1.12a.29.29,0,0,0-.29.22l-.44,1.65A.3.3,0,0,0,216.67,295.5Z" style="fill:#f5f5f5"></path><path d="M214.5,295.5h1.57a.31.31,0,0,0,.3-.3v-1.65a.3.3,0,0,0-.3-.3H215a.29.29,0,0,0-.29.22l-.44,1.65A.3.3,0,0,0,214.5,295.5Z" style="fill:#f5f5f5"></path><path d="M212.34,295.5h1.57a.31.31,0,0,0,.3-.3v-1.65a.3.3,0,0,0-.3-.3h-1.13a.29.29,0,0,0-.28.22l-.45,1.65A.31.31,0,0,0,212.34,295.5Z" style="fill:#f5f5f5"></path><path d="M210.18,295.5h1.57a.3.3,0,0,0,.29-.3v-1.65a.29.29,0,0,0-.29-.3h-1.13a.31.31,0,0,0-.29.22l-.44,1.65A.31.31,0,0,0,210.18,295.5Z" style="fill:#f5f5f5"></path><path d="M208,295.5h1.56a.3.3,0,0,0,.3-.3v-1.65a.29.29,0,0,0-.3-.3h-1.12a.31.31,0,0,0-.29.22l-.44,1.65A.3.3,0,0,0,208,295.5Z" style="fill:#f5f5f5"></path><path d="M205.86,295.5h1.56a.3.3,0,0,0,.3-.3v-1.65a.29.29,0,0,0-.3-.3H206.3a.31.31,0,0,0-.29.22l-.44,1.65A.3.3,0,0,0,205.86,295.5Z" style="fill:#f5f5f5"></path><path d="M203.7,295.5h1.56a.3.3,0,0,0,.3-.3v-1.65a.29.29,0,0,0-.3-.3h-1.12a.3.3,0,0,0-.29.22l-.44,1.65A.3.3,0,0,0,203.7,295.5Z" style="fill:#f5f5f5"></path><path d="M201.54,295.5h1.56a.3.3,0,0,0,.3-.3v-1.65a.29.29,0,0,0-.3-.3H202a.29.29,0,0,0-.29.22l-.44,1.65A.3.3,0,0,0,201.54,295.5Z" style="fill:#f5f5f5"></path><rect x="199.96" y="294.37" width="34.97" height="2.6" transform="translate(434.89 591.35) rotate(180)" style="fill:#ebebeb"></rect><rect x="283.12" y="89.11" width="125.56" height="161.58" transform="translate(515.8 -176) rotate(90)" style="fill:#e0e0e0"></rect><rect x="267.35" y="109.36" width="157.1" height="121.08" transform="translate(691.8 339.8) rotate(180)" style="fill:#ebebeb"></rect><line x1="343.26" y1="131.23" x2="343.26" y2="148.12" style="fill:none;stroke:#e0e0e0;stroke-miterlimit:10"></line><polyline points="304.87 202.47 304.87 148.12 376.13 148.12 376.13 179.29" style="fill:none;stroke:#e0e0e0;stroke-miterlimit:10"></polyline><polyline points="357.69 195.89 357.69 179.29 396.87 179.29 396.87 196.47" style="fill:none;stroke:#e0e0e0;stroke-miterlimit:10"></polyline><rect x="325.24" y="125.03" width="36.04" height="12.41" style="fill:#f5f5f5"></rect><rect x="359.49" y="154.8" width="34.35" height="13.48" style="fill:#f5f5f5"></rect><rect x="345.9" y="188.94" width="23.59" height="13.9" style="fill:#f5f5f5"></rect><rect x="384.24" y="191.19" width="25.27" height="10.56" style="fill:#f5f5f5"></rect><rect x="288.29" y="157.65" width="39.03" height="18.01" style="fill:#f5f5f5"></rect><rect x="292.41" y="195.89" width="24.92" height="13.16" style="fill:#f5f5f5"></rect><rect x="339.46" y="144.75" width="7.61" height="7.61" transform="translate(205.59 -199.21) rotate(45)" style="fill:#f5f5f5"></rect><rect x="372.33" y="175.49" width="7.61" height="7.61" transform="translate(236.95 -213.45) rotate(45)" style="fill:#f5f5f5"></rect><path d="M156.11,360.9a2.39,2.39,0,0,0-1.91-3.43,5.12,5.12,0,0,0-1.62-5.58,1.18,1.18,0,0,0-.7-.31,1.4,1.4,0,0,0-.76.33l-4.46,3.21a2.68,2.68,0,0,0-.89.88c-.92,1.77,2.38,4,1,5.5-.38.42-1,.51-1.5.81-1.06.66-1.19,2.12-1.68,3.28s-2.23,2-2.89,1c.49-1.11-1-2.06-2.19-2.2s-2.45-.21-3.12-1.33c-1.7,1.49-5.51-2.67-5.42-4.34a3.28,3.28,0,0,0-2.66,2.73,19.35,19.35,0,0,0-.15,4.17c0,2.71-.92,5.37-.87,8.08,0,2.11.85,4.45,2.79,5.3a7.19,7.19,0,0,0,3,.4l22-.14a3.26,3.26,0,0,0,1.55-.26c1-.52,1.2-1.82,1.29-2.93q.6-7.17,1.18-14.34Z" style="fill:#e0e0e0"></path><path d="M157.4,337.66H123.28l.28,3.44.2,2.46.52,6.41.29,3.68.4,4.9.17,2.1,0,.63.2,2.46.27,3.39.17,2.1.18,2.13.2,2.47.15,1.87.17,2.1.07.91h31.32l.07-.91.17-2.09.15-1.89.2-2.47.18-2.12.17-2.1.27-3.39.2-2.46,0-.63.17-2.1.4-4.9.29-3.67.52-6.42.2-2.46.28-3.44Zm2,2.26h0l-.66-.66h.72Zm-.17,2.09-.06.83-3.06,3.06-3.5-3.51,3.13-3.13h.74Zm-.88,10.92-2.24,2.24-3.5-3.51,3.5-3.49,2.43,2.42Zm-32.47-2.34h0l2.42-2.42,3.5,3.49-3.5,3.51-2.23-2.24ZM155,347l-3.5,3.5L148,347l3.5-3.51Zm-5.5-7.77h4l-2,2Zm.86,12.4-3.49,3.51-3.51-3.51,3.51-3.49Zm-11.63,4.64,3.5-3.5,3.5,3.5-3.5,3.5Zm2.36,4.63-3.5,3.5-3.5-3.49,3.51-3.51Zm5.78-3.5,3.49,3.51-3.49,3.49-3.51-3.5Zm-4.64-6.9-3.5-3.5,3.5-3.51,3.5,3.51Zm-1.14,1.13-3.49,3.51-3.51-3.51,3.51-3.49ZM133,350.53l-3.49-3.5,3.49-3.51,3.51,3.51Zm0,2.27,3.51,3.5L133,359.8l-3.49-3.5Zm3.51,12.77-3.51,3.5-3.49-3.5,3.49-3.5Zm1.13,1.13,3.5,3.51-3.49,3.5-3.51-3.5Zm1.14-1.13,3.5-3.5,3.5,3.5-3.5,3.5Zm8.14,1.13,3.49,3.51-3.49,3.5-3.51-3.5Zm4.63,4.64,3.5,3.5-2.27,2.27h-2.47L148,374.84Zm-3.5-5.77,3.5-3.5,3.5,3.5-3.5,3.5Zm0-9.27,3.5-3.5,3.5,3.5-3.5,3.5Zm2.36-13.91-3.49,3.51-3.51-3.51,3.14-3.13h.73Zm-8.13-1.13-2-2h4Zm-1.14,1.13-3.49,3.51-3.51-3.51,3.14-3.13H138ZM135,339.26l-2,2-2-2Zm-6.27,0,3.13,3.13-3.5,3.51-3-3.06-.06-.83,2.74-2.75Zm-3,0-.65.65h0l0-.65Zm-.22,6.05,1.72,1.72-1.46,1.46Zm1,11.75-.14-1.66h0l.9.9-.76.76Zm.17,2.11,1.72-1.74,3.5,3.51-3.5,3.49L126.94,363Zm.52,6.47v-.15l.08.08-.07.07Zm.61,7.47-.44-5.37,1-1,3.5,3.51-3.5,3.49-.59-.59Zm.32,4-.07-.8.34-.34,1.14,1.14Zm1.41-2.27,3.49-3.5,3.51,3.5-2.27,2.27h-2.47Zm7,2.27,1.14-1.14,1.14,1.14Zm4.54,0-2.27-2.27,3.5-3.5,3.5,3.5-2.26,2.27Zm4.73,0L146.9,376l1.13,1.14Zm10.68,0H155l1.13-1.14.34.34Zm.32-4-.6.59-3.5-3.49,3.5-3.51,1,1Zm.62-7.63v.16l-.08-.07.09-.09Zm.2-2.46-1.42,1.41-3.5-3.49,3.5-3.51,1.74,1.74Zm.48-5.95-.77-.77.91-.9Zm1-11.77-.26,3.2L157.29,347,159,345.3Z" style="fill:#e6e6e6"></path><rect x="121.09" y="336.23" width="42.33" height="4.46" rx="1.64" transform="translate(284.52 676.91) rotate(-180)" style="fill:#f0f0f0"></rect><rect x="124.14" y="376.31" width="36.23" height="4.46" rx="1.64" style="fill:#f0f0f0"></rect><path d="M405.45,345.83l10.63-30.64s-14.74,10.93-14.64-1.19,6.71-2.71,9-7.18-6.54-4.43-3.44-11.22,11.92,3.64,13.47-2.37,4-9.08,10.46-8.54c0,0,3.47,7.92-.78,13.63s10.52,1.14,9,6.89-6.44,10.77-8.61,6.72-4.93,3.71-1.21,5.71-4.86,10.66-6.74,6.12a47.74,47.74,0,0,0-4.82-8.58L408,348Z" style="fill:#ebebeb"></path><path d="M394.5,346.1l-12-19.59s11.85,5.33,10-3-5.06-.86-7.33-3.61,3.86-4.05.69-8.28-7.7,4.32-9.68.39-4.17-5.66-8.53-4.32c0,0-1.21,6,2.6,9.31s-7.11,2.38-5.2,6.13,6.08,6.48,7,3.35,4,1.82,1.71,3.77,5,6.64,5.58,3.21a33.43,33.43,0,0,1,2-6.66L393.05,348Z" style="fill:#e6e6e6"></path><path d="M402.57,346.29l-5.49-31.57s12.64,13,14.47,1.18-6.12-3.71-7.65-8.44,7.08-3.28,5.14-10.39-12.2,1.65-12.76-4.46-2.49-9.49-8.84-10c0,0-4.64,7.16-1.4,13.41s-10.44-.57-9.89,5.28,4.56,11.52,7.32,7.92,4.22,4.4.28,5.76,3,11.16,5.59,7a46.62,46.62,0,0,1,6.07-7.6L399.75,348Z" style="fill:#f5f5f5"></path><path d="M409.37,381.78H390.53a2.5,2.5,0,0,1-2.49-2.34l-2-32.5a2.49,2.49,0,0,1,2.49-2.64h22.83a2.49,2.49,0,0,1,2.49,2.64l-2,32.5A2.49,2.49,0,0,1,409.37,381.78Z" style="fill:#ebebeb"></path><path d="M413.61,348H386a2.49,2.49,0,0,1-2.47-2.21h0A2.49,2.49,0,0,1,386,343h27.57a2.5,2.5,0,0,1,2.48,2.78h0A2.49,2.49,0,0,1,413.61,348Z" style="fill:#f5f5f5"></path><path d="M243.39,323.39h53a0,0,0,0,1,0,0v1.89a5,5,0,0,1-5,5h-43a5,5,0,0,1-5-5v-1.89A0,0,0,0,1,243.39,323.39Z" transform="translate(539.81 653.68) rotate(180)" style="fill:#e0e0e0"></path><path d="M294.69,369.53l-17-1.67V344H271v23.87l-17.06,1.68a3.31,3.31,0,0,0-3,3.29v2.55h46.76v-2.55A3.31,3.31,0,0,0,294.69,369.53Z" style="fill:#e0e0e0"></path><path d="M257.12,378.54a4.4,4.4,0,1,1-4.4-4.4A4.4,4.4,0,0,1,257.12,378.54Z" style="fill:#e0e0e0"></path><path d="M291.48,378.54a4.4,4.4,0,1,0,4.4-4.4A4.4,4.4,0,0,0,291.48,378.54Z" style="fill:#e0e0e0"></path><path d="M269.81,327.85h9.05a0,0,0,0,1,0,0V345a4.13,4.13,0,0,1-4.13,4.13h-.79a4.13,4.13,0,0,1-4.13-4.13V327.85A0,0,0,0,1,269.81,327.85Z" style="fill:#e6e6e6"></path><path d="M265.39,323.84a293.28,293.28,0,0,0,8.75-62.24,8.73,8.73,0,0,1,8.74-8.4h15.67a8.74,8.74,0,0,1,8.75,8.7c.06,14.28-.93,43.47-9,67.2L268.48,328A3.31,3.31,0,0,1,265.39,323.84Z" style="fill:#ebebeb"></path><path d="M269.61,327.51A308.68,308.68,0,0,0,279,262.62a8.06,8.06,0,0,1,8.07-7.75H301.5a8.06,8.06,0,0,1,8.07,8c.06,13.18-.86,42.73-8.29,64.62Z" style="fill:#e6e6e6"></path><path d="M275.81,306.69s-17.18-3.47-33.77-1.79,7.8,23.36,7.8,23.36h3.43s-12.93-13.75-12.21-17.17,33.27,1.09,33.27,1.09Z" style="fill:#e6e6e6"></path><path d="M301.28,327.51H273.14a308.64,308.64,0,0,0,9.39-64.89,8,8,0,0,1,8.06-7.75H301.5a8.07,8.07,0,0,1,8.08,8C309.63,276.06,308.71,305.62,301.28,327.51Z" style="fill:#e0e0e0"></path><path d="M243.23,326.84h56.9a1.72,1.72,0,0,1,1.72,1.72h0a1.73,1.73,0,0,1-1.72,1.73h-56.9a1.73,1.73,0,0,1-1.73-1.73h0A1.72,1.72,0,0,1,243.23,326.84Z" style="fill:#e0e0e0"></path></g><g id="freepik--Shadow--inject-135"><ellipse id="freepik--path--inject-135" cx="250" cy="416.24" rx="193.89" ry="11.32" style="fill:#f5f5f5"></ellipse></g><g id="freepik--Ux--inject-135"><path d="M274.06,94.25V410.37a4.62,4.62,0,0,1-4.69,4.62H110.25a4.14,4.14,0,0,1-4.19-4.24V93.87A3.73,3.73,0,0,1,109.65,90h37.78a2.94,2.94,0,0,1,2.69,1.88l1.73,4.26A2.94,2.94,0,0,0,154.54,98h71.13a2.91,2.91,0,0,0,2.69-1.83l1.73-4.28A3,3,0,0,1,232.78,90H270A4.22,4.22,0,0,1,274.06,94.25Z" style="fill:#FFA109"></path><path d="M274.06,94.25V410.37a4.62,4.62,0,0,1-4.69,4.62H110.25a4.14,4.14,0,0,1-4.19-4.24V93.87A3.73,3.73,0,0,1,109.65,90h37.78a2.94,2.94,0,0,1,2.69,1.88l1.73,4.26A2.94,2.94,0,0,0,154.54,98h71.13a2.91,2.91,0,0,0,2.69-1.83l1.73-4.28A3,3,0,0,1,232.78,90H270A4.22,4.22,0,0,1,274.06,94.25Z" style="fill:#fff;opacity:0.6000000000000001;isolation:isolate"></path><rect x="114.54" y="329.95" width="41.41" height="41.41" rx="3.38" style="fill:#fff"></rect><rect x="123.3" y="338.71" width="23.87" height="23.87" style="fill:#FFA109;opacity:0.5"></rect><path d="M123.3,338.71v23.87h23.88V338.71Zm11.17,11.94L124.4,360.72V340.58Zm-9.3-10.84h20.14l-10.07,10.06Zm10.07,11.61,10.07,10.07H125.17Zm.77-.77,10.07-10.07v20.14Z" style="fill:#fff;opacity:0.30000000000000004;isolation:isolate"></path><rect x="114.17" y="380" width="42.14" height="4.75" style="fill:#FFA109;opacity:0.75"></rect><path d="M115.9,381.26h-1.2v-.43h2.89v.43h-1.2v3.06h-.49Z" style="fill:#fff"></path><rect x="168.63" y="329.53" width="41.41" height="41.41" rx="3.38" style="fill:#fff"></rect><rect x="177.39" y="338.3" width="23.87" height="23.87" style="fill:#FFA109;opacity:0.5"></rect><path d="M177.39,338.3v23.87h23.88V338.3Zm11.17,11.94L178.49,360.3V340.17Zm-9.3-10.84H199.4l-10.07,10.06ZM189.33,351l10.07,10.07H179.26Zm.77-.77,10.07-10.07V360.3Z" style="fill:#fff;opacity:0.30000000000000004;isolation:isolate"></path><rect x="168.26" y="379.59" width="42.14" height="4.75" style="fill:#FFA109;opacity:0.75"></rect><path d="M170,380.85h-1.2v-.43h2.89v.43h-1.2v3H170Z" style="fill:#fff"></path><rect x="222.72" y="329.12" width="41.41" height="41.41" rx="3.38" style="fill:#fff"></rect><rect x="231.48" y="337.89" width="23.87" height="23.87" style="fill:#FFA109;opacity:0.5"></rect><path d="M231.48,337.89v23.87h23.87V337.89Zm11.16,11.93-10.06,10.07V339.76ZM233.35,339h20.14l-10.07,10.07Zm10.07,11.62,10.07,10.07H233.35Zm.77-.78,10.07-10.06v20.13Z" style="fill:#fff;opacity:0.30000000000000004;isolation:isolate"></path><rect x="222.35" y="379.18" width="42.14" height="4.75" style="fill:#FFA109;opacity:0.75"></rect><path d="M224.08,380.44h-1.2V380h2.89v.44h-1.2v3.05h-.49Z" style="fill:#fff"></path><rect x="114.17" y="119.48" width="151.78" height="72.98" rx="1.94" style="fill:#fff"></rect><circle cx="121.56" cy="154.09" r="3.36" style="fill:#FFA109;opacity:0.75"></circle><polygon points="119.9 154.09 122.5 155.85 122.5 152.32 119.9 154.09" style="fill:#fff"></polygon><circle cx="258.56" cy="154.09" r="3.36" style="fill:#FFA109;opacity:0.75"></circle><polygon points="260.22 154.09 257.62 152.32 257.62 155.85 260.22 154.09" style="fill:#fff"></polygon><rect x="139.36" y="137.14" width="84.69" height="8.44" style="fill:#FFA109;opacity:0.75"></rect><rect x="139.36" y="148.1" width="84.69" height="8.44" style="fill:#FFA109;opacity:0.75"></rect><rect x="139.36" y="159.9" width="69.36" height="8.44" style="fill:#FFA109;opacity:0.75"></rect><path d="M142.44,139.38h-2.13v-.77h5.14v.77h-2.13v5.44h-.88Z" style="fill:#fff"></path><path d="M176.25,188.4a1.52,1.52,0,1,1-1.52-1.52A1.52,1.52,0,0,1,176.25,188.4Z" style="fill:#FFA109;opacity:0.75"></path><path d="M183.91,188.4a1.52,1.52,0,1,1-1.51-1.52A1.52,1.52,0,0,1,183.91,188.4Z" style="fill:#FFA109;opacity:0.75"></path><path d="M191.58,188.4a1.52,1.52,0,1,1-1.52-1.52A1.52,1.52,0,0,1,191.58,188.4Z" style="fill:#FFA109;opacity:0.75"></path><path d="M199.24,188.4a1.52,1.52,0,1,1-1.51-1.52A1.52,1.52,0,0,1,199.24,188.4Z" style="fill:#FFA109;opacity:0.75"></path><path d="M206.91,188.4a1.52,1.52,0,1,1-1.52-1.52A1.52,1.52,0,0,1,206.91,188.4Z" style="fill:#FFA109;opacity:0.75"></path><rect x="114.17" y="202.77" width="151.78" height="11.86" style="fill:#fff"></rect><rect x="253.82" y="202.64" width="12.13" height="12.13" style="fill:#FFA109;opacity:0.75"></rect><rect x="114.17" y="223.8" width="139.78" height="46.06" rx="2.6" style="fill:#fff"></rect><rect x="120.4" y="230.19" width="43.72" height="33.29" style="fill:#FFA109;opacity:0.5"></rect><path d="M120.4,230.19v33.29h43.72V230.19Zm41.73,1-19.87,15-19.86-15Zm-40.73.5,20,15.14L121.4,262Zm1,30.79,19.86-15,19.87,15Zm20.69-15.65,20-15.14V262Z" style="fill:#fff;opacity:0.30000000000000004;isolation:isolate"></path><rect x="170.91" y="230.68" width="77.5" height="4.34" style="fill:#FFA109;opacity:0.75"></rect><rect x="170.91" y="238.31" width="77.5" height="4.34" style="fill:#FFA109;opacity:0.75"></rect><rect x="170.91" y="246.37" width="35.62" height="4.34" style="fill:#FFA109;opacity:0.75"></rect><path d="M172.49,231.84H171.4v-.4H174v.4h-1.1v2.79h-.45Z" style="fill:#fff"></path><rect x="114.17" y="273.8" width="139.78" height="46.06" rx="2.6" style="fill:#fff"></rect><rect x="120.4" y="280.19" width="43.72" height="33.29" style="fill:#FFA109;opacity:0.5"></rect><path d="M120.4,280.19v33.29h43.72V280.19Zm41.73,1-19.87,15-19.86-15Zm-40.73.5,20,15.14L121.4,312Zm1,30.79,19.86-15,19.87,15Zm20.69-15.65,20-15.14V312Z" style="fill:#fff;opacity:0.30000000000000004;isolation:isolate"></path><rect x="170.91" y="280.68" width="77.5" height="4.34" style="fill:#FFA109;opacity:0.75"></rect><rect x="170.91" y="288.31" width="77.5" height="4.34" style="fill:#FFA109;opacity:0.75"></rect><rect x="170.91" y="296.37" width="35.62" height="4.34" style="fill:#FFA109;opacity:0.75"></rect><path d="M172.49,281.84H171.4v-.4H174v.4h-1.1v2.79h-.45Z" style="fill:#fff"></path><rect x="259.09" y="223.85" width="5.4" height="96.02" style="fill:#fff"></rect><rect x="259.09" y="229.07" width="5.4" height="15.04" style="fill:#FFA109;opacity:0.75"></rect><path d="M274.06,94.25v15.49h-168V93.87A3.73,3.73,0,0,1,109.65,90h37.78a2.94,2.94,0,0,1,2.69,1.88l1.73,4.26A2.94,2.94,0,0,0,154.54,98h71.13a2.91,2.91,0,0,0,2.69-1.83l1.73-4.28A3,3,0,0,1,232.78,90H270A4.22,4.22,0,0,1,274.06,94.25Z" style="fill:#FFA109"></path><path d="M106.06,394h168v16.38a4.62,4.62,0,0,1-4.69,4.62H110.25a4.14,4.14,0,0,1-4.19-4.24Z" style="fill:#FFA109"></path></g><g id="freepik--Labels--inject-135"><rect x="67.1" y="91.63" width="30.46" height="14.83" style="fill:#FFA109"></rect><line x1="72.15" y1="95.67" x2="92.52" y2="95.67" style="fill:none;stroke:#fff;stroke-linecap:round;stroke-linejoin:round"></line><line x1="72.15" y1="99.04" x2="92.52" y2="99.04" style="fill:none;stroke:#fff;stroke-linecap:round;stroke-linejoin:round"></line><line x1="72.15" y1="102.41" x2="82.34" y2="102.41" style="fill:none;stroke:#fff;stroke-linecap:round;stroke-linejoin:round"></line><line x1="88.42" y1="105.85" x2="118.48" y2="131.92" style="fill:none;stroke:#FFA109;stroke-miterlimit:10"></line><circle cx="118.48" cy="131.92" r="1.82" style="fill:#FFA109"></circle><rect x="64.1" y="275.94" width="30.46" height="14.83" style="fill:#FFA109"></rect><line x1="69.15" y1="279.98" x2="89.52" y2="279.98" style="fill:none;stroke:#fff;stroke-linecap:round;stroke-linejoin:round"></line><line x1="69.15" y1="283.35" x2="89.52" y2="283.35" style="fill:none;stroke:#fff;stroke-linecap:round;stroke-linejoin:round"></line><line x1="69.15" y1="286.72" x2="79.34" y2="286.72" style="fill:none;stroke:#fff;stroke-linecap:round;stroke-linejoin:round"></line><circle cx="115.48" cy="283.35" r="1.82" style="fill:#FFA109"></circle><line x1="115.48" y1="283.35" x2="92.74" y2="283.35" style="fill:none;stroke:#FFA109;stroke-miterlimit:10"></line><rect x="279.27" y="161.83" width="30.46" height="14.83" style="fill:#FFA109"></rect><line x1="284.31" y1="165.87" x2="304.69" y2="165.87" style="fill:none;stroke:#fff;stroke-linecap:round;stroke-linejoin:round"></line><line x1="284.31" y1="169.24" x2="304.69" y2="169.24" style="fill:none;stroke:#fff;stroke-linecap:round;stroke-linejoin:round"></line><line x1="284.31" y1="172.61" x2="294.5" y2="172.61" style="fill:none;stroke:#fff;stroke-linecap:round;stroke-linejoin:round"></line><circle cx="244.93" cy="206.12" r="1.82" style="fill:#FFA109"></circle><line x1="244.93" y1="206.12" x2="288.86" y2="173.24" style="fill:none;stroke:#FFA109;stroke-miterlimit:10"></line><rect x="282.25" y="358.75" width="30.46" height="14.83" style="fill:#FFA109"></rect><line x1="287.3" y1="362.8" x2="307.67" y2="362.8" style="fill:none;stroke:#fff;stroke-linecap:round;stroke-linejoin:round"></line><line x1="287.3" y1="366.17" x2="307.67" y2="366.17" style="fill:none;stroke:#fff;stroke-linecap:round;stroke-linejoin:round"></line><line x1="287.3" y1="369.54" x2="297.49" y2="369.54" style="fill:none;stroke:#fff;stroke-linecap:round;stroke-linejoin:round"></line><path d="M249.73,366.17a1.82,1.82,0,1,1-1.81-1.82A1.81,1.81,0,0,1,249.73,366.17Z" style="fill:#FFA109"></path><line x1="247.92" y1="366.17" x2="284.5" y2="366.17" style="fill:none;stroke:#FFA109;stroke-miterlimit:10"></line></g><g id="freepik--Character--inject-135"><path d="M343.39,202.53c-3.37.16-17.48,19.11-17.48,19.11l-5.24-6.82s-8.08,15.7-4.09,23.18,25.06-13,25.06-13Z" style="fill:#FFA109"></path><path d="M343.39,202.53,342,217.65l-.36,7.39s-3.46,3.36-7.84,6.85C327.37,237,319,242.44,316.58,238c-4-7.47,4.09-23.17,4.09-23.17l5.24,6.81,0-.06C326.74,220.44,340.13,202.68,343.39,202.53Z" style="opacity:0.2;isolation:isolate"></path><path d="M342,217.65l-.36,7.39s-3.46,3.36-7.84,6.85c-.42-8.88,7.84-21.8,7.84-21.8Z" style="opacity:0.2;isolation:isolate"></path><path d="M325.91,221.64l.75,1.44-2.2,8.55s6.06-5.51,2.2-10.92Z" style="opacity:0.2;isolation:isolate"></path><path d="M342.78,249.92l28.42,2.19s.39-17,2.65-25.81c.74-2.86,1.66-6.07,2.83-9.8.5-1.59,1-3.25,1.64-5s1.13-3.43,1.78-5.28a83.56,83.56,0,0,0-11.88-2.87A90.9,90.9,0,0,0,355.36,202c-5.57,0-12,.58-12,.58s-.91.23-1.48,6.12C341.38,214.2,341.63,229.75,342.78,249.92Z" style="fill:#FFA109"></path><path d="M342.78,249.92l28.42,2.19s0-.35,0-1c.12-3.72.68-17.26,2.62-24.83.52-2,1.14-4.27,1.89-6.73.29-1,.6-2,.94-3.07.5-1.58,1-3.25,1.63-5s1.14-3.43,1.79-5.28c-1.55-.5-3.11-.94-4.68-1.35-2.37-.61-4.78-1.11-7.2-1.52A91.06,91.06,0,0,0,355.36,202c-3.59,0-7.52.22-9.87.41-1.3.1-2.1.18-2.1.18s-.91.22-1.49,6.11C341.38,214.21,341.63,229.75,342.78,249.92Z" style="opacity:0.2;isolation:isolate"></path><path d="M357.72,208.28c7.06-.9,9.19-3.92,9.19-3.92-2.89-2.72-2.37-6.74-1.63-9.24a14.23,14.23,0,0,1,.87-2.31l-8.5,1.59A24.83,24.83,0,0,1,358,198a10.65,10.65,0,0,1-.24,2.63c-.58,2.54-2,2.57-2,2.57C354.22,206,357.72,208.28,357.72,208.28Z" style="fill:#ebb376"></path><path d="M358,198a10.65,10.65,0,0,1-.24,2.63c3.38-.45,5.93-3.15,7.54-5.49a14.23,14.23,0,0,1,.87-2.31l-8.5,1.59A24.83,24.83,0,0,1,358,198Z" style="opacity:0.2;isolation:isolate"></path><path d="M377.64,159.65h2.46c-.55-2.83-4.21-6.65-8.2-5.64a14.45,14.45,0,0,1,2.31-1.83,8.82,8.82,0,0,0-8.06,2.36c-3.44,3.54-5.24,10.88-2.23,13.75.39.37.86.26,1.37-.17,2.59,3.49,6.22.27,6.85.17s.15,1.82.15,1.82c2.08,0,2.58-2.64,2.58-2.64l2,2.64a5.78,5.78,0,0,0,1.45-5.25l1.8,1.16C380.45,161.27,377.64,159.65,377.64,159.65Z" style="fill:#263238"></path><path d="M347.86,183.11s-4.18-11,6.67-16.43,17.17,2.27,17.57,9.71-2,13.85-5.54,15.13S347.86,183.11,347.86,183.11Z" style="fill:#263238"></path><path d="M356.5,171.82c-7.32,1.06-9.11,5.32-8.56,12.94.69,9.52,3.75,15.92,12.61,12.58C372.59,192.81,368.65,170.07,356.5,171.82Z" style="fill:#ebb376"></path><path d="M352.61,183.67a15.38,15.38,0,0,1-1.69,3.34,2,2,0,0,0,2.05.55Z" style="fill:#d58745"></path><path d="M357,182.42c.07.6.46,1.05.86,1s.67-.58.59-1.19-.45-1.05-.86-1S356.93,181.82,357,182.42Z" style="fill:#263238"></path><path d="M357.78,181.25l-1.38-.36S357.19,181.92,357.78,181.25Z" style="fill:#263238"></path><path d="M349.49,183.2c.08.6.46,1.05.86,1s.67-.57.6-1.18-.46-1.05-.86-1S349.42,182.6,349.49,183.2Z" style="fill:#263238"></path><path d="M350.26,182l-1.37-.36S349.67,182.7,350.26,182Z" style="fill:#263238"></path><path d="M356.35,177.36a3.86,3.86,0,0,1,3.34.64" style="fill:none;stroke:#263238;stroke-linecap:round;stroke-linejoin:round;stroke-width:0.707962px"></path><path d="M351,177.81a3.45,3.45,0,0,0-2.83,1" style="fill:none;stroke:#263238;stroke-linecap:round;stroke-linejoin:round;stroke-width:0.707962px"></path><path d="M366.28,183s-4.29-5.52-4.44-10.23c0,0-15.37-3.83-13.95,11,0,0-3.31-12.87,9.23-15s15.15,16.31,9.44,22.74C366.56,191.52,368.94,186.46,366.28,183Z" style="fill:#263238"></path><path d="M365.31,184.72a3.24,3.24,0,0,1,3-3.43c2.3-.08,4.06,4.42-1.42,6.35C366.13,187.92,365.56,187.19,365.31,184.72Z" style="fill:#ebb376"></path><path d="M354.53,191.38s3.16.26,4-2.66" style="fill:none;stroke:#263238;stroke-linecap:round;stroke-linejoin:round;stroke-width:0.707962px"></path><path d="M338.25,215.05a.73.73,0,0,1-.74.82H329.4a1,1,0,0,1-.92-.82l-1.81-16a.81.81,0,0,1,.73-.93h8.12a1.05,1.05,0,0,1,.91.93Z" style="fill:#263238"></path><path d="M335.53,198.92l1.84,16.18a.62.62,0,0,1-.64.77h-6.88c-.46,0-1.31-.26-1.36-.72l-1.84-16.23c0-.45.74-.82,1.2-.82h6.88A.83.83,0,0,1,335.53,198.92Z" style="fill:#fff;opacity:0.5"></path><path d="M321.24,216.38l4.24-7.18a23.62,23.62,0,0,1,.35-4.66c.37-.89,4.52-2.89,5.33-2.59s1.11,7.7.37,8.7-3.33,2.11-3.33,2.11l.18,1.4-2.47,7.48Z" style="fill:#ebb376"></path><polygon points="319.54 215.57 320.95 214.16 327.61 221.64 326.66 224.6 319.54 215.57" style="fill:#FFA109"></polygon><path d="M353.29,227.51s7.83,17.84,17.94,23.62c.12-3.72.68-17.26,2.62-24.83.52-2,1.14-4.27,1.89-6.73l-3.08-3.7s-2.14,6.61-1.19,12.34L359.68,221Z" style="opacity:0.2;isolation:isolate"></path><path d="M360.87,223.41l-9.62-7.54a33.53,33.53,0,0,0-2-4.76c-.58-.7-9-3.81-9.72-3.89s0,6.9,1.06,8.09,7.84,3.54,7.84,3.54l10.07,9.48Z" style="fill:#ebb376"></path><path d="M380.1,206.18c5.65,2.83,8.16,34.72-1.65,40.23S354,227,354,227l5.7-6s11.93,10,13.38,9.08-.2-10.69-.2-10.69-1.68-3,1.85-7.6S380.1,206.18,380.1,206.18Z" style="fill:#FFA109"></path><path d="M380.1,206.18c5.65,2.83,8.16,34.72-1.65,40.23S354,227,354,227l5.7-6s11.93,10,13.38,9.08-.2-10.69-.2-10.69-1.68-3,1.85-7.6S380.1,206.18,380.1,206.18Z" style="opacity:0.2;isolation:isolate"></path><polygon points="353.88 229.25 352.18 228.22 358.57 218.85 360.92 220.16 353.88 229.25" style="fill:#FFA109"></polygon><path d="M345.49,202.36a5.33,5.33,0,0,0,1.17,3.18,8,8,0,0,0,1.89,1.7c1.83,1.21,4.68,2.27,9.1,2.85a27.59,27.59,0,0,0,7.3.07,19.29,19.29,0,0,0,3.13-.69,15.51,15.51,0,0,0,7.34-4.64c-1.56-.4-3.14-.76-4.73-1.06q-.62-.14-1.23-.24l-1.24-.22A91.06,91.06,0,0,0,355.36,202c-1.56,0-3.16,0-4.69.09-.67,0-1.33.06-1.95.11C347.49,202.21,346.38,202.29,345.49,202.36Z" style="fill:#ebb376"></path><path d="M365,210.16a19.29,19.29,0,0,0,3.13-.69,10.41,10.41,0,0,1,2.61-5.7q-.62-.14-1.23-.24C367,205.24,365.6,208.37,365,210.16Z" style="fill:#263238"></path><path d="M346.66,205.54a8,8,0,0,0,1.89,1.7,8.15,8.15,0,0,1,2.12-5.2c-.67,0-1.33.06-1.95.11A10.75,10.75,0,0,0,346.66,205.54Z" style="fill:#263238"></path><path d="M340.22,143.5h10.29a2.81,2.81,0,0,1,2.81,2.81v8a2.81,2.81,0,0,1-2.81,2.81h-3.78l-1.37,3.31L344,157.16h-3.78a2.81,2.81,0,0,1-2.81-2.81v-8A2.81,2.81,0,0,1,340.22,143.5Z" style="fill:#FFA109"></path><path d="M349.21,150.46l-1.95,0a15.36,15.36,0,0,1-.46-4.39,3.44,3.44,0,0,0-1,0c-.32.1-.43,3.46-.43,3.46a29.71,29.71,0,0,0-3.7-.07c-.12.09-.14.61-.15,1a.44.44,0,0,0,.36.44l.12,0,.18,3.34a.5.5,0,0,0,.49.47l3.27,0a1.63,1.63,0,0,0,.91-.28l.36-.24,2,.14Z" style="fill:#FFA109"></path><path d="M349.21,150.46l-1.95,0a15.36,15.36,0,0,1-.46-4.39,3.44,3.44,0,0,0-1,0c-.32.1-.43,3.46-.43,3.46a29.71,29.71,0,0,0-3.7-.07c-.12.09-.14.61-.15,1a.44.44,0,0,0,.36.44l.12,0,.18,3.34a.5.5,0,0,0,.49.47l3.27,0a1.63,1.63,0,0,0,.91-.28l.36-.24,2,.14Z" style="fill:#fff;opacity:0.7000000000000001;isolation:isolate"></path><polygon points="316.08 402.76 322.07 403.8 324.52 395.78 326.76 388.42 319.86 386.05 317.86 394.89 316.08 402.76" style="fill:#e4897b"></polygon><path d="M323.42,403.64c.1-.65-8.1-1.55-8.1-1.55s-5.89,4.12-10.93,4.4S301.53,410.1,307,411l13.4,2.32C324.2,414,322.37,410.39,323.42,403.64Z" style="fill:#263238"></path><path d="M310,403.08a.78.78,0,0,1,0-.89.87.87,0,0,1,.53-.46,3.34,3.34,0,0,1,1.85.12c-.59-.46-1.1-1-1-1.41,0-.27.25-.47.65-.57A1.28,1.28,0,0,1,313,400c1,.64,1.37,2.61,1.38,2.7a.17.17,0,0,1,0,.1h0l0,.05h0s0,0-.05.06h0a.11.11,0,0,1-.07,0,12.71,12.71,0,0,1-2.94.48A1.8,1.8,0,0,1,310,403.08Zm.64-.95a.45.45,0,0,0-.28.24c-.14.3-.05.39,0,.43.33.37,1.89.19,3.18-.1A5.41,5.41,0,0,0,310.64,402.13Zm1.42-1.85c-.12,0-.32.1-.33.21-.05.37,1,1.19,2.12,1.84a3.55,3.55,0,0,0-1.08-1.95.88.88,0,0,0-.46-.14A1.18,1.18,0,0,0,312.06,400.28Z" style="fill:#FFA109"></path><polygon points="317.82 395.08 324.5 395.94 326.75 388.5 319.85 386.09 317.82 395.08" style="opacity:0.2;isolation:isolate"></polygon><polygon points="356.06 405.28 362.13 405.28 363.13 396.96 364.04 389.33 356.82 388.18 356.41 397.23 356.06 405.28" style="fill:#e4897b"></polygon><path d="M363.44,404.89c0-.65-8.25-.14-8.25-.14s-5.07,5.06-10,6.2-2.17,4,3.33,4h13.6C366,415,363.6,411.72,363.44,404.89Z" style="fill:#263238"></path><path d="M350.13,406.63a.75.75,0,0,1-.2-.86.86.86,0,0,1,.44-.55,3.34,3.34,0,0,1,1.84-.2c-.67-.35-1.25-.78-1.28-1.2s.17-.51.54-.68a1.25,1.25,0,0,1,1.07,0c1.12.45,1.81,2.34,1.84,2.42a.25.25,0,0,1,0,.17l0,0h0a.2.2,0,0,1-.07.06,10.65,10.65,0,0,1-3.42,1A1.12,1.12,0,0,1,350.13,406.63Zm.45-1a.45.45,0,0,0-.23.28c-.08.32,0,.4,0,.43.39.31,1.9-.13,3.11-.64A5.44,5.44,0,0,0,350.58,405.59Zm1.08-2.07c-.11.06-.3.16-.29.27,0,.37,1.2,1,2.42,1.45a3.62,3.62,0,0,0-1.42-1.74,1,1,0,0,0-.33-.07A.88.88,0,0,0,351.66,403.52Z" style="fill:#FFA109"></path><polygon points="356.41 397.42 363.13 397.13 364.04 389.41 356.82 388.22 356.41 397.42" style="opacity:0.2;isolation:isolate"></polygon><path d="M317.26,390.41l9.84,1.7c9.94-24.3,17-44.59,22-61.43,2.69-9.08,4.78-17.16,6.39-24.33L355,332.81v60.11h10C389.34,279,372.11,253,372.11,253L343,248.11a127.51,127.51,0,0,0-2.43,16l-1.32,9.45L327.9,331.22Z" style="fill:#FFA109"></path><path d="M317.26,390.41l9.84,1.7c9.94-24.3,17-44.59,22-61.43,2.69-9.08,4.78-17.16,6.39-24.33L355,332.81v60.11h10C389.34,279,372.11,253,372.11,253L343,248.11a127.51,127.51,0,0,0-2.43,16l-1.32,9.45L327.9,331.22Z" style="fill:#fff;opacity:0.6000000000000001;isolation:isolate"></path><polygon points="328.65 390.92 316.44 386.94 316.6 392.04 326.7 395.21 328.65 390.92" style="fill:#FFA109"></polygon><polygon points="366.33 391.47 353.61 389.64 354.67 394.64 365.17 396.03 366.33 391.47" style="fill:#FFA109"></polygon><polygon points="372.11 248.73 372.11 252.99 342.45 250.76 342.45 245.71 372.11 248.73" style="fill:#263238"></polygon><polygon points="348.87 251.59 355.35 252.16 355.79 247.32 349.31 246.75 348.87 251.59" style="fill:#fff"></polygon><polygon points="361.77 254.29 363.24 254.37 363.62 247.01 362.15 246.93 361.77 254.29" style="fill:#FFA109"></polygon><polygon points="361.77 254.29 363.24 254.37 363.62 247.01 362.15 246.93 361.77 254.29" style="fill:#fff;opacity:0.6000000000000001;isolation:isolate"></polygon><polygon points="343.65 252.34 345.12 252.41 345.5 245.05 344.03 244.98 343.65 252.34" style="fill:#FFA109"></polygon><polygon points="343.65 252.34 345.12 252.41 345.5 245.05 344.03 244.98 343.65 252.34" style="fill:#fff;opacity:0.6000000000000001;isolation:isolate"></polygon><path d="M349.09,330.68c2.69-9.08,4.78-17.16,6.39-24.33A219.52,219.52,0,0,0,353.6,281S349.34,313.7,349.09,330.68Z" style="opacity:0.2;isolation:isolate"></path></g></svg>